Shantell Sans-Quirky ExtraBold-7deg_slnt-2deg_rot.ufo
<glyph name="exclam.alt2" format="2">
	<unicode hex="0021"/>
	<advance width="337"/>
	<outline>
		<contour>
			<point x="352" y="597" type="curve" smooth="yes"/>
			<point x="346" y="565"/>
			<point x="334" y="528"/>
			<point x="325" y="484" type="curve" smooth="yes"/>
			<point x="313" y="422"/>
			<point x="307" y="358"/>
			<point x="299" y="319" type="curve" smooth="yes"/>
			<point x="289" y="263"/>
			<point x="258" y="236"/>
			<point x="217" y="236" type="curve" smooth="yes"/>
			<point x="215" y="236"/>
			<point x="214" y="236"/>
			<point x="213" y="236" type="curve" smooth="yes"/>
			<point x="167" y="237"/>
			<point x="140" y="258"/>
			<point x="140" y="305" type="curve" smooth="yes"/>
			<point x="140" y="305"/>
			<point x="140" y="306"/>
			<point x="140" y="306" type="curve" smooth="yes"/>
			<point x="140" y="366"/>
			<point x="143" y="406"/>
			<point x="156" y="474" type="curve" smooth="yes"/>
			<point x="166" y="526"/>
			<point x="185" y="588"/>
			<point x="196" y="656" type="curve" smooth="yes"/>
			<point x="202" y="694"/>
			<point x="219" y="719"/>
			<point x="257" y="719" type="curve" smooth="yes"/>
			<point x="258" y="719"/>
			<point x="260" y="719"/>
			<point x="261" y="719" type="curve" smooth="yes"/>
			<point x="320" y="717"/>
			<point x="356" y="691"/>
			<point x="356" y="633" type="curve" smooth="yes"/>
			<point x="356" y="622"/>
			<point x="355" y="610"/>
		</contour>
		<contour>
			<point x="171" y="-13" type="curve" smooth="yes"/>
			<point x="173" y="-13"/>
			<point x="175" y="-13"/>
			<point x="177" y="-13" type="curve" smooth="yes"/>
			<point x="230" y="-13"/>
			<point x="263" y="12"/>
			<point x="271" y="54" type="curve" smooth="yes"/>
			<point x="273" y="61"/>
			<point x="273" y="68"/>
			<point x="273" y="76" type="curve" smooth="yes"/>
			<point x="273" y="122"/>
			<point x="243" y="163"/>
			<point x="173" y="166" type="curve" smooth="yes"/>
			<point x="171" y="166"/>
			<point x="169" y="166"/>
			<point x="168" y="166" type="curve" smooth="yes"/>
			<point x="117" y="166"/>
			<point x="78" y="138"/>
			<point x="67" y="80" type="curve" smooth="yes"/>
			<point x="66" y="74"/>
			<point x="65" y="67"/>
			<point x="65" y="62" type="curve" smooth="yes"/>
			<point x="65" y="16"/>
			<point x="104" y="-11"/>
		</contour>
	</outline>
</glyph>
<glyph name="quotedbl" format="2">
	<unicode hex="0022"/>
	<advance width="548"/>
	<outline>
		<contour>
			<point x="179" y="352" type="curve" smooth="yes"/>
			<point x="181" y="352"/>
			<point x="182" y="352"/>
			<point x="183" y="352" type="curve" smooth="yes"/>
			<point x="219" y="352"/>
			<point x="248" y="372"/>
			<point x="269" y="409" type="curve" smooth="yes"/>
			<point x="312" y="489"/>
			<point x="340" y="585"/>
			<point x="340" y="651" type="curve" smooth="yes"/>
			<point x="340" y="653"/>
			<point x="340" y="654"/>
			<point x="340" y="655" type="curve" smooth="yes"/>
			<point x="339" y="691"/>
			<point x="307" y="718"/>
			<point x="267" y="719" type="curve" smooth="yes"/>
			<point x="266" y="719"/>
			<point x="266" y="719"/>
			<point x="265" y="719" type="curve" smooth="yes"/>
			<point x="216" y="719"/>
			<point x="170" y="676"/>
			<point x="167" y="628" type="curve" smooth="yes"/>
			<point x="163" y="576"/>
			<point x="141" y="512"/>
			<point x="118" y="469" type="curve" smooth="yes"/>
			<point x="112" y="458"/>
			<point x="110" y="446"/>
			<point x="110" y="434" type="curve" smooth="yes"/>
			<point x="110" y="395"/>
			<point x="136" y="354"/>
		</contour>
		<contour>
			<point x="445" y="343" type="curve" smooth="yes"/>
			<point x="446" y="343"/>
			<point x="447" y="343"/>
			<point x="448" y="343" type="curve" smooth="yes"/>
			<point x="484" y="343"/>
			<point x="513" y="363"/>
			<point x="534" y="400" type="curve" smooth="yes"/>
			<point x="578" y="479"/>
			<point x="606" y="576"/>
			<point x="606" y="642" type="curve" smooth="yes"/>
			<point x="606" y="643"/>
			<point x="606" y="645"/>
			<point x="605" y="646" type="curve" smooth="yes"/>
			<point x="604" y="681"/>
			<point x="573" y="709"/>
			<point x="533" y="710" type="curve" smooth="yes"/>
			<point x="532" y="710"/>
			<point x="531" y="710"/>
			<point x="530" y="710" type="curve" smooth="yes"/>
			<point x="481" y="710"/>
			<point x="439" y="666"/>
			<point x="432" y="619" type="curve" smooth="yes"/>
			<point x="424" y="566"/>
			<point x="402" y="503"/>
			<point x="379" y="444" type="curve" smooth="yes"/>
			<point x="375" y="432"/>
			<point x="373" y="421"/>
			<point x="373" y="410" type="curve" smooth="yes"/>
			<point x="373" y="371"/>
			<point x="401" y="344"/>
		</contour>
	</outline>
</glyph>
<glyph name="numbersign.alt2" format="2">
	<unicode hex="0023"/>
	<advance width="1029"/>
	<outline>
		<contour>
			<point x="665" y="709" type="curve" smooth="yes"/>
			<point x="634" y="546"/>
			<point x="347" y="136"/>
			<point x="312" y="-43" type="curve" smooth="yes"/>
			<point x="303" y="-92"/>
			<point x="257" y="-129"/>
			<point x="216" y="-129" type="curve" smooth="yes"/>
			<point x="215" y="-129"/>
			<point x="213" y="-129"/>
			<point x="212" y="-128" type="curve" smooth="yes"/>
			<point x="167" y="-126"/>
			<point x="134" y="-97"/>
			<point x="134" y="-41" type="curve" smooth="yes"/>
			<point x="134" y="-31"/>
			<point x="135" y="-20"/>
			<point x="137" y="-8" type="curve" smooth="yes"/>
			<point x="170" y="160"/>
			<point x="457" y="571"/>
			<point x="487" y="727" type="curve" smooth="yes"/>
			<point x="500" y="792"/>
			<point x="532" y="823"/>
			<point x="579" y="823" type="curve" smooth="yes"/>
			<point x="580" y="823"/>
			<point x="580" y="823"/>
			<point x="581" y="823" type="curve" smooth="yes"/>
			<point x="631" y="822"/>
			<point x="667" y="781"/>
			<point x="667" y="730" type="curve" smooth="yes"/>
			<point x="667" y="723"/>
			<point x="666" y="716"/>
		</contour>
		<contour>
			<point x="999" y="652" type="curve" smooth="yes"/>
			<point x="971" y="507"/>
			<point x="703" y="165"/>
			<point x="650" y="-107" type="curve" smooth="yes"/>
			<point x="640" y="-161"/>
			<point x="604" y="-191"/>
			<point x="561" y="-191" type="curve" smooth="yes"/>
			<point x="560" y="-191"/>
			<point x="558" y="-191"/>
			<point x="556" y="-191" type="curve" smooth="yes"/>
			<point x="502" y="-188"/>
			<point x="470" y="-153"/>
			<point x="470" y="-107" type="curve" smooth="yes"/>
			<point x="470" y="-100"/>
			<point x="471" y="-92"/>
			<point x="473" y="-84" type="curve" smooth="yes"/>
			<point x="529" y="183"/>
			<point x="795" y="518"/>
			<point x="827" y="681" type="curve" smooth="yes"/>
			<point x="836" y="731"/>
			<point x="862" y="760"/>
			<point x="905" y="760" type="curve" smooth="yes"/>
			<point x="906" y="760"/>
			<point x="907" y="760"/>
			<point x="908" y="760" type="curve" smooth="yes"/>
			<point x="958" y="758"/>
			<point x="1001" y="724"/>
			<point x="1001" y="671" type="curve" smooth="yes"/>
			<point x="1001" y="665"/>
			<point x="1001" y="659"/>
		</contour>
		<contour>
			<point x="168" y="268" type="curve" smooth="yes"/>
			<point x="207" y="266"/>
			<point x="248" y="266"/>
			<point x="289" y="266" type="curve" smooth="yes"/>
			<point x="462" y="266"/>
			<point x="651" y="275"/>
			<point x="825" y="275" type="curve" smooth="yes"/>
			<point x="866" y="275"/>
			<point x="906" y="275"/>
			<point x="945" y="273" type="curve" smooth="yes"/>
			<point x="996" y="272"/>
			<point x="1015" y="255"/>
			<point x="1015" y="226" type="curve" smooth="yes"/>
			<point x="1015" y="221"/>
			<point x="1015" y="217"/>
			<point x="1014" y="212" type="curve" smooth="yes"/>
			<point x="1006" y="158"/>
			<point x="951" y="104"/>
			<point x="847" y="104" type="curve" smooth="yes"/>
			<point x="843" y="104"/>
			<point x="838" y="104"/>
			<point x="834" y="104" type="curve" smooth="yes"/>
			<point x="650" y="104"/>
			<point x="390" y="69"/>
			<point x="219" y="69" type="curve" smooth="yes"/>
			<point x="206" y="69"/>
			<point x="194" y="69"/>
			<point x="182" y="70" type="curve" smooth="yes"/>
			<point x="89" y="73"/>
			<point x="57" y="115"/>
			<point x="57" y="162" type="curve" smooth="yes"/>
			<point x="57" y="172"/>
			<point x="58" y="183"/>
			<point x="61" y="193" type="curve" smooth="yes"/>
			<point x="71" y="235"/>
			<point x="116" y="268"/>
			<point x="165" y="268" type="curve" smooth="yes"/>
			<point x="166" y="268"/>
			<point x="167" y="268"/>
		</contour>
		<contour>
			<point x="1015" y="545" type="curve" smooth="yes"/>
			<point x="1055" y="543"/>
			<point x="1076" y="524"/>
			<point x="1076" y="491" type="curve" smooth="yes"/>
			<point x="1076" y="485"/>
			<point x="1076" y="480"/>
			<point x="1075" y="474" type="curve" smooth="yes"/>
			<point x="1067" y="428"/>
			<point x="1022" y="385"/>
			<point x="958" y="385" type="curve" smooth="yes"/>
			<point x="957" y="385"/>
			<point x="955" y="385"/>
			<point x="954" y="385" type="curve" smooth="yes"/>
			<point x="725" y="393"/>
			<point x="527" y="407"/>
			<point x="362" y="433" type="curve" smooth="yes"/>
			<point x="270" y="446"/>
			<point x="246" y="487"/>
			<point x="246" y="527" type="curve" smooth="yes"/>
			<point x="246" y="534"/>
			<point x="246" y="541"/>
			<point x="248" y="548" type="curve" smooth="yes"/>
			<point x="256" y="592"/>
			<point x="285" y="623"/>
			<point x="343" y="623" type="curve" smooth="yes"/>
			<point x="345" y="623"/>
			<point x="347" y="622"/>
			<point x="349" y="622" type="curve" smooth="yes"/>
			<point x="440" y="619"/>
			<point x="472" y="564"/>
		</contour>
	</outline>
</glyph>
<glyph name="dollar.alt2" format="2">
	<unicode hex="0024"/>
	<advance width="603"/>
	<outline>
		<contour>
			<point x="249" y="-7" type="curve" smooth="yes"/>
			<point x="260" y="-8"/>
			<point x="271" y="-8"/>
			<point x="282" y="-8" type="curve" smooth="yes"/>
			<point x="457" y="-8"/>
			<point x="553" y="44"/>
			<point x="575" y="159" type="curve" smooth="yes"/>
			<point x="577" y="170"/>
			<point x="578" y="180"/>
			<point x="578" y="190" type="curve" smooth="yes"/>
			<point x="578" y="354"/>
			<point x="301" y="390"/>
			<point x="301" y="450" type="curve" smooth="yes"/>
			<point x="301" y="451"/>
			<point x="301" y="452"/>
			<point x="302" y="454" type="curve" smooth="yes"/>
			<point x="312" y="507"/>
			<point x="402" y="530"/>
			<point x="579" y="533" type="curve" smooth="yes"/>
			<point x="620" y="534"/>
			<point x="652" y="567"/>
			<point x="659" y="606" type="curve" smooth="yes"/>
			<point x="661" y="615"/>
			<point x="662" y="623"/>
			<point x="662" y="631" type="curve" smooth="yes"/>
			<point x="662" y="670"/>
			<point x="641" y="702"/>
			<point x="582" y="704" type="curve" smooth="yes"/>
			<point x="578" y="704"/>
			<point x="573" y="705"/>
			<point x="569" y="705" type="curve" smooth="yes"/>
			<point x="435" y="705"/>
			<point x="159" y="641"/>
			<point x="125" y="464" type="curve" smooth="yes"/>
			<point x="123" y="453"/>
			<point x="122" y="443"/>
			<point x="122" y="434" type="curve" smooth="yes"/>
			<point x="122" y="268"/>
			<point x="426" y="284"/>
			<point x="426" y="169" type="curve" smooth="yes"/>
			<point x="426" y="169"/>
			<point x="426" y="169"/>
			<point x="426" y="168" type="curve"/>
			<point x="388" y="161"/>
			<point x="361" y="159"/>
			<point x="325" y="159" type="curve" smooth="yes"/>
			<point x="306" y="159"/>
			<point x="286" y="159"/>
			<point x="260" y="160" type="curve" smooth="yes"/>
			<point x="185" y="163"/>
			<point x="173" y="190"/>
			<point x="137" y="192" type="curve" smooth="yes"/>
			<point x="136" y="192"/>
			<point x="134" y="192"/>
			<point x="133" y="192" type="curve" smooth="yes"/>
			<point x="94" y="192"/>
			<point x="81" y="171"/>
			<point x="75" y="138" type="curve" smooth="yes"/>
			<point x="73" y="131"/>
			<point x="73" y="124"/>
			<point x="73" y="118" type="curve" smooth="yes"/>
			<point x="73" y="55"/>
			<point x="131" y="-3"/>
		</contour>
		<contour>
			<point x="396" y="447" type="curve" smooth="yes"/>
			<point x="396" y="447"/>
			<point x="397" y="447"/>
			<point x="398" y="447" type="curve" smooth="yes"/>
			<point x="428" y="447"/>
			<point x="450" y="469"/>
			<point x="470" y="509" type="curve" smooth="yes"/>
			<point x="510" y="598"/>
			<point x="526" y="679"/>
			<point x="526" y="750" type="curve" smooth="yes"/>
			<point x="526" y="752"/>
			<point x="526" y="755"/>
			<point x="526" y="757" type="curve" smooth="yes"/>
			<point x="524" y="792"/>
			<point x="493" y="819"/>
			<point x="454" y="821" type="curve" smooth="yes"/>
			<point x="453" y="821"/>
			<point x="452" y="821"/>
			<point x="451" y="821" type="curve" smooth="yes"/>
			<point x="402" y="821"/>
			<point x="354" y="777"/>
			<point x="353" y="729" type="curve" smooth="yes"/>
			<point x="353" y="721"/>
			<point x="353" y="713"/>
			<point x="353" y="705" type="curve" smooth="yes"/>
			<point x="353" y="691"/>
			<point x="353" y="676"/>
			<point x="353" y="661" type="curve" smooth="yes"/>
			<point x="353" y="633"/>
			<point x="352" y="602"/>
			<point x="348" y="565" type="curve" smooth="yes"/>
			<point x="346" y="543"/>
			<point x="344" y="525"/>
			<point x="344" y="509" type="curve" smooth="yes"/>
			<point x="344" y="468"/>
			<point x="356" y="448"/>
		</contour>
		<contour>
			<point x="307" y="213" type="curve" smooth="yes"/>
			<point x="306" y="213"/>
			<point x="305" y="213"/>
			<point x="304" y="213" type="curve" smooth="yes"/>
			<point x="273" y="213"/>
			<point x="246" y="194"/>
			<point x="236" y="153" type="curve" smooth="yes"/>
			<point x="211" y="59"/>
			<point x="193" y="20"/>
			<point x="186" y="-62" type="curve" smooth="yes"/>
			<point x="186" y="-63"/>
			<point x="186" y="-64"/>
			<point x="186" y="-65" type="curve" smooth="yes"/>
			<point x="186" y="-97"/>
			<point x="215" y="-136"/>
			<point x="282" y="-138" type="curve" smooth="yes"/>
			<point x="283" y="-138"/>
			<point x="284" y="-138"/>
			<point x="285" y="-138" type="curve" smooth="yes"/>
			<point x="320" y="-138"/>
			<point x="341" y="-114"/>
			<point x="351" y="-53" type="curve" smooth="yes"/>
			<point x="356" y="-16"/>
			<point x="356" y="28"/>
			<point x="356" y="68" type="curve" smooth="yes"/>
			<point x="356" y="76"/>
			<point x="356" y="85"/>
			<point x="356" y="93" type="curve" smooth="yes"/>
			<point x="356" y="101"/>
			<point x="356" y="108"/>
			<point x="356" y="116" type="curve" smooth="yes"/>
			<point x="356" y="176"/>
			<point x="344" y="212"/>
		</contour>
	</outline>
</glyph>
<glyph name="ampersand.alt1" format="2">
	<unicode hex="0026"/>
	<advance width="713"/>
	<outline>
		<contour>
			<point x="403" y="542" type="curve" smooth="yes"/>
			<point x="399" y="542"/>
			<point x="396" y="542"/>
			<point x="392" y="542" type="curve" smooth="yes"/>
			<point x="334" y="542"/>
			<point x="299" y="523"/>
			<point x="294" y="495" type="curve" smooth="yes"/>
			<point x="293" y="492"/>
			<point x="293" y="489"/>
			<point x="293" y="486" type="curve" smooth="yes"/>
			<point x="293" y="462"/>
			<point x="317" y="440"/>
			<point x="450" y="364" type="curve" smooth="yes"/>
			<point x="637" y="257"/>
			<point x="682" y="182"/>
			<point x="682" y="98" type="curve" smooth="yes"/>
			<point x="682" y="75"/>
			<point x="679" y="52"/>
			<point x="674" y="27" type="curve" smooth="yes"/>
			<point x="661" y="-45"/>
			<point x="609" y="-145"/>
			<point x="523" y="-145" type="curve" smooth="yes"/>
			<point x="522" y="-145"/>
			<point x="520" y="-145"/>
			<point x="519" y="-145" type="curve" smooth="yes"/>
			<point x="480" y="-143"/>
			<point x="457" y="-123"/>
			<point x="457" y="-88" type="curve" smooth="yes"/>
			<point x="457" y="-82"/>
			<point x="457" y="-76"/>
			<point x="459" y="-69" type="curve" smooth="yes"/>
			<point x="467" y="-27"/>
			<point x="494" y="-24"/>
			<point x="504" y="23" type="curve" smooth="yes"/>
			<point x="505" y="31"/>
			<point x="506" y="39"/>
			<point x="506" y="46" type="curve" smooth="yes"/>
			<point x="506" y="101"/>
			<point x="462" y="155"/>
			<point x="288" y="257" type="curve" smooth="yes"/>
			<point x="152" y="337"/>
			<point x="121" y="400"/>
			<point x="121" y="460" type="curve" smooth="yes"/>
			<point x="121" y="475"/>
			<point x="123" y="490"/>
			<point x="125" y="505" type="curve" smooth="yes"/>
			<point x="145" y="608"/>
			<point x="236" y="712"/>
			<point x="415" y="712" type="curve" smooth="yes"/>
			<point x="420" y="712"/>
			<point x="426" y="712"/>
			<point x="432" y="712" type="curve" smooth="yes"/>
			<point x="507" y="709"/>
			<point x="561" y="697"/>
			<point x="613" y="669" type="curve" smooth="yes"/>
			<point x="637" y="656"/>
			<point x="650" y="632"/>
			<point x="650" y="605" type="curve" smooth="yes"/>
			<point x="650" y="600"/>
			<point x="649" y="594"/>
			<point x="648" y="588" type="curve" smooth="yes"/>
			<point x="639" y="543"/>
			<point x="593" y="507"/>
			<point x="549" y="507" type="curve" smooth="yes"/>
			<point x="548" y="507"/>
			<point x="547" y="507"/>
			<point x="546" y="507" type="curve" smooth="yes"/>
			<point x="511" y="509"/>
			<point x="487" y="539"/>
		</contour>
		<contour>
			<point x="300" y="288" type="curve" smooth="yes"/>
			<point x="265" y="253"/>
			<point x="254" y="236"/>
			<point x="248" y="207" type="curve" smooth="yes"/>
			<point x="247" y="203"/>
			<point x="247" y="200"/>
			<point x="247" y="197" type="curve" smooth="yes"/>
			<point x="247" y="169"/>
			<point x="270" y="155"/>
			<point x="297" y="154" type="curve" smooth="yes"/>
			<point x="298" y="154"/>
			<point x="300" y="154"/>
			<point x="302" y="154" type="curve" smooth="yes"/>
			<point x="385" y="154"/>
			<point x="469" y="229"/>
			<point x="597" y="393" type="curve" smooth="yes"/>
			<point x="616" y="419"/>
			<point x="631" y="435"/>
			<point x="656" y="435" type="curve" smooth="yes"/>
			<point x="657" y="435"/>
			<point x="658" y="435"/>
			<point x="658" y="435" type="curve" smooth="yes"/>
			<point x="697" y="434"/>
			<point x="730" y="405"/>
			<point x="730" y="359" type="curve" smooth="yes"/>
			<point x="730" y="353"/>
			<point x="729" y="346"/>
			<point x="728" y="339" type="curve" smooth="yes"/>
			<point x="725" y="325"/>
			<point x="712" y="294"/>
			<point x="684" y="261" type="curve" smooth="yes"/>
			<point x="492" y="38"/>
			<point x="395" y="-7"/>
			<point x="272" y="-7" type="curve" smooth="yes"/>
			<point x="265" y="-7"/>
			<point x="259" y="-7"/>
			<point x="252" y="-6" type="curve" smooth="yes"/>
			<point x="149" y="-3"/>
			<point x="71" y="57"/>
			<point x="71" y="154" type="curve" smooth="yes"/>
			<point x="71" y="166"/>
			<point x="72" y="179"/>
			<point x="75" y="193" type="curve" smooth="yes"/>
			<point x="92" y="280"/>
			<point x="144" y="335"/>
			<point x="205" y="369" type="curve" smooth="yes"/>
			<point x="225" y="380"/>
			<point x="244" y="387"/>
			<point x="262" y="387" type="curve" smooth="yes"/>
			<point x="279" y="387"/>
			<point x="294" y="381"/>
			<point x="308" y="368" type="curve" smooth="yes"/>
			<point x="315" y="362"/>
			<point x="318" y="350"/>
			<point x="318" y="338" type="curve" smooth="yes"/>
			<point x="318" y="320"/>
			<point x="312" y="300"/>
		</contour>
	</outline>
</glyph>
<glyph name="ampersand" format="2">
	<unicode hex="0026"/>
	<advance width="713"/>
	<outline>
		<contour>
			<point x="402" y="542" type="curve" smooth="yes"/>
			<point x="398" y="542"/>
			<point x="395" y="542"/>
			<point x="391" y="542" type="curve" smooth="yes"/>
			<point x="333" y="542"/>
			<point x="298" y="524"/>
			<point x="293" y="495" type="curve" smooth="yes"/>
			<point x="292" y="492"/>
			<point x="292" y="489"/>
			<point x="292" y="486" type="curve" smooth="yes"/>
			<point x="292" y="463"/>
			<point x="316" y="440"/>
			<point x="449" y="364" type="curve" smooth="yes"/>
			<point x="638" y="256"/>
			<point x="682" y="180"/>
			<point x="682" y="100" type="curve" smooth="yes"/>
			<point x="682" y="79"/>
			<point x="680" y="59"/>
			<point x="675" y="37" type="curve" smooth="yes"/>
			<point x="664" y="-22"/>
			<point x="626" y="-88"/>
			<point x="558" y="-88" type="curve" smooth="yes"/>
			<point x="557" y="-88"/>
			<point x="555" y="-88"/>
			<point x="554" y="-88" type="curve" smooth="yes"/>
			<point x="515" y="-86"/>
			<point x="492" y="-66"/>
			<point x="492" y="-31" type="curve" smooth="yes"/>
			<point x="492" y="-25"/>
			<point x="492" y="-19"/>
			<point x="494" y="-12" type="curve" smooth="yes"/>
			<point x="497" y="4"/>
			<point x="499" y="5"/>
			<point x="503" y="23" type="curve" smooth="yes"/>
			<point x="504" y="31"/>
			<point x="505" y="39"/>
			<point x="505" y="46" type="curve" smooth="yes"/>
			<point x="505" y="101"/>
			<point x="461" y="155"/>
			<point x="287" y="257" type="curve" smooth="yes"/>
			<point x="151" y="337"/>
			<point x="120" y="400"/>
			<point x="120" y="460" type="curve" smooth="yes"/>
			<point x="120" y="476"/>
			<point x="122" y="490"/>
			<point x="124" y="505" type="curve" smooth="yes"/>
			<point x="144" y="608"/>
			<point x="235" y="712"/>
			<point x="414" y="712" type="curve" smooth="yes"/>
			<point x="419" y="712"/>
			<point x="425" y="712"/>
			<point x="431" y="712" type="curve" smooth="yes"/>
			<point x="499" y="709"/>
			<point x="550" y="701"/>
			<point x="597" y="676" type="curve" smooth="yes"/>
			<point x="621" y="662"/>
			<point x="633" y="639"/>
			<point x="633" y="612" type="curve" smooth="yes"/>
			<point x="633" y="606"/>
			<point x="632" y="601"/>
			<point x="631" y="595" type="curve" smooth="yes"/>
			<point x="622" y="550"/>
			<point x="576" y="514"/>
			<point x="532" y="514" type="curve" smooth="yes"/>
			<point x="531" y="514"/>
			<point x="530" y="514"/>
			<point x="529" y="514" type="curve" smooth="yes"/>
			<point x="498" y="515"/>
			<point x="477" y="539"/>
		</contour>
		<contour>
			<point x="299" y="288" type="curve" smooth="yes"/>
			<point x="264" y="253"/>
			<point x="253" y="236"/>
			<point x="247" y="207" type="curve" smooth="yes"/>
			<point x="246" y="203"/>
			<point x="246" y="200"/>
			<point x="246" y="197" type="curve" smooth="yes"/>
			<point x="246" y="169"/>
			<point x="269" y="155"/>
			<point x="296" y="154" type="curve" smooth="yes"/>
			<point x="297" y="154"/>
			<point x="299" y="154"/>
			<point x="301" y="154" type="curve" smooth="yes"/>
			<point x="379" y="154"/>
			<point x="458" y="220"/>
			<point x="575" y="371" type="curve" smooth="yes"/>
			<point x="593" y="396"/>
			<point x="608" y="413"/>
			<point x="634" y="413" type="curve" smooth="yes"/>
			<point x="634" y="413"/>
			<point x="635" y="413"/>
			<point x="636" y="413" type="curve" smooth="yes"/>
			<point x="675" y="411"/>
			<point x="707" y="382"/>
			<point x="707" y="337" type="curve" smooth="yes"/>
			<point x="707" y="330"/>
			<point x="707" y="324"/>
			<point x="705" y="317" type="curve" smooth="yes"/>
			<point x="703" y="303"/>
			<point x="690" y="272"/>
			<point x="661" y="239" type="curve" smooth="yes"/>
			<point x="485" y="32"/>
			<point x="389" y="-7"/>
			<point x="272" y="-7" type="curve" smooth="yes"/>
			<point x="265" y="-7"/>
			<point x="258" y="-7"/>
			<point x="251" y="-6" type="curve" smooth="yes"/>
			<point x="148" y="-3"/>
			<point x="70" y="57"/>
			<point x="70" y="154" type="curve" smooth="yes"/>
			<point x="70" y="166"/>
			<point x="71" y="179"/>
			<point x="74" y="193" type="curve" smooth="yes"/>
			<point x="91" y="280"/>
			<point x="143" y="335"/>
			<point x="204" y="369" type="curve" smooth="yes"/>
			<point x="224" y="380"/>
			<point x="243" y="387"/>
			<point x="261" y="387" type="curve" smooth="yes"/>
			<point x="278" y="387"/>
			<point x="293" y="381"/>
			<point x="307" y="368" type="curve" smooth="yes"/>
			<point x="314" y="362"/>
			<point x="317" y="350"/>
			<point x="317" y="338" type="curve" smooth="yes"/>
			<point x="317" y="320"/>
			<point x="311" y="300"/>
		</contour>
	</outline>
</glyph>
<glyph name="quotesingle" format="2">
	<unicode hex="0027"/>
	<advance width="281"/>
	<outline>
		<contour>
			<point x="179" y="347" type="curve" smooth="yes"/>
			<point x="180" y="347"/>
			<point x="181" y="347"/>
			<point x="182" y="347" type="curve" smooth="yes"/>
			<point x="218" y="347"/>
			<point x="247" y="367"/>
			<point x="268" y="405" type="curve" smooth="yes"/>
			<point x="312" y="484"/>
			<point x="339" y="580"/>
			<point x="339" y="647" type="curve" smooth="yes"/>
			<point x="339" y="648"/>
			<point x="339" y="649"/>
			<point x="339" y="651" type="curve" smooth="yes"/>
			<point x="337" y="686"/>
			<point x="306" y="713"/>
			<point x="267" y="715" type="curve" smooth="yes"/>
			<point x="266" y="715"/>
			<point x="265" y="715"/>
			<point x="264" y="715" type="curve" smooth="yes"/>
			<point x="215" y="715"/>
			<point x="167" y="671"/>
			<point x="166" y="624" type="curve" smooth="yes"/>
			<point x="165" y="572"/>
			<point x="141" y="510"/>
			<point x="117" y="464" type="curve" smooth="yes"/>
			<point x="112" y="454"/>
			<point x="109" y="441"/>
			<point x="109" y="429" type="curve" smooth="yes"/>
			<point x="109" y="390"/>
			<point x="135" y="349"/>
		</contour>
	</outline>
</glyph>
<glyph name="parenleft.alt1" format="2">
	<unicode hex="0028"/>
	<advance width="519"/>
	<outline>
		<contour>
			<point x="544" y="625" type="curve" smooth="yes"/>
			<point x="428" y="517"/>
			<point x="306" y="367"/>
			<point x="272" y="187" type="curve" smooth="yes"/>
			<point x="266" y="158"/>
			<point x="263" y="132"/>
			<point x="263" y="107" type="curve" smooth="yes"/>
			<point x="263" y="1"/>
			<point x="311" y="-72"/>
			<point x="393" y="-104" type="curve" smooth="yes"/>
			<point x="428" y="-118"/>
			<point x="443" y="-130"/>
			<point x="443" y="-152" type="curve" smooth="yes"/>
			<point x="443" y="-156"/>
			<point x="443" y="-160"/>
			<point x="442" y="-165" type="curve" smooth="yes"/>
			<point x="432" y="-213"/>
			<point x="378" y="-242"/>
			<point x="333" y="-242" type="curve" smooth="yes"/>
			<point x="332" y="-242"/>
			<point x="331" y="-242"/>
			<point x="330" y="-242" type="curve" smooth="yes"/>
			<point x="309" y="-241"/>
			<point x="294" y="-238"/>
			<point x="253" y="-219" type="curve" smooth="yes"/>
			<point x="159" y="-173"/>
			<point x="85" y="-81"/>
			<point x="85" y="76" type="curve" smooth="yes"/>
			<point x="85" y="111"/>
			<point x="88" y="151"/>
			<point x="97" y="193" type="curve" smooth="yes"/>
			<point x="140" y="415"/>
			<point x="285" y="604"/>
			<point x="437" y="747" type="curve" smooth="yes"/>
			<point x="464" y="773"/>
			<point x="490" y="782"/>
			<point x="513" y="782" type="curve" smooth="yes"/>
			<point x="515" y="782"/>
			<point x="516" y="782"/>
			<point x="517" y="782" type="curve" smooth="yes"/>
			<point x="557" y="781"/>
			<point x="591" y="742"/>
			<point x="591" y="702" type="curve" smooth="yes"/>
			<point x="591" y="697"/>
			<point x="590" y="693"/>
			<point x="590" y="688" type="curve" smooth="yes"/>
			<point x="586" y="668"/>
			<point x="572" y="651"/>
		</contour>
	</outline>
</glyph>
<glyph name="parenleft.alt2" format="2">
	<unicode hex="0028"/>
	<advance width="519"/>
	<outline>
		<contour>
			<point x="532" y="601" type="curve" smooth="yes"/>
			<point x="421" y="498"/>
			<point x="304" y="357"/>
			<point x="272" y="187" type="curve" smooth="yes"/>
			<point x="266" y="160"/>
			<point x="264" y="136"/>
			<point x="264" y="112" type="curve" smooth="yes"/>
			<point x="264" y="17"/>
			<point x="306" y="-49"/>
			<point x="381" y="-79" type="curve" smooth="yes"/>
			<point x="416" y="-93"/>
			<point x="431" y="-105"/>
			<point x="431" y="-127" type="curve" smooth="yes"/>
			<point x="431" y="-131"/>
			<point x="430" y="-135"/>
			<point x="430" y="-140" type="curve" smooth="yes"/>
			<point x="420" y="-187"/>
			<point x="366" y="-216"/>
			<point x="321" y="-216" type="curve" smooth="yes"/>
			<point x="320" y="-216"/>
			<point x="319" y="-216"/>
			<point x="318" y="-216" type="curve" smooth="yes"/>
			<point x="297" y="-216"/>
			<point x="282" y="-213"/>
			<point x="241" y="-193" type="curve" smooth="yes"/>
			<point x="153" y="-151"/>
			<point x="85" y="-66"/>
			<point x="85" y="81" type="curve" smooth="yes"/>
			<point x="85" y="115"/>
			<point x="89" y="152"/>
			<point x="97" y="193" type="curve" smooth="yes"/>
			<point x="138" y="405"/>
			<point x="278" y="585"/>
			<point x="424" y="723" type="curve" smooth="yes"/>
			<point x="451" y="749"/>
			<point x="477" y="758"/>
			<point x="501" y="758" type="curve" smooth="yes"/>
			<point x="502" y="758"/>
			<point x="503" y="758"/>
			<point x="504" y="758" type="curve" smooth="yes"/>
			<point x="544" y="757"/>
			<point x="578" y="718"/>
			<point x="578" y="678" type="curve" smooth="yes"/>
			<point x="578" y="673"/>
			<point x="578" y="669"/>
			<point x="577" y="664" type="curve" smooth="yes"/>
			<point x="573" y="644"/>
			<point x="560" y="627"/>
		</contour>
	</outline>
</glyph>
<glyph name="parenright.alt1" format="2">
	<unicode hex="0029"/>
	<advance width="514"/>
	<outline>
		<contour>
			<point x="47" y="-98" type="curve" smooth="yes"/>
			<point x="180" y="-4"/>
			<point x="281" y="111"/>
			<point x="311" y="266" type="curve" smooth="yes"/>
			<point x="318" y="306"/>
			<point x="322" y="342"/>
			<point x="322" y="376" type="curve" smooth="yes"/>
			<point x="322" y="491"/>
			<point x="279" y="573"/>
			<point x="207" y="632" type="curve" smooth="yes"/>
			<point x="174" y="659"/>
			<point x="158" y="686"/>
			<point x="158" y="715" type="curve" smooth="yes"/>
			<point x="158" y="720"/>
			<point x="158" y="725"/>
			<point x="159" y="730" type="curve" smooth="yes"/>
			<point x="167" y="772"/>
			<point x="209" y="800"/>
			<point x="256" y="800" type="curve" smooth="yes"/>
			<point x="257" y="800"/>
			<point x="258" y="800"/>
			<point x="260" y="800" type="curve" smooth="yes"/>
			<point x="297" y="799"/>
			<point x="314" y="793"/>
			<point x="341" y="772" type="curve" smooth="yes"/>
			<point x="439" y="697"/>
			<point x="500" y="567"/>
			<point x="500" y="403" type="curve" smooth="yes"/>
			<point x="500" y="357"/>
			<point x="495" y="310"/>
			<point x="486" y="260" type="curve" smooth="yes"/>
			<point x="447" y="62"/>
			<point x="323" y="-102"/>
			<point x="163" y="-197" type="curve" smooth="yes"/>
			<point x="125" y="-220"/>
			<point x="92" y="-230"/>
			<point x="66" y="-230" type="curve" smooth="yes"/>
			<point x="65" y="-230"/>
			<point x="64" y="-230"/>
			<point x="63" y="-230" type="curve" smooth="yes"/>
			<point x="31" y="-228"/>
			<point x="-3" y="-213"/>
			<point x="-3" y="-177" type="curve" smooth="yes"/>
			<point x="-3" y="-173"/>
			<point x="-2" y="-168"/>
			<point x="-2" y="-164" type="curve" smooth="yes"/>
			<point x="4" y="-136"/>
			<point x="19" y="-119"/>
		</contour>
	</outline>
</glyph>
<glyph name="parenright.alt2" format="2">
	<unicode hex="0029"/>
	<advance width="514"/>
	<outline>
		<contour>
			<point x="61" y="-73" type="curve" smooth="yes"/>
			<point x="186" y="15"/>
			<point x="283" y="122"/>
			<point x="310" y="266" type="curve" smooth="yes"/>
			<point x="318" y="304"/>
			<point x="321" y="339"/>
			<point x="321" y="371" type="curve" smooth="yes"/>
			<point x="321" y="481"/>
			<point x="281" y="559"/>
			<point x="213" y="615" type="curve" smooth="yes"/>
			<point x="180" y="641"/>
			<point x="163" y="668"/>
			<point x="163" y="697" type="curve" smooth="yes"/>
			<point x="163" y="703"/>
			<point x="164" y="708"/>
			<point x="165" y="713" type="curve" smooth="yes"/>
			<point x="173" y="755"/>
			<point x="214" y="783"/>
			<point x="261" y="783" type="curve" smooth="yes"/>
			<point x="263" y="783"/>
			<point x="264" y="783"/>
			<point x="265" y="783" type="curve" smooth="yes"/>
			<point x="302" y="781"/>
			<point x="320" y="776"/>
			<point x="347" y="755" type="curve" smooth="yes"/>
			<point x="441" y="682"/>
			<point x="499" y="558"/>
			<point x="499" y="399" type="curve" smooth="yes"/>
			<point x="499" y="355"/>
			<point x="495" y="309"/>
			<point x="485" y="260" type="curve" smooth="yes"/>
			<point x="449" y="72"/>
			<point x="329" y="-82"/>
			<point x="177" y="-172" type="curve" smooth="yes"/>
			<point x="139" y="-195"/>
			<point x="105" y="-205"/>
			<point x="80" y="-205" type="curve" smooth="yes"/>
			<point x="79" y="-205"/>
			<point x="77" y="-205"/>
			<point x="76" y="-205" type="curve" smooth="yes"/>
			<point x="45" y="-204"/>
			<point x="11" y="-188"/>
			<point x="11" y="-152" type="curve" smooth="yes"/>
			<point x="11" y="-148"/>
			<point x="11" y="-144"/>
			<point x="12" y="-139" type="curve" smooth="yes"/>
			<point x="17" y="-111"/>
			<point x="33" y="-94"/>
		</contour>
	</outline>
</glyph>
<glyph name="parenright" format="2">
	<unicode hex="0029"/>
	<advance width="514"/>
	<outline>
		<contour>
			<point x="73" y="-48" type="curve" smooth="yes"/>
			<point x="192" y="35"/>
			<point x="285" y="133"/>
			<point x="310" y="266" type="curve" smooth="yes"/>
			<point x="317" y="302"/>
			<point x="321" y="336"/>
			<point x="321" y="367" type="curve" smooth="yes"/>
			<point x="321" y="471"/>
			<point x="283" y="545"/>
			<point x="217" y="597" type="curve" smooth="yes"/>
			<point x="184" y="624"/>
			<point x="168" y="651"/>
			<point x="168" y="680" type="curve" smooth="yes"/>
			<point x="168" y="685"/>
			<point x="168" y="691"/>
			<point x="169" y="696" type="curve" smooth="yes"/>
			<point x="177" y="737"/>
			<point x="219" y="766"/>
			<point x="266" y="766" type="curve" smooth="yes"/>
			<point x="267" y="766"/>
			<point x="268" y="766"/>
			<point x="270" y="766" type="curve" smooth="yes"/>
			<point x="307" y="764"/>
			<point x="325" y="759"/>
			<point x="351" y="738" type="curve" smooth="yes"/>
			<point x="442" y="668"/>
			<point x="499" y="547"/>
			<point x="499" y="394" type="curve" smooth="yes"/>
			<point x="499" y="352"/>
			<point x="494" y="307"/>
			<point x="485" y="260" type="curve" smooth="yes"/>
			<point x="451" y="83"/>
			<point x="336" y="-60"/>
			<point x="189" y="-147" type="curve" smooth="yes"/>
			<point x="152" y="-170"/>
			<point x="118" y="-180"/>
			<point x="92" y="-180" type="curve" smooth="yes"/>
			<point x="91" y="-180"/>
			<point x="90" y="-180"/>
			<point x="89" y="-180" type="curve" smooth="yes"/>
			<point x="58" y="-179"/>
			<point x="23" y="-164"/>
			<point x="23" y="-127" type="curve" smooth="yes"/>
			<point x="23" y="-123"/>
			<point x="24" y="-119"/>
			<point x="25" y="-114" type="curve" smooth="yes"/>
			<point x="30" y="-86"/>
			<point x="45" y="-70"/>
		</contour>
	</outline>
</glyph>
<glyph name="asterisk.alt2" format="2">
	<unicode hex="002A"/>
	<advance width="520"/>
	<outline>
		<contour>
			<point x="426" y="567" type="curve" smooth="yes"/>
			<point x="413" y="496"/>
			<point x="387" y="383"/>
			<point x="386" y="295" type="curve" smooth="yes"/>
			<point x="385" y="252"/>
			<point x="363" y="225"/>
			<point x="318" y="225" type="curve" smooth="yes"/>
			<point x="317" y="225"/>
			<point x="316" y="225"/>
			<point x="314" y="225" type="curve" smooth="yes"/>
			<point x="279" y="226"/>
			<point x="264" y="247"/>
			<point x="264" y="275" type="curve" smooth="yes"/>
			<point x="264" y="277"/>
			<point x="264" y="278"/>
			<point x="264" y="280" type="curve" smooth="yes"/>
			<point x="264" y="373"/>
			<point x="292" y="496"/>
			<point x="307" y="572" type="curve" smooth="yes"/>
			<point x="313" y="600"/>
			<point x="315" y="621"/>
			<point x="315" y="637" type="curve" smooth="yes"/>
			<point x="315" y="676"/>
			<point x="304" y="689"/>
			<point x="304" y="710" type="curve" smooth="yes"/>
			<point x="304" y="714"/>
			<point x="305" y="719"/>
			<point x="305" y="724" type="curve" smooth="yes"/>
			<point x="311" y="751"/>
			<point x="328" y="767"/>
			<point x="360" y="767" type="curve" smooth="yes"/>
			<point x="361" y="767"/>
			<point x="363" y="767"/>
			<point x="364" y="767" type="curve" smooth="yes"/>
			<point x="407" y="765"/>
			<point x="436" y="731"/>
			<point x="436" y="655" type="curve" smooth="yes"/>
			<point x="436" y="630"/>
			<point x="433" y="601"/>
		</contour>
		<contour>
			<point x="552" y="589" type="curve" smooth="yes"/>
			<point x="481" y="514"/>
			<point x="317" y="440"/>
			<point x="234" y="344" type="curve" smooth="yes"/>
			<point x="218" y="325"/>
			<point x="204" y="318"/>
			<point x="184" y="318" type="curve" smooth="yes"/>
			<point x="183" y="318"/>
			<point x="182" y="318"/>
			<point x="181" y="318" type="curve" smooth="yes"/>
			<point x="153" y="319"/>
			<point x="130" y="344"/>
			<point x="130" y="371" type="curve" smooth="yes"/>
			<point x="130" y="375"/>
			<point x="131" y="378"/>
			<point x="131" y="382" type="curve" smooth="yes"/>
			<point x="133" y="393"/>
			<point x="137" y="405"/>
			<point x="161" y="430" type="curve" smooth="yes"/>
			<point x="237" y="509"/>
			<point x="418" y="602"/>
			<point x="477" y="667" type="curve" smooth="yes"/>
			<point x="497" y="690"/>
			<point x="515" y="702"/>
			<point x="537" y="702" type="curve" smooth="yes"/>
			<point x="538" y="702"/>
			<point x="539" y="702"/>
			<point x="540" y="702" type="curve" smooth="yes"/>
			<point x="569" y="701"/>
			<point x="582" y="683"/>
			<point x="582" y="659" type="curve" smooth="yes"/>
			<point x="582" y="654"/>
			<point x="581" y="649"/>
			<point x="580" y="643" type="curve" smooth="yes"/>
			<point x="576" y="620"/>
			<point x="566" y="605"/>
		</contour>
		<contour>
			<point x="236" y="643" type="curve" smooth="yes"/>
			<point x="300" y="602"/>
			<point x="435" y="549"/>
			<point x="541" y="481" type="curve" smooth="yes"/>
			<point x="555" y="472"/>
			<point x="563" y="458"/>
			<point x="563" y="439" type="curve" smooth="yes"/>
			<point x="563" y="435"/>
			<point x="563" y="430"/>
			<point x="562" y="426" type="curve" smooth="yes"/>
			<point x="556" y="394"/>
			<point x="534" y="367"/>
			<point x="500" y="367" type="curve" smooth="yes"/>
			<point x="499" y="367"/>
			<point x="498" y="367"/>
			<point x="498" y="367" type="curve" smooth="yes"/>
			<point x="479" y="367"/>
			<point x="472" y="372"/>
			<point x="437" y="394" type="curve" smooth="yes"/>
			<point x="357" y="445"/>
			<point x="220" y="500"/>
			<point x="158" y="543" type="curve" smooth="yes"/>
			<point x="131" y="562"/>
			<point x="124" y="586"/>
			<point x="124" y="605" type="curve" smooth="yes"/>
			<point x="124" y="611"/>
			<point x="125" y="616"/>
			<point x="125" y="620" type="curve" smooth="yes"/>
			<point x="131" y="651"/>
			<point x="152" y="667"/>
			<point x="179" y="667" type="curve" smooth="yes"/>
			<point x="180" y="667"/>
			<point x="181" y="667"/>
			<point x="181" y="667" type="curve" smooth="yes"/>
			<point x="201" y="666"/>
			<point x="210" y="659"/>
		</contour>
	</outline>
</glyph>
<glyph name="comma" format="2">
	<unicode hex="002C"/>
	<advance width="320"/>
	<outline>
		<contour>
			<point x="188" y="204" type="curve" smooth="yes"/>
			<point x="187" y="204"/>
			<point x="185" y="204"/>
			<point x="184" y="204" type="curve" smooth="yes"/>
			<point x="133" y="204"/>
			<point x="102" y="169"/>
			<point x="92" y="116" type="curve" smooth="yes"/>
			<point x="87" y="89"/>
			<point x="83" y="16"/>
			<point x="40" y="-60" type="curve" smooth="yes"/>
			<point x="24" y="-89"/>
			<point x="16" y="-107"/>
			<point x="12" y="-126" type="curve" smooth="yes"/>
			<point x="11" y="-131"/>
			<point x="11" y="-135"/>
			<point x="11" y="-139" type="curve" smooth="yes"/>
			<point x="11" y="-163"/>
			<point x="26" y="-177"/>
			<point x="58" y="-178" type="curve" smooth="yes"/>
			<point x="59" y="-178"/>
			<point x="60" y="-178"/>
			<point x="61" y="-178" type="curve" smooth="yes"/>
			<point x="105" y="-178"/>
			<point x="158" y="-145"/>
			<point x="191" y="-105" type="curve" smooth="yes"/>
			<point x="236" y="-50"/>
			<point x="274" y="25"/>
			<point x="288" y="94" type="curve" smooth="yes"/>
			<point x="289" y="102"/>
			<point x="290" y="109"/>
			<point x="290" y="116" type="curve" smooth="yes"/>
			<point x="290" y="167"/>
			<point x="253" y="202"/>
		</contour>
	</outline>
</glyph>
<glyph name="hyphen" format="2">
	<unicode hex="002D"/>
	<advance width="531"/>
	<outline>
		<contour>
			<point x="231" y="178" type="curve" smooth="yes"/>
			<point x="233" y="178"/>
			<point x="236" y="178"/>
			<point x="238" y="178" type="curve" smooth="yes"/>
			<point x="263" y="178"/>
			<point x="300" y="182"/>
			<point x="373" y="182" type="curve" smooth="yes"/>
			<point x="399" y="182"/>
			<point x="429" y="181"/>
			<point x="464" y="180" type="curve" smooth="yes"/>
			<point x="465" y="180"/>
			<point x="465" y="180"/>
			<point x="466" y="180" type="curve" smooth="yes"/>
			<point x="496" y="180"/>
			<point x="517" y="200"/>
			<point x="523" y="232" type="curve" smooth="yes"/>
			<point x="524" y="236"/>
			<point x="524" y="241"/>
			<point x="524" y="245" type="curve" smooth="yes"/>
			<point x="524" y="286"/>
			<point x="489" y="343"/>
			<point x="383" y="347" type="curve" smooth="yes"/>
			<point x="356" y="348"/>
			<point x="329" y="349"/>
			<point x="302" y="349" type="curve" smooth="yes"/>
			<point x="247" y="349"/>
			<point x="191" y="345"/>
			<point x="131" y="330" type="curve" smooth="yes"/>
			<point x="102" y="323"/>
			<point x="93" y="309"/>
			<point x="89" y="287" type="curve" smooth="yes"/>
			<point x="88" y="283"/>
			<point x="88" y="278"/>
			<point x="88" y="274" type="curve" smooth="yes"/>
			<point x="88" y="228"/>
			<point x="136" y="181"/>
		</contour>
	</outline>
</glyph>
<glyph name="period.alt1" format="2">
	<unicode hex="002E"/>
	<advance width="326"/>
	<outline>
		<contour>
			<point x="180" y="-17" type="curve" smooth="yes"/>
			<point x="182" y="-17"/>
			<point x="184" y="-17"/>
			<point x="186" y="-17" type="curve" smooth="yes"/>
			<point x="246" y="-17"/>
			<point x="283" y="15"/>
			<point x="290" y="53" type="curve" smooth="yes"/>
			<point x="292" y="64"/>
			<point x="293" y="75"/>
			<point x="293" y="86" type="curve" smooth="yes"/>
			<point x="293" y="144"/>
			<point x="260" y="195"/>
			<point x="173" y="198" type="curve" smooth="yes"/>
			<point x="172" y="198"/>
			<point x="170" y="198"/>
			<point x="169" y="198" type="curve" smooth="yes"/>
			<point x="119" y="198"/>
			<point x="73" y="165"/>
			<point x="61" y="105" type="curve" smooth="yes"/>
			<point x="59" y="94"/>
			<point x="58" y="84"/>
			<point x="58" y="75" type="curve" smooth="yes"/>
			<point x="58" y="16"/>
			<point x="99" y="-14"/>
		</contour>
	</outline>
</glyph>
<glyph name="period.alt2" format="2">
	<unicode hex="002E"/>
	<advance width="323"/>
	<outline>
		<contour>
			<point x="178" y="-17" type="curve" smooth="yes"/>
			<point x="180" y="-17"/>
			<point x="182" y="-17"/>
			<point x="184" y="-17" type="curve" smooth="yes"/>
			<point x="244" y="-17"/>
			<point x="281" y="15"/>
			<point x="288" y="53" type="curve" smooth="yes"/>
			<point x="290" y="64"/>
			<point x="291" y="75"/>
			<point x="291" y="86" type="curve" smooth="yes"/>
			<point x="291" y="144"/>
			<point x="258" y="195"/>
			<point x="171" y="198" type="curve" smooth="yes"/>
			<point x="170" y="198"/>
			<point x="168" y="198"/>
			<point x="167" y="198" type="curve" smooth="yes"/>
			<point x="117" y="198"/>
			<point x="71" y="165"/>
			<point x="59" y="105" type="curve" smooth="yes"/>
			<point x="57" y="94"/>
			<point x="56" y="84"/>
			<point x="56" y="75" type="curve" smooth="yes"/>
			<point x="56" y="16"/>
			<point x="97" y="-14"/>
		</contour>
	</outline>
</glyph>
<glyph name="period" format="2">
	<unicode hex="002E"/>
	<advance width="320"/>
	<outline>
		<contour>
			<point x="177" y="-17" type="curve" smooth="yes"/>
			<point x="179" y="-17"/>
			<point x="181" y="-17"/>
			<point x="183" y="-17" type="curve" smooth="yes"/>
			<point x="243" y="-17"/>
			<point x="280" y="15"/>
			<point x="287" y="53" type="curve" smooth="yes"/>
			<point x="289" y="64"/>
			<point x="290" y="75"/>
			<point x="290" y="86" type="curve" smooth="yes"/>
			<point x="290" y="144"/>
			<point x="257" y="195"/>
			<point x="170" y="198" type="curve" smooth="yes"/>
			<point x="169" y="198"/>
			<point x="167" y="198"/>
			<point x="166" y="198" type="curve" smooth="yes"/>
			<point x="116" y="198"/>
			<point x="70" y="165"/>
			<point x="58" y="105" type="curve" smooth="yes"/>
			<point x="56" y="94"/>
			<point x="55" y="84"/>
			<point x="55" y="75" type="curve" smooth="yes"/>
			<point x="55" y="16"/>
			<point x="96" y="-14"/>
		</contour>
	</outline>
</glyph>
<glyph name="slash.alt1" format="2">
	<unicode hex="002F"/>
	<advance width="455"/>
	<outline>
		<contour>
			<point x="598" y="631" type="curve" smooth="yes"/>
			<point x="423" y="421"/>
			<point x="283" y="188"/>
			<point x="195" y="-98" type="curve" smooth="yes"/>
			<point x="179" y="-153"/>
			<point x="142" y="-183"/>
			<point x="95" y="-183" type="curve" smooth="yes"/>
			<point x="93" y="-183"/>
			<point x="92" y="-183"/>
			<point x="91" y="-183" type="curve" smooth="yes"/>
			<point x="42" y="-181"/>
			<point x="16" y="-149"/>
			<point x="16" y="-105" type="curve" smooth="yes"/>
			<point x="16" y="-92"/>
			<point x="18" y="-79"/>
			<point x="22" y="-65" type="curve" smooth="yes"/>
			<point x="113" y="227"/>
			<point x="303" y="564"/>
			<point x="456" y="733" type="curve" smooth="yes"/>
			<point x="505" y="788"/>
			<point x="537" y="814"/>
			<point x="577" y="814" type="curve" smooth="yes"/>
			<point x="578" y="814"/>
			<point x="579" y="814"/>
			<point x="580" y="814" type="curve" smooth="yes"/>
			<point x="621" y="813"/>
			<point x="645" y="783"/>
			<point x="645" y="741" type="curve" smooth="yes"/>
			<point x="645" y="709"/>
			<point x="631" y="670"/>
		</contour>
	</outline>
</glyph>
<glyph name="zero.alt2" format="2">
	<unicode hex="0030"/>
	<advance width="700"/>
	<outline>
		<contour>
			<point x="386" y="485" type="curve" smooth="yes"/>
			<point x="301" y="436"/>
			<point x="264" y="377"/>
			<point x="248" y="291" type="curve" smooth="yes"/>
			<point x="246" y="280"/>
			<point x="245" y="270"/>
			<point x="245" y="260" type="curve" smooth="yes"/>
			<point x="245" y="209"/>
			<point x="273" y="174"/>
			<point x="336" y="171" type="curve" smooth="yes"/>
			<point x="337" y="171"/>
			<point x="339" y="171"/>
			<point x="340" y="171" type="curve" smooth="yes"/>
			<point x="425" y="171"/>
			<point x="531" y="252"/>
			<point x="560" y="402" type="curve" smooth="yes"/>
			<point x="564" y="419"/>
			<point x="566" y="435"/>
			<point x="566" y="450" type="curve" smooth="yes"/>
			<point x="566" y="498"/>
			<point x="546" y="532"/>
			<point x="491" y="534" type="curve" smooth="yes"/>
			<point x="488" y="534"/>
			<point x="484" y="534"/>
			<point x="481" y="534" type="curve" smooth="yes"/>
			<point x="408" y="534"/>
			<point x="369" y="505"/>
			<point x="327" y="476" type="curve" smooth="yes"/>
			<point x="305" y="461"/>
			<point x="283" y="449"/>
			<point x="265" y="449" type="curve" smooth="yes"/>
			<point x="264" y="449"/>
			<point x="264" y="449"/>
			<point x="263" y="449" type="curve" smooth="yes"/>
			<point x="207" y="451"/>
			<point x="187" y="496"/>
			<point x="187" y="534" type="curve" smooth="yes"/>
			<point x="187" y="541"/>
			<point x="187" y="548"/>
			<point x="189" y="554" type="curve" smooth="yes"/>
			<point x="200" y="616"/>
			<point x="319" y="706"/>
			<point x="504" y="706" type="curve" smooth="yes"/>
			<point x="511" y="706"/>
			<point x="517" y="706"/>
			<point x="524" y="706" type="curve" smooth="yes"/>
			<point x="676" y="701"/>
			<point x="742" y="621"/>
			<point x="742" y="492" type="curve" smooth="yes"/>
			<point x="742" y="462"/>
			<point x="739" y="430"/>
			<point x="732" y="396" type="curve" smooth="yes"/>
			<point x="680" y="127"/>
			<point x="485" y="0"/>
			<point x="316" y="0" type="curve" smooth="yes"/>
			<point x="312" y="0"/>
			<point x="309" y="0"/>
			<point x="305" y="0" type="curve" smooth="yes"/>
			<point x="160" y="5"/>
			<point x="67" y="72"/>
			<point x="67" y="216" type="curve" smooth="yes"/>
			<point x="67" y="240"/>
			<point x="70" y="268"/>
			<point x="76" y="297" type="curve" smooth="yes"/>
			<point x="118" y="514"/>
			<point x="300" y="623"/>
			<point x="372" y="623" type="curve" smooth="yes"/>
			<point x="372" y="623"/>
			<point x="373" y="623"/>
			<point x="374" y="623" type="curve" smooth="yes"/>
			<point x="413" y="621"/>
			<point x="430" y="608"/>
			<point x="430" y="575" type="curve" smooth="yes"/>
			<point x="430" y="567"/>
			<point x="429" y="557"/>
			<point x="427" y="546" type="curve" smooth="yes"/>
			<point x="423" y="525"/>
			<point x="408" y="498"/>
		</contour>
	</outline>
</glyph>
<glyph name="zero" format="2">
	<unicode hex="0030"/>
	<advance width="700"/>
	<outline>
		<contour>
			<point x="386" y="483" type="curve" smooth="yes"/>
			<point x="304" y="436"/>
			<point x="270" y="380"/>
			<point x="254" y="299" type="curve" smooth="yes"/>
			<point x="252" y="287"/>
			<point x="251" y="276"/>
			<point x="251" y="265" type="curve" smooth="yes"/>
			<point x="251" y="214"/>
			<point x="278" y="178"/>
			<point x="337" y="176" type="curve" smooth="yes"/>
			<point x="338" y="176"/>
			<point x="340" y="176"/>
			<point x="341" y="176" type="curve" smooth="yes"/>
			<point x="424" y="176"/>
			<point x="527" y="253"/>
			<point x="554" y="397" type="curve" smooth="yes"/>
			<point x="558" y="415"/>
			<point x="560" y="433"/>
			<point x="560" y="448" type="curve" smooth="yes"/>
			<point x="560" y="496"/>
			<point x="541" y="530"/>
			<point x="490" y="532" type="curve" smooth="yes"/>
			<point x="487" y="532"/>
			<point x="484" y="532"/>
			<point x="481" y="532" type="curve" smooth="yes"/>
			<point x="407" y="532"/>
			<point x="368" y="503"/>
			<point x="326" y="474" type="curve" smooth="yes"/>
			<point x="305" y="459"/>
			<point x="283" y="447"/>
			<point x="264" y="447" type="curve" smooth="yes"/>
			<point x="264" y="447"/>
			<point x="263" y="447"/>
			<point x="263" y="447" type="curve" smooth="yes"/>
			<point x="206" y="449"/>
			<point x="186" y="494"/>
			<point x="186" y="532" type="curve" smooth="yes"/>
			<point x="186" y="539"/>
			<point x="187" y="546"/>
			<point x="188" y="552" type="curve" smooth="yes"/>
			<point x="200" y="614"/>
			<point x="318" y="704"/>
			<point x="504" y="704" type="curve" smooth="yes"/>
			<point x="510" y="704"/>
			<point x="517" y="704"/>
			<point x="524" y="704" type="curve" smooth="yes"/>
			<point x="672" y="699"/>
			<point x="737" y="620"/>
			<point x="737" y="490" type="curve" smooth="yes"/>
			<point x="737" y="460"/>
			<point x="733" y="427"/>
			<point x="726" y="391" type="curve" smooth="yes"/>
			<point x="676" y="129"/>
			<point x="483" y="5"/>
			<point x="317" y="5" type="curve" smooth="yes"/>
			<point x="313" y="5"/>
			<point x="309" y="5"/>
			<point x="306" y="5" type="curve" smooth="yes"/>
			<point x="164" y="10"/>
			<point x="74" y="77"/>
			<point x="74" y="221" type="curve" smooth="yes"/>
			<point x="74" y="246"/>
			<point x="76" y="274"/>
			<point x="82" y="305" type="curve" smooth="yes"/>
			<point x="123" y="516"/>
			<point x="301" y="621"/>
			<point x="371" y="621" type="curve" smooth="yes"/>
			<point x="372" y="621"/>
			<point x="373" y="621"/>
			<point x="374" y="621" type="curve" smooth="yes"/>
			<point x="413" y="619"/>
			<point x="430" y="606"/>
			<point x="430" y="573" type="curve" smooth="yes"/>
			<point x="430" y="565"/>
			<point x="429" y="555"/>
			<point x="427" y="544" type="curve" smooth="yes"/>
			<point x="423" y="523"/>
			<point x="407" y="496"/>
		</contour>
	</outline>
</glyph>
<glyph name="one.alt1" format="2">
	<unicode hex="0031"/>
	<advance width="700"/>
	<outline>
		<contour>
			<point x="181" y="166" type="curve" smooth="yes"/>
			<point x="252" y="163"/>
			<point x="438" y="164"/>
			<point x="547" y="160" type="curve" smooth="yes"/>
			<point x="630" y="157"/>
			<point x="661" y="124"/>
			<point x="661" y="78" type="curve" smooth="yes"/>
			<point x="661" y="73"/>
			<point x="661" y="67"/>
			<point x="660" y="60" type="curve" smooth="yes"/>
			<point x="653" y="17"/>
			<point x="620" y="-15"/>
			<point x="538" y="-15" type="curve" smooth="yes"/>
			<point x="534" y="-15"/>
			<point x="530" y="-15"/>
			<point x="526" y="-14" type="curve" smooth="yes"/>
			<point x="437" y="-11"/>
			<point x="369" y="-10"/>
			<point x="317" y="-10" type="curve" smooth="yes"/>
			<point x="261" y="-10"/>
			<point x="223" y="-11"/>
			<point x="196" y="-11" type="curve" smooth="yes"/>
			<point x="187" y="-11"/>
			<point x="180" y="-11"/>
			<point x="173" y="-11" type="curve" smooth="yes"/>
			<point x="74" y="-8"/>
			<point x="49" y="30"/>
			<point x="49" y="72" type="curve" smooth="yes"/>
			<point x="49" y="81"/>
			<point x="50" y="89"/>
			<point x="51" y="98" type="curve" smooth="yes"/>
			<point x="59" y="138"/>
			<point x="96" y="166"/>
			<point x="170" y="166" type="curve" smooth="yes"/>
			<point x="173" y="166"/>
			<point x="177" y="166"/>
		</contour>
		<contour>
			<point x="230" y="627" type="curve" smooth="yes"/>
			<point x="307" y="632"/>
			<point x="375" y="659"/>
			<point x="424" y="696" type="curve" smooth="yes"/>
			<point x="445" y="711"/>
			<point x="469" y="723"/>
			<point x="498" y="723" type="curve" smooth="yes"/>
			<point x="500" y="723"/>
			<point x="501" y="723"/>
			<point x="502" y="723" type="curve" smooth="yes"/>
			<point x="556" y="721"/>
			<point x="591" y="683"/>
			<point x="591" y="635" type="curve" smooth="yes"/>
			<point x="591" y="618"/>
			<point x="586" y="601"/>
			<point x="577" y="583" type="curve" smooth="yes"/>
			<point x="493" y="401"/>
			<point x="459" y="197"/>
			<point x="452" y="160" type="curve" smooth="yes"/>
			<point x="445" y="123"/>
			<point x="417" y="96"/>
			<point x="376" y="96" type="curve" smooth="yes"/>
			<point x="375" y="96"/>
			<point x="374" y="96"/>
			<point x="373" y="96" type="curve" smooth="yes"/>
			<point x="317" y="98"/>
			<point x="287" y="137"/>
			<point x="287" y="189" type="curve" smooth="yes"/>
			<point x="287" y="198"/>
			<point x="288" y="208"/>
			<point x="290" y="218" type="curve" smooth="yes"/>
			<point x="311" y="330"/>
			<point x="348" y="445"/>
			<point x="389" y="547" type="curve"/>
			<point x="416" y="518" type="line"/>
			<point x="372" y="487"/>
			<point x="299" y="466"/>
			<point x="238" y="466" type="curve" smooth="yes"/>
			<point x="235" y="466"/>
			<point x="232" y="466"/>
			<point x="229" y="466" type="curve" smooth="yes"/>
			<point x="169" y="468"/>
			<point x="143" y="504"/>
			<point x="143" y="544" type="curve" smooth="yes"/>
			<point x="143" y="550"/>
			<point x="144" y="556"/>
			<point x="145" y="562" type="curve" smooth="yes"/>
			<point x="152" y="595"/>
			<point x="178" y="623"/>
		</contour>
	</outline>
</glyph>
<glyph name="one.alt2" format="2">
	<unicode hex="0031"/>
	<advance width="700"/>
	<outline>
		<contour>
			<point x="179" y="158" type="curve" smooth="yes"/>
			<point x="251" y="155"/>
			<point x="437" y="156"/>
			<point x="545" y="152" type="curve" smooth="yes"/>
			<point x="628" y="149"/>
			<point x="659" y="116"/>
			<point x="659" y="71" type="curve" smooth="yes"/>
			<point x="659" y="65"/>
			<point x="659" y="59"/>
			<point x="658" y="52" type="curve" smooth="yes"/>
			<point x="651" y="9"/>
			<point x="618" y="-23"/>
			<point x="537" y="-23" type="curve" smooth="yes"/>
			<point x="533" y="-23"/>
			<point x="529" y="-22"/>
			<point x="524" y="-22" type="curve" smooth="yes"/>
			<point x="435" y="-19"/>
			<point x="367" y="-18"/>
			<point x="315" y="-18" type="curve" smooth="yes"/>
			<point x="259" y="-18"/>
			<point x="221" y="-19"/>
			<point x="194" y="-19" type="curve" smooth="yes"/>
			<point x="186" y="-19"/>
			<point x="178" y="-19"/>
			<point x="172" y="-19" type="curve" smooth="yes"/>
			<point x="73" y="-16"/>
			<point x="47" y="22"/>
			<point x="47" y="64" type="curve" smooth="yes"/>
			<point x="47" y="73"/>
			<point x="48" y="81"/>
			<point x="50" y="90" type="curve" smooth="yes"/>
			<point x="58" y="130"/>
			<point x="94" y="158"/>
			<point x="168" y="158" type="curve" smooth="yes"/>
			<point x="172" y="158"/>
			<point x="175" y="158"/>
		</contour>
		<contour>
			<point x="231" y="636" type="curve" smooth="yes"/>
			<point x="309" y="641"/>
			<point x="377" y="668"/>
			<point x="426" y="705" type="curve" smooth="yes"/>
			<point x="447" y="720"/>
			<point x="470" y="732"/>
			<point x="500" y="732" type="curve" smooth="yes"/>
			<point x="501" y="732"/>
			<point x="503" y="732"/>
			<point x="504" y="732" type="curve" smooth="yes"/>
			<point x="557" y="730"/>
			<point x="592" y="692"/>
			<point x="592" y="644" type="curve" smooth="yes"/>
			<point x="592" y="627"/>
			<point x="588" y="609"/>
			<point x="579" y="592" type="curve" smooth="yes"/>
			<point x="493" y="406"/>
			<point x="459" y="197"/>
			<point x="452" y="160" type="curve" smooth="yes"/>
			<point x="445" y="123"/>
			<point x="417" y="96"/>
			<point x="376" y="96" type="curve" smooth="yes"/>
			<point x="375" y="96"/>
			<point x="374" y="96"/>
			<point x="373" y="96" type="curve" smooth="yes"/>
			<point x="317" y="98"/>
			<point x="287" y="137"/>
			<point x="287" y="189" type="curve" smooth="yes"/>
			<point x="287" y="198"/>
			<point x="288" y="208"/>
			<point x="290" y="218" type="curve" smooth="yes"/>
			<point x="312" y="333"/>
			<point x="349" y="451"/>
			<point x="391" y="556" type="curve"/>
			<point x="417" y="527" type="line"/>
			<point x="373" y="496"/>
			<point x="300" y="475"/>
			<point x="239" y="475" type="curve" smooth="yes"/>
			<point x="236" y="475"/>
			<point x="233" y="475"/>
			<point x="230" y="475" type="curve" smooth="yes"/>
			<point x="170" y="477"/>
			<point x="145" y="512"/>
			<point x="145" y="552" type="curve" smooth="yes"/>
			<point x="145" y="559"/>
			<point x="146" y="565"/>
			<point x="147" y="571" type="curve" smooth="yes"/>
			<point x="153" y="603"/>
			<point x="180" y="632"/>
		</contour>
	</outline>
</glyph>
<glyph name="one" format="2">
	<unicode hex="0031"/>
	<advance width="700"/>
	<outline>
		<contour>
			<point x="177" y="149" type="curve" smooth="yes"/>
			<point x="249" y="146"/>
			<point x="435" y="147"/>
			<point x="543" y="143" type="curve" smooth="yes"/>
			<point x="626" y="140"/>
			<point x="658" y="107"/>
			<point x="658" y="62" type="curve" smooth="yes"/>
			<point x="658" y="56"/>
			<point x="657" y="50"/>
			<point x="656" y="43" type="curve" smooth="yes"/>
			<point x="650" y="0"/>
			<point x="616" y="-32"/>
			<point x="535" y="-32" type="curve" smooth="yes"/>
			<point x="531" y="-32"/>
			<point x="527" y="-31"/>
			<point x="523" y="-31" type="curve" smooth="yes"/>
			<point x="433" y="-28"/>
			<point x="366" y="-27"/>
			<point x="314" y="-27" type="curve" smooth="yes"/>
			<point x="257" y="-27"/>
			<point x="220" y="-28"/>
			<point x="192" y="-28" type="curve" smooth="yes"/>
			<point x="184" y="-28"/>
			<point x="177" y="-28"/>
			<point x="170" y="-28" type="curve" smooth="yes"/>
			<point x="71" y="-25"/>
			<point x="45" y="13"/>
			<point x="45" y="55" type="curve" smooth="yes"/>
			<point x="45" y="64"/>
			<point x="46" y="72"/>
			<point x="48" y="81" type="curve" smooth="yes"/>
			<point x="56" y="121"/>
			<point x="92" y="149"/>
			<point x="166" y="149" type="curve" smooth="yes"/>
			<point x="170" y="149"/>
			<point x="174" y="149"/>
		</contour>
		<contour>
			<point x="233" y="644" type="curve" smooth="yes"/>
			<point x="310" y="649"/>
			<point x="378" y="676"/>
			<point x="427" y="713" type="curve" smooth="yes"/>
			<point x="449" y="728"/>
			<point x="472" y="740"/>
			<point x="502" y="740" type="curve" smooth="yes"/>
			<point x="503" y="740"/>
			<point x="504" y="740"/>
			<point x="506" y="740" type="curve" smooth="yes"/>
			<point x="559" y="738"/>
			<point x="594" y="700"/>
			<point x="594" y="652" type="curve" smooth="yes"/>
			<point x="594" y="635"/>
			<point x="590" y="618"/>
			<point x="581" y="600" type="curve" smooth="yes"/>
			<point x="494" y="411"/>
			<point x="459" y="198"/>
			<point x="452" y="160" type="curve" smooth="yes"/>
			<point x="445" y="123"/>
			<point x="417" y="96"/>
			<point x="376" y="96" type="curve" smooth="yes"/>
			<point x="375" y="96"/>
			<point x="374" y="96"/>
			<point x="373" y="96" type="curve" smooth="yes"/>
			<point x="317" y="98"/>
			<point x="287" y="137"/>
			<point x="287" y="189" type="curve" smooth="yes"/>
			<point x="287" y="198"/>
			<point x="288" y="208"/>
			<point x="290" y="218" type="curve" smooth="yes"/>
			<point x="312" y="336"/>
			<point x="349" y="456"/>
			<point x="393" y="564" type="curve"/>
			<point x="419" y="535" type="line"/>
			<point x="375" y="504"/>
			<point x="302" y="483"/>
			<point x="241" y="483" type="curve" smooth="yes"/>
			<point x="238" y="483"/>
			<point x="235" y="483"/>
			<point x="232" y="483" type="curve" smooth="yes"/>
			<point x="172" y="485"/>
			<point x="147" y="521"/>
			<point x="147" y="561" type="curve" smooth="yes"/>
			<point x="147" y="567"/>
			<point x="147" y="573"/>
			<point x="148" y="579" type="curve" smooth="yes"/>
			<point x="155" y="612"/>
			<point x="181" y="640"/>
		</contour>
	</outline>
</glyph>
<glyph name="two.alt1" format="2">
	<unicode hex="0032"/>
	<advance width="700"/>
	<outline>
		<contour>
			<point x="211" y="632" type="curve" smooth="yes"/>
			<point x="313" y="695"/>
			<point x="403" y="728"/>
			<point x="486" y="728" type="curve" smooth="yes"/>
			<point x="489" y="728"/>
			<point x="493" y="728"/>
			<point x="496" y="728" type="curve" smooth="yes"/>
			<point x="634" y="723"/>
			<point x="690" y="656"/>
			<point x="690" y="556" type="curve" smooth="yes"/>
			<point x="690" y="536"/>
			<point x="687" y="514"/>
			<point x="683" y="491" type="curve" smooth="yes"/>
			<point x="664" y="393"/>
			<point x="601" y="294"/>
			<point x="292" y="120" type="curve"/>
			<point x="266" y="168" type="line"/>
			<point x="291" y="160"/>
			<point x="316" y="158"/>
			<point x="341" y="157" type="curve" smooth="yes"/>
			<point x="346" y="157"/>
			<point x="351" y="156"/>
			<point x="356" y="156" type="curve" smooth="yes"/>
			<point x="400" y="156"/>
			<point x="458" y="162"/>
			<point x="525" y="162" type="curve" smooth="yes"/>
			<point x="538" y="162"/>
			<point x="552" y="161"/>
			<point x="566" y="161" type="curve" smooth="yes"/>
			<point x="653" y="158"/>
			<point x="685" y="125"/>
			<point x="685" y="79" type="curve" smooth="yes"/>
			<point x="685" y="72"/>
			<point x="684" y="64"/>
			<point x="683" y="56" type="curve" smooth="yes"/>
			<point x="675" y="18"/>
			<point x="640" y="-15"/>
			<point x="588" y="-15" type="curve" smooth="yes"/>
			<point x="587" y="-15"/>
			<point x="585" y="-15"/>
			<point x="584" y="-15" type="curve" smooth="yes"/>
			<point x="534" y="-13"/>
			<point x="488" y="-12"/>
			<point x="447" y="-12" type="curve" smooth="yes"/>
			<point x="310" y="-12"/>
			<point x="215" y="-20"/>
			<point x="157" y="-20" type="curve" smooth="yes"/>
			<point x="151" y="-20"/>
			<point x="144" y="-20"/>
			<point x="139" y="-19" type="curve" smooth="yes"/>
			<point x="81" y="-17"/>
			<point x="56" y="17"/>
			<point x="56" y="67" type="curve" smooth="yes"/>
			<point x="56" y="77"/>
			<point x="57" y="89"/>
			<point x="59" y="101" type="curve" smooth="yes"/>
			<point x="68" y="147"/>
			<point x="86" y="168"/>
			<point x="107" y="179" type="curve" smooth="yes"/>
			<point x="380" y="327"/>
			<point x="494" y="409"/>
			<point x="511" y="497" type="curve" smooth="yes"/>
			<point x="512" y="502"/>
			<point x="512" y="507"/>
			<point x="512" y="511" type="curve" smooth="yes"/>
			<point x="512" y="536"/>
			<point x="497" y="552"/>
			<point x="463" y="553" type="curve" smooth="yes"/>
			<point x="460" y="553"/>
			<point x="458" y="553"/>
			<point x="456" y="553" type="curve" smooth="yes"/>
			<point x="352" y="553"/>
			<point x="271" y="469"/>
			<point x="224" y="469" type="curve" smooth="yes"/>
			<point x="223" y="469"/>
			<point x="223" y="469"/>
			<point x="222" y="469" type="curve" smooth="yes"/>
			<point x="182" y="470"/>
			<point x="155" y="503"/>
			<point x="155" y="544" type="curve" smooth="yes"/>
			<point x="155" y="550"/>
			<point x="156" y="556"/>
			<point x="157" y="562" type="curve" smooth="yes"/>
			<point x="163" y="594"/>
			<point x="177" y="611"/>
		</contour>
	</outline>
</glyph>
<glyph name="two.alt2" format="2">
	<unicode hex="0032"/>
	<advance width="700"/>
	<outline>
		<contour>
			<point x="214" y="647" type="curve" smooth="yes"/>
			<point x="310" y="710"/>
			<point x="400" y="743"/>
			<point x="479" y="743" type="curve" smooth="yes"/>
			<point x="483" y="743"/>
			<point x="486" y="743"/>
			<point x="489" y="743" type="curve" smooth="yes"/>
			<point x="632" y="738"/>
			<point x="690" y="667"/>
			<point x="690" y="561" type="curve" smooth="yes"/>
			<point x="690" y="539"/>
			<point x="687" y="516"/>
			<point x="683" y="491" type="curve" smooth="yes"/>
			<point x="664" y="393"/>
			<point x="604" y="291"/>
			<point x="282" y="111" type="curve"/>
			<point x="265" y="162" type="line"/>
			<point x="289" y="154"/>
			<point x="315" y="152"/>
			<point x="340" y="151" type="curve" smooth="yes"/>
			<point x="345" y="151"/>
			<point x="350" y="150"/>
			<point x="355" y="150" type="curve" smooth="yes"/>
			<point x="399" y="150"/>
			<point x="457" y="156"/>
			<point x="524" y="156" type="curve" smooth="yes"/>
			<point x="537" y="156"/>
			<point x="551" y="155"/>
			<point x="565" y="155" type="curve" smooth="yes"/>
			<point x="652" y="152"/>
			<point x="684" y="119"/>
			<point x="684" y="73" type="curve" smooth="yes"/>
			<point x="684" y="66"/>
			<point x="683" y="58"/>
			<point x="681" y="50" type="curve" smooth="yes"/>
			<point x="674" y="12"/>
			<point x="638" y="-21"/>
			<point x="587" y="-21" type="curve" smooth="yes"/>
			<point x="586" y="-21"/>
			<point x="584" y="-21"/>
			<point x="583" y="-21" type="curve" smooth="yes"/>
			<point x="533" y="-19"/>
			<point x="487" y="-18"/>
			<point x="445" y="-18" type="curve" smooth="yes"/>
			<point x="308" y="-18"/>
			<point x="214" y="-26"/>
			<point x="156" y="-26" type="curve" smooth="yes"/>
			<point x="149" y="-26"/>
			<point x="143" y="-26"/>
			<point x="138" y="-25" type="curve" smooth="yes"/>
			<point x="80" y="-23"/>
			<point x="54" y="11"/>
			<point x="54" y="61" type="curve" smooth="yes"/>
			<point x="54" y="71"/>
			<point x="55" y="83"/>
			<point x="58" y="95" type="curve" smooth="yes"/>
			<point x="67" y="145"/>
			<point x="86" y="167"/>
			<point x="107" y="179" type="curve" smooth="yes"/>
			<point x="380" y="327"/>
			<point x="494" y="409"/>
			<point x="511" y="497" type="curve" smooth="yes"/>
			<point x="512" y="504"/>
			<point x="513" y="511"/>
			<point x="513" y="517" type="curve" smooth="yes"/>
			<point x="513" y="548"/>
			<point x="495" y="567"/>
			<point x="455" y="568" type="curve" smooth="yes"/>
			<point x="453" y="568"/>
			<point x="451" y="568"/>
			<point x="449" y="568" type="curve" smooth="yes"/>
			<point x="350" y="568"/>
			<point x="271" y="484"/>
			<point x="226" y="484" type="curve" smooth="yes"/>
			<point x="226" y="484"/>
			<point x="225" y="484"/>
			<point x="225" y="484" type="curve" smooth="yes"/>
			<point x="185" y="485"/>
			<point x="158" y="518"/>
			<point x="158" y="559" type="curve" smooth="yes"/>
			<point x="158" y="565"/>
			<point x="159" y="571"/>
			<point x="160" y="577" type="curve" smooth="yes"/>
			<point x="166" y="609"/>
			<point x="179" y="626"/>
		</contour>
	</outline>
</glyph>
<glyph name="two" format="2">
	<unicode hex="0032"/>
	<advance width="700"/>
	<outline>
		<contour>
			<point x="215" y="663" type="curve" smooth="yes"/>
			<point x="308" y="727"/>
			<point x="396" y="759"/>
			<point x="473" y="759" type="curve" smooth="yes"/>
			<point x="476" y="759"/>
			<point x="479" y="759"/>
			<point x="482" y="758" type="curve" smooth="yes"/>
			<point x="631" y="753"/>
			<point x="690" y="678"/>
			<point x="690" y="567" type="curve" smooth="yes"/>
			<point x="690" y="543"/>
			<point x="688" y="518"/>
			<point x="682" y="491" type="curve" smooth="yes"/>
			<point x="663" y="392"/>
			<point x="606" y="289"/>
			<point x="271" y="102" type="curve"/>
			<point x="263" y="155" type="line"/>
			<point x="288" y="147"/>
			<point x="313" y="145"/>
			<point x="338" y="144" type="curve" smooth="yes"/>
			<point x="343" y="144"/>
			<point x="348" y="143"/>
			<point x="353" y="143" type="curve" smooth="yes"/>
			<point x="397" y="143"/>
			<point x="455" y="149"/>
			<point x="522" y="149" type="curve" smooth="yes"/>
			<point x="535" y="149"/>
			<point x="549" y="148"/>
			<point x="563" y="148" type="curve" smooth="yes"/>
			<point x="650" y="145"/>
			<point x="682" y="112"/>
			<point x="682" y="66" type="curve" smooth="yes"/>
			<point x="682" y="59"/>
			<point x="682" y="51"/>
			<point x="680" y="43" type="curve" smooth="yes"/>
			<point x="673" y="5"/>
			<point x="637" y="-28"/>
			<point x="585" y="-28" type="curve" smooth="yes"/>
			<point x="584" y="-28"/>
			<point x="583" y="-28"/>
			<point x="581" y="-28" type="curve" smooth="yes"/>
			<point x="531" y="-26"/>
			<point x="486" y="-25"/>
			<point x="444" y="-25" type="curve" smooth="yes"/>
			<point x="307" y="-25"/>
			<point x="213" y="-33"/>
			<point x="154" y="-33" type="curve" smooth="yes"/>
			<point x="148" y="-33"/>
			<point x="142" y="-33"/>
			<point x="136" y="-32" type="curve" smooth="yes"/>
			<point x="78" y="-30"/>
			<point x="53" y="4"/>
			<point x="53" y="54" type="curve" smooth="yes"/>
			<point x="53" y="64"/>
			<point x="54" y="76"/>
			<point x="56" y="88" type="curve" smooth="yes"/>
			<point x="67" y="142"/>
			<point x="85" y="167"/>
			<point x="107" y="179" type="curve" smooth="yes"/>
			<point x="380" y="327"/>
			<point x="493" y="409"/>
			<point x="511" y="497" type="curve" smooth="yes"/>
			<point x="512" y="506"/>
			<point x="513" y="515"/>
			<point x="513" y="522" type="curve" smooth="yes"/>
			<point x="513" y="559"/>
			<point x="493" y="582"/>
			<point x="448" y="584" type="curve" smooth="yes"/>
			<point x="446" y="584"/>
			<point x="445" y="584"/>
			<point x="443" y="584" type="curve" smooth="yes"/>
			<point x="347" y="584"/>
			<point x="272" y="499"/>
			<point x="229" y="499" type="curve" smooth="yes"/>
			<point x="228" y="499"/>
			<point x="228" y="499"/>
			<point x="228" y="499" type="curve" smooth="yes"/>
			<point x="188" y="500"/>
			<point x="161" y="533"/>
			<point x="161" y="574" type="curve" smooth="yes"/>
			<point x="161" y="580"/>
			<point x="161" y="586"/>
			<point x="163" y="592" type="curve" smooth="yes"/>
			<point x="169" y="624"/>
			<point x="182" y="641"/>
		</contour>
	</outline>
</glyph>
<glyph name="three.alt2" format="2">
	<unicode hex="0033"/>
	<advance width="700"/>
	<outline>
		<contour>
			<point x="501" y="771" type="curve" smooth="yes"/>
			<point x="660" y="765"/>
			<point x="734" y="700"/>
			<point x="734" y="601" type="curve" smooth="yes"/>
			<point x="734" y="586"/>
			<point x="732" y="571"/>
			<point x="729" y="555" type="curve" smooth="yes"/>
			<point x="713" y="471"/>
			<point x="648" y="384"/>
			<point x="481" y="363" type="curve"/>
			<point x="482" y="402" type="line"/>
			<point x="661" y="394"/>
			<point x="713" y="334"/>
			<point x="713" y="252" type="curve" smooth="yes"/>
			<point x="713" y="237"/>
			<point x="711" y="221"/>
			<point x="708" y="204" type="curve" smooth="yes"/>
			<point x="674" y="26"/>
			<point x="492" y="-49"/>
			<point x="271" y="-49" type="curve" smooth="yes"/>
			<point x="259" y="-49"/>
			<point x="247" y="-49"/>
			<point x="235" y="-48" type="curve"/>
			<point x="95" y="-43"/>
			<point x="53" y="-2"/>
			<point x="53" y="59" type="curve" smooth="yes"/>
			<point x="53" y="69"/>
			<point x="54" y="80"/>
			<point x="56" y="92" type="curve" smooth="yes"/>
			<point x="64" y="135"/>
			<point x="87" y="170"/>
			<point x="129" y="170" type="curve" smooth="yes"/>
			<point x="130" y="170"/>
			<point x="131" y="170"/>
			<point x="132" y="170" type="curve" smooth="yes"/>
			<point x="173" y="168"/>
			<point x="168" y="128"/>
			<point x="242" y="126" type="curve" smooth="yes"/>
			<point x="256" y="125"/>
			<point x="269" y="125"/>
			<point x="282" y="125" type="curve" smooth="yes"/>
			<point x="426" y="125"/>
			<point x="525" y="154"/>
			<point x="537" y="214" type="curve" smooth="yes"/>
			<point x="538" y="218"/>
			<point x="538" y="223"/>
			<point x="538" y="227" type="curve" smooth="yes"/>
			<point x="538" y="265"/>
			<point x="494" y="279"/>
			<point x="333" y="285" type="curve" smooth="yes"/>
			<point x="290" y="286"/>
			<point x="270" y="319"/>
			<point x="270" y="358" type="curve" smooth="yes"/>
			<point x="270" y="366"/>
			<point x="271" y="374"/>
			<point x="272" y="382" type="curve" smooth="yes"/>
			<point x="277" y="408"/>
			<point x="293" y="426"/>
			<point x="324" y="431" type="curve" smooth="yes"/>
			<point x="463" y="454"/>
			<point x="537" y="497"/>
			<point x="547" y="552" type="curve" smooth="yes"/>
			<point x="548" y="557"/>
			<point x="549" y="563"/>
			<point x="549" y="567" type="curve" smooth="yes"/>
			<point x="549" y="593"/>
			<point x="531" y="604"/>
			<point x="480" y="605" type="curve" smooth="yes"/>
			<point x="475" y="606"/>
			<point x="469" y="606"/>
			<point x="464" y="606" type="curve" smooth="yes"/>
			<point x="325" y="606"/>
			<point x="284" y="543"/>
			<point x="220" y="543" type="curve" smooth="yes"/>
			<point x="219" y="543"/>
			<point x="217" y="543"/>
			<point x="216" y="543" type="curve" smooth="yes"/>
			<point x="184" y="544"/>
			<point x="150" y="574"/>
			<point x="150" y="617" type="curve" smooth="yes"/>
			<point x="150" y="622"/>
			<point x="151" y="627"/>
			<point x="152" y="633" type="curve" smooth="yes"/>
			<point x="164" y="699"/>
			<point x="306" y="771"/>
			<point x="479" y="771" type="curve" smooth="yes"/>
			<point x="487" y="771"/>
			<point x="494" y="771"/>
		</contour>
	</outline>
</glyph>
<glyph name="three" format="2">
	<unicode hex="0033"/>
	<advance width="700"/>
	<outline>
		<contour>
			<point x="503" y="802" type="curve" smooth="yes"/>
			<point x="669" y="796"/>
			<point x="747" y="727"/>
			<point x="747" y="621" type="curve" smooth="yes"/>
			<point x="747" y="605"/>
			<point x="745" y="589"/>
			<point x="742" y="572" type="curve" smooth="yes"/>
			<point x="724" y="481"/>
			<point x="656" y="385"/>
			<point x="480" y="363" type="curve"/>
			<point x="482" y="402" type="line"/>
			<point x="665" y="394"/>
			<point x="719" y="331"/>
			<point x="719" y="247" type="curve" smooth="yes"/>
			<point x="719" y="231"/>
			<point x="717" y="214"/>
			<point x="713" y="197" type="curve" smooth="yes"/>
			<point x="677" y="10"/>
			<point x="491" y="-69"/>
			<point x="266" y="-69" type="curve" smooth="yes"/>
			<point x="255" y="-69"/>
			<point x="243" y="-68"/>
			<point x="231" y="-68" type="curve"/>
			<point x="91" y="-63"/>
			<point x="49" y="-22"/>
			<point x="49" y="39" type="curve" smooth="yes"/>
			<point x="49" y="49"/>
			<point x="50" y="61"/>
			<point x="52" y="72" type="curve" smooth="yes"/>
			<point x="60" y="115"/>
			<point x="83" y="150"/>
			<point x="125" y="150" type="curve" smooth="yes"/>
			<point x="126" y="150"/>
			<point x="127" y="150"/>
			<point x="128" y="150" type="curve" smooth="yes"/>
			<point x="169" y="149"/>
			<point x="164" y="108"/>
			<point x="238" y="106" type="curve" smooth="yes"/>
			<point x="251" y="105"/>
			<point x="264" y="105"/>
			<point x="277" y="105" type="curve" smooth="yes"/>
			<point x="426" y="105"/>
			<point x="529" y="137"/>
			<point x="542" y="204" type="curve" smooth="yes"/>
			<point x="543" y="210"/>
			<point x="543" y="215"/>
			<point x="543" y="220" type="curve" smooth="yes"/>
			<point x="543" y="263"/>
			<point x="497" y="279"/>
			<point x="333" y="285" type="curve" smooth="yes"/>
			<point x="289" y="286"/>
			<point x="270" y="319"/>
			<point x="270" y="358" type="curve" smooth="yes"/>
			<point x="270" y="366"/>
			<point x="270" y="374"/>
			<point x="272" y="382" type="curve" smooth="yes"/>
			<point x="277" y="408"/>
			<point x="293" y="426"/>
			<point x="323" y="431" type="curve" smooth="yes"/>
			<point x="470" y="455"/>
			<point x="548" y="506"/>
			<point x="560" y="568" type="curve" smooth="yes"/>
			<point x="562" y="576"/>
			<point x="562" y="583"/>
			<point x="562" y="589" type="curve" smooth="yes"/>
			<point x="562" y="621"/>
			<point x="541" y="635"/>
			<point x="482" y="637" type="curve" smooth="yes"/>
			<point x="477" y="637"/>
			<point x="471" y="637"/>
			<point x="466" y="637" type="curve" smooth="yes"/>
			<point x="331" y="637"/>
			<point x="295" y="574"/>
			<point x="228" y="574" type="curve" smooth="yes"/>
			<point x="227" y="574"/>
			<point x="225" y="574"/>
			<point x="224" y="574" type="curve" smooth="yes"/>
			<point x="188" y="575"/>
			<point x="156" y="605"/>
			<point x="156" y="649" type="curve" smooth="yes"/>
			<point x="156" y="654"/>
			<point x="157" y="661"/>
			<point x="158" y="667" type="curve" smooth="yes"/>
			<point x="171" y="736"/>
			<point x="307" y="802"/>
			<point x="479" y="802" type="curve" smooth="yes"/>
			<point x="487" y="802"/>
			<point x="495" y="802"/>
		</contour>
	</outline>
</glyph>
<glyph name="four.alt1" format="2">
	<unicode hex="0034"/>
	<advance width="700"/>
	<outline>
		<contour>
			<point x="340" y="133" type="curve" smooth="yes"/>
			<point x="376" y="317"/>
			<point x="453" y="485"/>
			<point x="475" y="599" type="curve" smooth="yes"/>
			<point x="476" y="605"/>
			<point x="477" y="610"/>
			<point x="477" y="615" type="curve" smooth="yes"/>
			<point x="477" y="625"/>
			<point x="475" y="635"/>
			<point x="471" y="651" type="curve"/>
			<point x="513" y="592" type="line"/>
			<point x="389" y="527"/>
			<point x="278" y="416"/>
			<point x="188" y="276" type="curve"/>
			<point x="149" y="348" type="line"/>
			<point x="179" y="334"/>
			<point x="186" y="331"/>
			<point x="211" y="330" type="curve" smooth="yes"/>
			<point x="220" y="329"/>
			<point x="230" y="329"/>
			<point x="239" y="329" type="curve" smooth="yes"/>
			<point x="365" y="329"/>
			<point x="482" y="358"/>
			<point x="645" y="358" type="curve" smooth="yes"/>
			<point x="660" y="358"/>
			<point x="676" y="358"/>
			<point x="693" y="357" type="curve" smooth="yes"/>
			<point x="735" y="356"/>
			<point x="762" y="316"/>
			<point x="762" y="269" type="curve" smooth="yes"/>
			<point x="762" y="262"/>
			<point x="762" y="254"/>
			<point x="760" y="246" type="curve" smooth="yes"/>
			<point x="753" y="209"/>
			<point x="731" y="181"/>
			<point x="688" y="181" type="curve" smooth="yes"/>
			<point x="687" y="181"/>
			<point x="686" y="181"/>
			<point x="685" y="181" type="curve" smooth="yes"/>
			<point x="662" y="182"/>
			<point x="641" y="182"/>
			<point x="620" y="182" type="curve" smooth="yes"/>
			<point x="437" y="182"/>
			<point x="310" y="155"/>
			<point x="159" y="155" type="curve" smooth="yes"/>
			<point x="145" y="155"/>
			<point x="131" y="156"/>
			<point x="116" y="156" type="curve" smooth="yes"/>
			<point x="53" y="158"/>
			<point x="19" y="205"/>
			<point x="19" y="249" type="curve" smooth="yes"/>
			<point x="19" y="255"/>
			<point x="19" y="260"/>
			<point x="20" y="265" type="curve" smooth="yes"/>
			<point x="30" y="314"/>
			<point x="48" y="369"/>
			<point x="114" y="448" type="curve" smooth="yes"/>
			<point x="276" y="645"/>
			<point x="463" y="754"/>
			<point x="545" y="754" type="curve" smooth="yes"/>
			<point x="546" y="754"/>
			<point x="547" y="754"/>
			<point x="548" y="754" type="curve" smooth="yes"/>
			<point x="628" y="751"/>
			<point x="660" y="696"/>
			<point x="660" y="642" type="curve" smooth="yes"/>
			<point x="660" y="633"/>
			<point x="659" y="624"/>
			<point x="657" y="615" type="curve" smooth="yes"/>
			<point x="623" y="438"/>
			<point x="549" y="307"/>
			<point x="512" y="118" type="curve" smooth="yes"/>
			<point x="503" y="70"/>
			<point x="509" y="49"/>
			<point x="504" y="23" type="curve" smooth="yes"/>
			<point x="496" y="-16"/>
			<point x="459" y="-38"/>
			<point x="408" y="-38" type="curve" smooth="yes"/>
			<point x="406" y="-38"/>
			<point x="404" y="-38"/>
			<point x="402" y="-38" type="curve" smooth="yes"/>
			<point x="353" y="-36"/>
			<point x="331" y="-9"/>
			<point x="331" y="51" type="curve" smooth="yes"/>
			<point x="331" y="73"/>
			<point x="334" y="101"/>
		</contour>
	</outline>
</glyph>
<glyph name="four.alt2" format="2">
	<unicode hex="0034"/>
	<advance width="700"/>
	<outline>
		<contour>
			<point x="335" y="109" type="curve" smooth="yes"/>
			<point x="376" y="318"/>
			<point x="458" y="510"/>
			<point x="483" y="641" type="curve" smooth="yes"/>
			<point x="484" y="647"/>
			<point x="485" y="652"/>
			<point x="485" y="657" type="curve" smooth="yes"/>
			<point x="485" y="667"/>
			<point x="483" y="677"/>
			<point x="479" y="693" type="curve"/>
			<point x="521" y="634" type="line"/>
			<point x="379" y="559"/>
			<point x="257" y="437"/>
			<point x="155" y="277" type="curve"/>
			<point x="115" y="349" type="line"/>
			<point x="146" y="335"/>
			<point x="153" y="332"/>
			<point x="178" y="331" type="curve" smooth="yes"/>
			<point x="190" y="331"/>
			<point x="202" y="330"/>
			<point x="214" y="330" type="curve" smooth="yes"/>
			<point x="354" y="330"/>
			<point x="484" y="357"/>
			<point x="663" y="357" type="curve" smooth="yes"/>
			<point x="683" y="357"/>
			<point x="704" y="357"/>
			<point x="725" y="356" type="curve" smooth="yes"/>
			<point x="767" y="355"/>
			<point x="795" y="315"/>
			<point x="795" y="268" type="curve" smooth="yes"/>
			<point x="795" y="260"/>
			<point x="794" y="253"/>
			<point x="793" y="245" type="curve" smooth="yes"/>
			<point x="786" y="208"/>
			<point x="763" y="180"/>
			<point x="721" y="180" type="curve" smooth="yes"/>
			<point x="720" y="180"/>
			<point x="718" y="180"/>
			<point x="717" y="180" type="curve" smooth="yes"/>
			<point x="689" y="181"/>
			<point x="662" y="182"/>
			<point x="637" y="182" type="curve" smooth="yes"/>
			<point x="439" y="182"/>
			<point x="300" y="156"/>
			<point x="136" y="156" type="curve" smooth="yes"/>
			<point x="119" y="156"/>
			<point x="101" y="157"/>
			<point x="83" y="157" type="curve" smooth="yes"/>
			<point x="20" y="159"/>
			<point x="-14" y="206"/>
			<point x="-14" y="251" type="curve" smooth="yes"/>
			<point x="-14" y="256"/>
			<point x="-14" y="261"/>
			<point x="-13" y="266" type="curve" smooth="yes"/>
			<point x="-3" y="315"/>
			<point x="15" y="370"/>
			<point x="81" y="449" type="curve" smooth="yes"/>
			<point x="264" y="672"/>
			<point x="463" y="796"/>
			<point x="553" y="796" type="curve" smooth="yes"/>
			<point x="554" y="796"/>
			<point x="555" y="796"/>
			<point x="556" y="796" type="curve" smooth="yes"/>
			<point x="635" y="793"/>
			<point x="668" y="738"/>
			<point x="668" y="684" type="curve" smooth="yes"/>
			<point x="668" y="675"/>
			<point x="667" y="666"/>
			<point x="665" y="657" type="curve" smooth="yes"/>
			<point x="626" y="456"/>
			<point x="549" y="307"/>
			<point x="507" y="94" type="curve" smooth="yes"/>
			<point x="498" y="46"/>
			<point x="504" y="25"/>
			<point x="499" y="-1" type="curve" smooth="yes"/>
			<point x="492" y="-40"/>
			<point x="454" y="-62"/>
			<point x="403" y="-62" type="curve" smooth="yes"/>
			<point x="401" y="-62"/>
			<point x="399" y="-62"/>
			<point x="397" y="-62" type="curve" smooth="yes"/>
			<point x="348" y="-60"/>
			<point x="326" y="-33"/>
			<point x="326" y="27" type="curve" smooth="yes"/>
			<point x="326" y="49"/>
			<point x="329" y="77"/>
		</contour>
	</outline>
</glyph>
<glyph name="four" format="2">
	<unicode hex="0034"/>
	<advance width="700"/>
	<outline>
		<contour>
			<point x="330" y="83" type="curve" smooth="yes"/>
			<point x="376" y="319"/>
			<point x="463" y="537"/>
			<point x="491" y="683" type="curve" smooth="yes"/>
			<point x="492" y="689"/>
			<point x="493" y="694"/>
			<point x="493" y="699" type="curve" smooth="yes"/>
			<point x="493" y="709"/>
			<point x="491" y="719"/>
			<point x="487" y="735" type="curve"/>
			<point x="529" y="676" type="line"/>
			<point x="369" y="592"/>
			<point x="236" y="458"/>
			<point x="121" y="279" type="curve"/>
			<point x="81" y="350" type="line"/>
			<point x="112" y="336"/>
			<point x="119" y="333"/>
			<point x="144" y="332" type="curve" smooth="yes"/>
			<point x="159" y="332"/>
			<point x="175" y="331"/>
			<point x="190" y="331" type="curve" smooth="yes"/>
			<point x="343" y="331"/>
			<point x="485" y="356"/>
			<point x="680" y="356" type="curve" smooth="yes"/>
			<point x="705" y="356"/>
			<point x="731" y="356"/>
			<point x="759" y="355" type="curve" smooth="yes"/>
			<point x="801" y="353"/>
			<point x="828" y="314"/>
			<point x="828" y="267" type="curve" smooth="yes"/>
			<point x="828" y="259"/>
			<point x="828" y="252"/>
			<point x="826" y="244" type="curve" smooth="yes"/>
			<point x="819" y="207"/>
			<point x="797" y="179"/>
			<point x="754" y="179" type="curve" smooth="yes"/>
			<point x="753" y="179"/>
			<point x="752" y="179"/>
			<point x="751" y="179" type="curve" smooth="yes"/>
			<point x="716" y="180"/>
			<point x="683" y="181"/>
			<point x="652" y="181" type="curve" smooth="yes"/>
			<point x="441" y="181"/>
			<point x="290" y="157"/>
			<point x="114" y="157" type="curve" smooth="yes"/>
			<point x="93" y="157"/>
			<point x="71" y="158"/>
			<point x="49" y="158" type="curve" smooth="yes"/>
			<point x="-14" y="161"/>
			<point x="-48" y="208"/>
			<point x="-48" y="252" type="curve" smooth="yes"/>
			<point x="-48" y="257"/>
			<point x="-48" y="262"/>
			<point x="-47" y="267" type="curve" smooth="yes"/>
			<point x="-37" y="316"/>
			<point x="-19" y="371"/>
			<point x="47" y="450" type="curve" smooth="yes"/>
			<point x="252" y="700"/>
			<point x="463" y="838"/>
			<point x="560" y="838" type="curve" smooth="yes"/>
			<point x="561" y="838"/>
			<point x="563" y="838"/>
			<point x="564" y="838" type="curve" smooth="yes"/>
			<point x="643" y="835"/>
			<point x="676" y="780"/>
			<point x="676" y="726" type="curve" smooth="yes"/>
			<point x="676" y="717"/>
			<point x="675" y="708"/>
			<point x="673" y="699" type="curve" smooth="yes"/>
			<point x="630" y="474"/>
			<point x="548" y="307"/>
			<point x="502" y="68" type="curve" smooth="yes"/>
			<point x="493" y="20"/>
			<point x="499" y="-1"/>
			<point x="494" y="-27" type="curve" smooth="yes"/>
			<point x="486" y="-66"/>
			<point x="449" y="-88"/>
			<point x="398" y="-88" type="curve" smooth="yes"/>
			<point x="396" y="-88"/>
			<point x="394" y="-88"/>
			<point x="392" y="-88" type="curve" smooth="yes"/>
			<point x="343" y="-86"/>
			<point x="320" y="-59"/>
			<point x="320" y="1" type="curve" smooth="yes"/>
			<point x="320" y="23"/>
			<point x="324" y="51"/>
		</contour>
	</outline>
</glyph>
<glyph name="five" format="2">
	<unicode hex="0035"/>
	<advance width="700"/>
	<outline>
		<contour>
			<point x="701" y="579" type="curve" smooth="yes"/>
			<point x="675" y="580"/>
			<point x="652" y="580"/>
			<point x="630" y="580" type="curve" smooth="yes"/>
			<point x="545" y="580"/>
			<point x="479" y="575"/>
			<point x="389" y="575" type="curve" smooth="yes"/>
			<point x="354" y="575"/>
			<point x="315" y="576"/>
			<point x="269" y="578" type="curve"/>
			<point x="344" y="601" type="line"/>
			<point x="318" y="564"/>
			<point x="315" y="548"/>
			<point x="310" y="522" type="curve" smooth="yes"/>
			<point x="310" y="519"/>
			<point x="309" y="517"/>
			<point x="309" y="515" type="curve" smooth="yes"/>
			<point x="309" y="498"/>
			<point x="330" y="490"/>
			<point x="458" y="465" type="curve" smooth="yes"/>
			<point x="630" y="428"/>
			<point x="682" y="381"/>
			<point x="682" y="300" type="curve" smooth="yes"/>
			<point x="682" y="284"/>
			<point x="680" y="266"/>
			<point x="676" y="247" type="curve" smooth="yes"/>
			<point x="644" y="77"/>
			<point x="484" y="-39"/>
			<point x="272" y="-39" type="curve" smooth="yes"/>
			<point x="266" y="-39"/>
			<point x="259" y="-39"/>
			<point x="252" y="-39" type="curve" smooth="yes"/>
			<point x="131" y="-35"/>
			<point x="77" y="16"/>
			<point x="77" y="92" type="curve" smooth="yes"/>
			<point x="77" y="103"/>
			<point x="79" y="115"/>
			<point x="81" y="128" type="curve" smooth="yes"/>
			<point x="89" y="170"/>
			<point x="116" y="203"/>
			<point x="159" y="203" type="curve" smooth="yes"/>
			<point x="160" y="203"/>
			<point x="161" y="203"/>
			<point x="162" y="203" type="curve" smooth="yes"/>
			<point x="208" y="201"/>
			<point x="200" y="134"/>
			<point x="276" y="131" type="curve" smooth="yes"/>
			<point x="278" y="131"/>
			<point x="281" y="131"/>
			<point x="284" y="131" type="curve" smooth="yes"/>
			<point x="366" y="131"/>
			<point x="478" y="173"/>
			<point x="493" y="251" type="curve" smooth="yes"/>
			<point x="494" y="255"/>
			<point x="494" y="259"/>
			<point x="494" y="262" type="curve" smooth="yes"/>
			<point x="494" y="283"/>
			<point x="479" y="297"/>
			<point x="413" y="312" type="curve" smooth="yes"/>
			<point x="189" y="361"/>
			<point x="127" y="392"/>
			<point x="127" y="471" type="curve" smooth="yes"/>
			<point x="127" y="485"/>
			<point x="129" y="500"/>
			<point x="132" y="518" type="curve" smooth="yes"/>
			<point x="142" y="567"/>
			<point x="158" y="630"/>
			<point x="196" y="702" type="curve" smooth="yes"/>
			<point x="213" y="736"/>
			<point x="230" y="753"/>
			<point x="263" y="753" type="curve" smooth="yes"/>
			<point x="264" y="753"/>
			<point x="265" y="752"/>
			<point x="267" y="752" type="curve" smooth="yes"/>
			<point x="305" y="751"/>
			<point x="339" y="751"/>
			<point x="369" y="751" type="curve" smooth="yes"/>
			<point x="463" y="751"/>
			<point x="526" y="756"/>
			<point x="604" y="756" type="curve" smooth="yes"/>
			<point x="624" y="756"/>
			<point x="645" y="755"/>
			<point x="667" y="754" type="curve" smooth="yes"/>
			<point x="741" y="752"/>
			<point x="777" y="711"/>
			<point x="777" y="662" type="curve" smooth="yes"/>
			<point x="777" y="654"/>
			<point x="776" y="646"/>
			<point x="774" y="637" type="curve" smooth="yes"/>
			<point x="766" y="602"/>
			<point x="738" y="579"/>
			<point x="703" y="579" type="curve" smooth="yes"/>
			<point x="702" y="579"/>
			<point x="701" y="579"/>
		</contour>
	</outline>
</glyph>
<glyph name="six.alt1" format="2">
	<unicode hex="0036"/>
	<advance width="700"/>
	<outline>
		<contour>
			<point x="563" y="570" type="curve" smooth="yes"/>
			<point x="392" y="468"/>
			<point x="262" y="361"/>
			<point x="241" y="249" type="curve" smooth="yes"/>
			<point x="239" y="240"/>
			<point x="238" y="232"/>
			<point x="238" y="224" type="curve" smooth="yes"/>
			<point x="238" y="160"/>
			<point x="294" y="138"/>
			<point x="375" y="135" type="curve" smooth="yes"/>
			<point x="378" y="135"/>
			<point x="381" y="135"/>
			<point x="384" y="135" type="curve" smooth="yes"/>
			<point x="465" y="135"/>
			<point x="521" y="173"/>
			<point x="531" y="221" type="curve" smooth="yes"/>
			<point x="531" y="225"/>
			<point x="532" y="229"/>
			<point x="532" y="233" type="curve" smooth="yes"/>
			<point x="532" y="262"/>
			<point x="508" y="289"/>
			<point x="442" y="291" type="curve" smooth="yes"/>
			<point x="436" y="292"/>
			<point x="431" y="292"/>
			<point x="426" y="292" type="curve" smooth="yes"/>
			<point x="357" y="292"/>
			<point x="332" y="276"/>
			<point x="293" y="276" type="curve" smooth="yes"/>
			<point x="291" y="276"/>
			<point x="290" y="276"/>
			<point x="288" y="276" type="curve" smooth="yes"/>
			<point x="253" y="277"/>
			<point x="240" y="292"/>
			<point x="240" y="312" type="curve" smooth="yes"/>
			<point x="240" y="316"/>
			<point x="240" y="320"/>
			<point x="241" y="324" type="curve" smooth="yes"/>
			<point x="249" y="365"/>
			<point x="352" y="439"/>
			<point x="500" y="439" type="curve" smooth="yes"/>
			<point x="505" y="439"/>
			<point x="510" y="439"/>
			<point x="516" y="439" type="curve" smooth="yes"/>
			<point x="638" y="434"/>
			<point x="708" y="358"/>
			<point x="708" y="256" type="curve" smooth="yes"/>
			<point x="708" y="241"/>
			<point x="706" y="225"/>
			<point x="703" y="209" type="curve" smooth="yes"/>
			<point x="675" y="65"/>
			<point x="542" y="-35"/>
			<point x="356" y="-35" type="curve" smooth="yes"/>
			<point x="350" y="-35"/>
			<point x="344" y="-35"/>
			<point x="338" y="-35" type="curve" smooth="yes"/>
			<point x="143" y="-28"/>
			<point x="55" y="58"/>
			<point x="55" y="187" type="curve" smooth="yes"/>
			<point x="55" y="207"/>
			<point x="57" y="228"/>
			<point x="61" y="250" type="curve" smooth="yes"/>
			<point x="91" y="403"/>
			<point x="237" y="562"/>
			<point x="464" y="701" type="curve" smooth="yes"/>
			<point x="505" y="726"/>
			<point x="521" y="733"/>
			<point x="540" y="733" type="curve" smooth="yes"/>
			<point x="541" y="733"/>
			<point x="542" y="733"/>
			<point x="543" y="733" type="curve" smooth="yes"/>
			<point x="588" y="731"/>
			<point x="616" y="691"/>
			<point x="616" y="649" type="curve" smooth="yes"/>
			<point x="616" y="643"/>
			<point x="615" y="637"/>
			<point x="614" y="631" type="curve" smooth="yes"/>
			<point x="609" y="608"/>
			<point x="602" y="593"/>
		</contour>
	</outline>
</glyph>
<glyph name="six.alt2" format="2">
	<unicode hex="0036"/>
	<advance width="700"/>
	<outline>
		<contour>
			<point x="568" y="595" type="curve" smooth="yes"/>
			<point x="392" y="489"/>
			<point x="264" y="370"/>
			<point x="241" y="249" type="curve" smooth="yes"/>
			<point x="238" y="236"/>
			<point x="237" y="224"/>
			<point x="237" y="213" type="curve" smooth="yes"/>
			<point x="237" y="140"/>
			<point x="292" y="114"/>
			<point x="370" y="111" type="curve" smooth="yes"/>
			<point x="373" y="111"/>
			<point x="375" y="111"/>
			<point x="378" y="111" type="curve" smooth="yes"/>
			<point x="459" y="111"/>
			<point x="518" y="158"/>
			<point x="530" y="216" type="curve" smooth="yes"/>
			<point x="531" y="221"/>
			<point x="531" y="226"/>
			<point x="531" y="231" type="curve" smooth="yes"/>
			<point x="531" y="264"/>
			<point x="508" y="294"/>
			<point x="443" y="296" type="curve" smooth="yes"/>
			<point x="437" y="297"/>
			<point x="432" y="297"/>
			<point x="427" y="297" type="curve" smooth="yes"/>
			<point x="358" y="297"/>
			<point x="333" y="281"/>
			<point x="294" y="281" type="curve" smooth="yes"/>
			<point x="292" y="281"/>
			<point x="291" y="281"/>
			<point x="289" y="281" type="curve" smooth="yes"/>
			<point x="254" y="282"/>
			<point x="241" y="297"/>
			<point x="241" y="317" type="curve" smooth="yes"/>
			<point x="241" y="321"/>
			<point x="241" y="325"/>
			<point x="242" y="329" type="curve" smooth="yes"/>
			<point x="250" y="370"/>
			<point x="353" y="444"/>
			<point x="501" y="444" type="curve" smooth="yes"/>
			<point x="506" y="444"/>
			<point x="511" y="444"/>
			<point x="517" y="444" type="curve" smooth="yes"/>
			<point x="639" y="439"/>
			<point x="707" y="360"/>
			<point x="707" y="255" type="curve" smooth="yes"/>
			<point x="707" y="238"/>
			<point x="706" y="221"/>
			<point x="702" y="204" type="curve" smooth="yes"/>
			<point x="672" y="48"/>
			<point x="537" y="-59"/>
			<point x="351" y="-59" type="curve" smooth="yes"/>
			<point x="345" y="-59"/>
			<point x="339" y="-59"/>
			<point x="333" y="-59" type="curve" smooth="yes"/>
			<point x="141" y="-52"/>
			<point x="53" y="40"/>
			<point x="53" y="177" type="curve" smooth="yes"/>
			<point x="53" y="200"/>
			<point x="56" y="225"/>
			<point x="61" y="250" type="curve" smooth="yes"/>
			<point x="92" y="411"/>
			<point x="238" y="584"/>
			<point x="469" y="726" type="curve" smooth="yes"/>
			<point x="510" y="750"/>
			<point x="526" y="758"/>
			<point x="545" y="758" type="curve" smooth="yes"/>
			<point x="546" y="758"/>
			<point x="547" y="758"/>
			<point x="548" y="758" type="curve" smooth="yes"/>
			<point x="593" y="756"/>
			<point x="620" y="716"/>
			<point x="620" y="674" type="curve" smooth="yes"/>
			<point x="620" y="668"/>
			<point x="620" y="662"/>
			<point x="619" y="656" type="curve" smooth="yes"/>
			<point x="614" y="633"/>
			<point x="607" y="618"/>
		</contour>
	</outline>
</glyph>
<glyph name="six" format="2">
	<unicode hex="0036"/>
	<advance width="700"/>
	<outline>
		<contour>
			<point x="573" y="620" type="curve" smooth="yes"/>
			<point x="393" y="512"/>
			<point x="266" y="379"/>
			<point x="241" y="249" type="curve" smooth="yes"/>
			<point x="237" y="231"/>
			<point x="236" y="214"/>
			<point x="236" y="200" type="curve" smooth="yes"/>
			<point x="236" y="117"/>
			<point x="288" y="87"/>
			<point x="365" y="85" type="curve" smooth="yes"/>
			<point x="367" y="85"/>
			<point x="369" y="85"/>
			<point x="372" y="85" type="curve" smooth="yes"/>
			<point x="454" y="85"/>
			<point x="515" y="141"/>
			<point x="529" y="211" type="curve" smooth="yes"/>
			<point x="530" y="217"/>
			<point x="531" y="224"/>
			<point x="531" y="230" type="curve" smooth="yes"/>
			<point x="531" y="267"/>
			<point x="508" y="299"/>
			<point x="444" y="301" type="curve" smooth="yes"/>
			<point x="438" y="302"/>
			<point x="433" y="302"/>
			<point x="428" y="302" type="curve" smooth="yes"/>
			<point x="359" y="302"/>
			<point x="334" y="286"/>
			<point x="295" y="286" type="curve" smooth="yes"/>
			<point x="293" y="286"/>
			<point x="292" y="286"/>
			<point x="290" y="286" type="curve" smooth="yes"/>
			<point x="255" y="287"/>
			<point x="242" y="302"/>
			<point x="242" y="322" type="curve" smooth="yes"/>
			<point x="242" y="326"/>
			<point x="242" y="330"/>
			<point x="243" y="334" type="curve" smooth="yes"/>
			<point x="251" y="375"/>
			<point x="354" y="449"/>
			<point x="502" y="449" type="curve" smooth="yes"/>
			<point x="507" y="449"/>
			<point x="512" y="449"/>
			<point x="518" y="449" type="curve" smooth="yes"/>
			<point x="639" y="444"/>
			<point x="707" y="363"/>
			<point x="707" y="254" type="curve" smooth="yes"/>
			<point x="707" y="236"/>
			<point x="705" y="218"/>
			<point x="701" y="199" type="curve" smooth="yes"/>
			<point x="669" y="31"/>
			<point x="531" y="-85"/>
			<point x="344" y="-85" type="curve" smooth="yes"/>
			<point x="339" y="-85"/>
			<point x="334" y="-85"/>
			<point x="328" y="-85" type="curve" smooth="yes"/>
			<point x="138" y="-78"/>
			<point x="52" y="19"/>
			<point x="52" y="164" type="curve" smooth="yes"/>
			<point x="52" y="191"/>
			<point x="55" y="220"/>
			<point x="61" y="250" type="curve" smooth="yes"/>
			<point x="94" y="420"/>
			<point x="238" y="606"/>
			<point x="474" y="751" type="curve" smooth="yes"/>
			<point x="515" y="776"/>
			<point x="530" y="783"/>
			<point x="550" y="783" type="curve" smooth="yes"/>
			<point x="551" y="783"/>
			<point x="552" y="783"/>
			<point x="553" y="783" type="curve" smooth="yes"/>
			<point x="597" y="781"/>
			<point x="625" y="742"/>
			<point x="625" y="700" type="curve" smooth="yes"/>
			<point x="625" y="694"/>
			<point x="625" y="688"/>
			<point x="624" y="681" type="curve" smooth="yes"/>
			<point x="619" y="658"/>
			<point x="612" y="643"/>
		</contour>
	</outline>
</glyph>
<glyph name="seven.alt2" format="2">
	<unicode hex="0037"/>
	<advance width="700"/>
	<outline>
		<contour>
			<point x="232" y="372" type="curve" smooth="yes"/>
			<point x="240" y="372"/>
			<point x="249" y="372"/>
			<point x="257" y="372" type="curve" smooth="yes"/>
			<point x="349" y="372"/>
			<point x="439" y="388"/>
			<point x="566" y="388" type="curve" smooth="yes"/>
			<point x="583" y="388"/>
			<point x="600" y="387"/>
			<point x="619" y="387" type="curve" smooth="yes"/>
			<point x="688" y="384"/>
			<point x="726" y="346"/>
			<point x="726" y="297" type="curve" smooth="yes"/>
			<point x="726" y="291"/>
			<point x="725" y="284"/>
			<point x="724" y="278" type="curve" smooth="yes"/>
			<point x="717" y="243"/>
			<point x="689" y="220"/>
			<point x="646" y="220" type="curve" smooth="yes"/>
			<point x="644" y="220"/>
			<point x="643" y="220"/>
			<point x="641" y="220" type="curve" smooth="yes"/>
			<point x="611" y="221"/>
			<point x="584" y="222"/>
			<point x="558" y="222" type="curve" smooth="yes"/>
			<point x="408" y="222"/>
			<point x="332" y="206"/>
			<point x="256" y="206" type="curve" smooth="yes"/>
			<point x="250" y="206"/>
			<point x="244" y="206"/>
			<point x="238" y="206" type="curve" smooth="yes"/>
			<point x="187" y="208"/>
			<point x="156" y="246"/>
			<point x="156" y="289" type="curve" smooth="yes"/>
			<point x="156" y="295"/>
			<point x="157" y="301"/>
			<point x="158" y="306" type="curve" smooth="yes"/>
			<point x="166" y="349"/>
			<point x="188" y="372"/>
			<point x="228" y="372" type="curve" smooth="yes"/>
			<point x="229" y="372"/>
			<point x="230" y="372"/>
		</contour>
		<contour>
			<point x="166" y="655" type="curve" smooth="yes"/>
			<point x="266" y="687"/>
			<point x="404" y="709"/>
			<point x="487" y="709" type="curve" smooth="yes"/>
			<point x="492" y="709"/>
			<point x="496" y="709"/>
			<point x="501" y="709" type="curve" smooth="yes"/>
			<point x="652" y="704"/>
			<point x="712" y="645"/>
			<point x="712" y="559" type="curve" smooth="yes"/>
			<point x="712" y="545"/>
			<point x="711" y="531"/>
			<point x="708" y="516" type="curve" smooth="yes"/>
			<point x="677" y="356"/>
			<point x="473" y="232"/>
			<point x="441" y="67" type="curve" smooth="yes"/>
			<point x="430" y="9"/>
			<point x="409" y="-10"/>
			<point x="365" y="-10" type="curve" smooth="yes"/>
			<point x="363" y="-10"/>
			<point x="361" y="-10"/>
			<point x="359" y="-10" type="curve" smooth="yes"/>
			<point x="308" y="-8"/>
			<point x="269" y="16"/>
			<point x="269" y="65" type="curve" smooth="yes"/>
			<point x="269" y="72"/>
			<point x="270" y="79"/>
			<point x="271" y="86" type="curve" smooth="yes"/>
			<point x="302" y="243"/>
			<point x="514" y="433"/>
			<point x="528" y="503" type="curve" smooth="yes"/>
			<point x="529" y="507"/>
			<point x="529" y="510"/>
			<point x="529" y="514" type="curve" smooth="yes"/>
			<point x="529" y="535"/>
			<point x="514" y="543"/>
			<point x="476" y="545" type="curve" smooth="yes"/>
			<point x="468" y="545"/>
			<point x="460" y="545"/>
			<point x="452" y="545" type="curve" smooth="yes"/>
			<point x="312" y="545"/>
			<point x="240" y="502"/>
			<point x="196" y="502" type="curve" smooth="yes"/>
			<point x="195" y="502"/>
			<point x="194" y="502"/>
			<point x="194" y="502" type="curve" smooth="yes"/>
			<point x="156" y="504"/>
			<point x="125" y="547"/>
			<point x="125" y="589" type="curve" smooth="yes"/>
			<point x="125" y="594"/>
			<point x="125" y="599"/>
			<point x="126" y="604" type="curve" smooth="yes"/>
			<point x="131" y="626"/>
			<point x="145" y="649"/>
		</contour>
	</outline>
</glyph>
<glyph name="eight.alt1" format="2">
	<unicode hex="0038"/>
	<advance width="700"/>
	<outline>
		<contour>
			<point x="504" y="542" type="curve" smooth="yes"/>
			<point x="464" y="544"/>
			<point x="432" y="545"/>
			<point x="407" y="545" type="curve" smooth="yes"/>
			<point x="328" y="545"/>
			<point x="307" y="535"/>
			<point x="305" y="525" type="curve" smooth="yes"/>
			<point x="305" y="523"/>
			<point x="305" y="522"/>
			<point x="305" y="521" type="curve" smooth="yes"/>
			<point x="305" y="490"/>
			<point x="384" y="463"/>
			<point x="482" y="425" type="curve" smooth="yes"/>
			<point x="644" y="360"/>
			<point x="690" y="319"/>
			<point x="690" y="254" type="curve" smooth="yes"/>
			<point x="690" y="241"/>
			<point x="688" y="227"/>
			<point x="685" y="211" type="curve" smooth="yes"/>
			<point x="662" y="93"/>
			<point x="557" y="-11"/>
			<point x="331" y="-11" type="curve" smooth="yes"/>
			<point x="322" y="-11"/>
			<point x="313" y="-11"/>
			<point x="304" y="-11" type="curve" smooth="yes"/>
			<point x="136" y="-5"/>
			<point x="71" y="64"/>
			<point x="71" y="146" type="curve" smooth="yes"/>
			<point x="71" y="158"/>
			<point x="72" y="170"/>
			<point x="75" y="182" type="curve" smooth="yes"/>
			<point x="92" y="260"/>
			<point x="137" y="317"/>
			<point x="376" y="423" type="curve" smooth="yes"/>
			<point x="535" y="494"/>
			<point x="573" y="534"/>
			<point x="593" y="578" type="curve" smooth="yes"/>
			<point x="609" y="613"/>
			<point x="628" y="635"/>
			<point x="661" y="635" type="curve" smooth="yes"/>
			<point x="662" y="635"/>
			<point x="663" y="635"/>
			<point x="664" y="635" type="curve" smooth="yes"/>
			<point x="709" y="633"/>
			<point x="741" y="596"/>
			<point x="741" y="547" type="curve" smooth="yes"/>
			<point x="741" y="540"/>
			<point x="740" y="532"/>
			<point x="738" y="524" type="curve" smooth="yes"/>
			<point x="728" y="469"/>
			<point x="675" y="401"/>
			<point x="514" y="326" type="curve" smooth="yes"/>
			<point x="271" y="213"/>
			<point x="254" y="192"/>
			<point x="247" y="157" type="curve" smooth="yes"/>
			<point x="245" y="145"/>
			<point x="242" y="130"/>
			<point x="242" y="111" type="curve" smooth="yes"/>
			<point x="242" y="97"/>
			<point x="243" y="81"/>
			<point x="249" y="62" type="curve"/>
			<point x="179" y="191" type="line"/>
			<point x="235" y="165"/>
			<point x="278" y="162"/>
			<point x="335" y="160" type="curve" smooth="yes"/>
			<point x="343" y="160"/>
			<point x="350" y="160"/>
			<point x="358" y="160" type="curve" smooth="yes"/>
			<point x="433" y="160"/>
			<point x="495" y="174"/>
			<point x="504" y="221" type="curve" smooth="yes"/>
			<point x="504" y="223"/>
			<point x="504" y="226"/>
			<point x="504" y="229" type="curve" smooth="yes"/>
			<point x="504" y="249"/>
			<point x="485" y="273"/>
			<point x="372" y="308" type="curve" smooth="yes"/>
			<point x="182" y="368"/>
			<point x="129" y="420"/>
			<point x="129" y="491" type="curve" smooth="yes"/>
			<point x="129" y="504"/>
			<point x="130" y="517"/>
			<point x="133" y="531" type="curve" smooth="yes"/>
			<point x="157" y="645"/>
			<point x="251" y="712"/>
			<point x="437" y="712" type="curve" smooth="yes"/>
			<point x="447" y="712"/>
			<point x="457" y="711"/>
			<point x="467" y="711" type="curve" smooth="yes"/>
			<point x="545" y="708"/>
			<point x="584" y="664"/>
			<point x="584" y="619" type="curve" smooth="yes"/>
			<point x="584" y="613"/>
			<point x="583" y="606"/>
			<point x="582" y="600" type="curve" smooth="yes"/>
			<point x="575" y="568"/>
			<point x="542" y="542"/>
			<point x="508" y="542" type="curve" smooth="yes"/>
			<point x="506" y="542"/>
			<point x="505" y="542"/>
		</contour>
	</outline>
</glyph>
<glyph name="eight.alt2" format="2">
	<unicode hex="0038"/>
	<advance width="700"/>
	<outline>
		<contour>
			<point x="518" y="541" type="curve" smooth="yes"/>
			<point x="479" y="544"/>
			<point x="448" y="545"/>
			<point x="422" y="545" type="curve" smooth="yes"/>
			<point x="339" y="545"/>
			<point x="317" y="533"/>
			<point x="314" y="521" type="curve" smooth="yes"/>
			<point x="314" y="520"/>
			<point x="314" y="519"/>
			<point x="314" y="518" type="curve" smooth="yes"/>
			<point x="314" y="488"/>
			<point x="389" y="462"/>
			<point x="482" y="425" type="curve" smooth="yes"/>
			<point x="640" y="362"/>
			<point x="684" y="321"/>
			<point x="684" y="255" type="curve" smooth="yes"/>
			<point x="684" y="242"/>
			<point x="682" y="227"/>
			<point x="679" y="212" type="curve" smooth="yes"/>
			<point x="656" y="93"/>
			<point x="551" y="-11"/>
			<point x="330" y="-11" type="curve" smooth="yes"/>
			<point x="321" y="-11"/>
			<point x="313" y="-11"/>
			<point x="304" y="-11" type="curve" smooth="yes"/>
			<point x="142" y="-5"/>
			<point x="81" y="63"/>
			<point x="81" y="144" type="curve" smooth="yes"/>
			<point x="81" y="157"/>
			<point x="82" y="169"/>
			<point x="85" y="182" type="curve" smooth="yes"/>
			<point x="102" y="260"/>
			<point x="144" y="321"/>
			<point x="376" y="424" type="curve" smooth="yes"/>
			<point x="529" y="492"/>
			<point x="563" y="535"/>
			<point x="583" y="578" type="curve" smooth="yes"/>
			<point x="599" y="613"/>
			<point x="618" y="635"/>
			<point x="651" y="635" type="curve" smooth="yes"/>
			<point x="652" y="635"/>
			<point x="653" y="635"/>
			<point x="654" y="635" type="curve" smooth="yes"/>
			<point x="699" y="634"/>
			<point x="731" y="597"/>
			<point x="731" y="548" type="curve" smooth="yes"/>
			<point x="731" y="540"/>
			<point x="730" y="533"/>
			<point x="728" y="525" type="curve" smooth="yes"/>
			<point x="718" y="470"/>
			<point x="669" y="398"/>
			<point x="514" y="326" type="curve" smooth="yes"/>
			<point x="279" y="217"/>
			<point x="264" y="192"/>
			<point x="257" y="157" type="curve" smooth="yes"/>
			<point x="255" y="145"/>
			<point x="252" y="130"/>
			<point x="252" y="111" type="curve" smooth="yes"/>
			<point x="252" y="97"/>
			<point x="253" y="80"/>
			<point x="259" y="61" type="curve"/>
			<point x="189" y="191" type="line"/>
			<point x="242" y="166"/>
			<point x="281" y="162"/>
			<point x="335" y="160" type="curve" smooth="yes"/>
			<point x="342" y="160"/>
			<point x="349" y="160"/>
			<point x="356" y="160" type="curve" smooth="yes"/>
			<point x="429" y="160"/>
			<point x="489" y="175"/>
			<point x="498" y="221" type="curve" smooth="yes"/>
			<point x="498" y="224"/>
			<point x="498" y="226"/>
			<point x="498" y="229" type="curve" smooth="yes"/>
			<point x="498" y="250"/>
			<point x="480" y="275"/>
			<point x="372" y="308" type="curve" smooth="yes"/>
			<point x="189" y="366"/>
			<point x="138" y="417"/>
			<point x="138" y="487" type="curve" smooth="yes"/>
			<point x="138" y="500"/>
			<point x="140" y="513"/>
			<point x="143" y="527" type="curve" smooth="yes"/>
			<point x="167" y="644"/>
			<point x="260" y="711"/>
			<point x="445" y="711" type="curve" smooth="yes"/>
			<point x="454" y="711"/>
			<point x="463" y="711"/>
			<point x="473" y="711" type="curve" smooth="yes"/>
			<point x="557" y="708"/>
			<point x="599" y="663"/>
			<point x="599" y="617" type="curve" smooth="yes"/>
			<point x="599" y="611"/>
			<point x="598" y="606"/>
			<point x="597" y="600" type="curve" smooth="yes"/>
			<point x="590" y="567"/>
			<point x="557" y="541"/>
			<point x="523" y="541" type="curve" smooth="yes"/>
			<point x="521" y="541"/>
			<point x="520" y="541"/>
		</contour>
	</outline>
</glyph>
<glyph name="eight" format="2">
	<unicode hex="0038"/>
	<advance width="700"/>
	<outline>
		<contour>
			<point x="533" y="541" type="curve" smooth="yes"/>
			<point x="495" y="543"/>
			<point x="463" y="545"/>
			<point x="436" y="545" type="curve" smooth="yes"/>
			<point x="350" y="545"/>
			<point x="327" y="532"/>
			<point x="324" y="519" type="curve" smooth="yes"/>
			<point x="324" y="518"/>
			<point x="324" y="517"/>
			<point x="324" y="515" type="curve" smooth="yes"/>
			<point x="324" y="486"/>
			<point x="394" y="460"/>
			<point x="482" y="425" type="curve" smooth="yes"/>
			<point x="635" y="364"/>
			<point x="677" y="322"/>
			<point x="677" y="257" type="curve" smooth="yes"/>
			<point x="677" y="243"/>
			<point x="675" y="228"/>
			<point x="672" y="212" type="curve" smooth="yes"/>
			<point x="649" y="93"/>
			<point x="546" y="-11"/>
			<point x="329" y="-11" type="curve" smooth="yes"/>
			<point x="320" y="-11"/>
			<point x="312" y="-11"/>
			<point x="304" y="-11" type="curve" smooth="yes"/>
			<point x="150" y="-5"/>
			<point x="90" y="62"/>
			<point x="90" y="143" type="curve" smooth="yes"/>
			<point x="90" y="155"/>
			<point x="92" y="169"/>
			<point x="95" y="182" type="curve" smooth="yes"/>
			<point x="112" y="260"/>
			<point x="151" y="324"/>
			<point x="376" y="424" type="curve" smooth="yes"/>
			<point x="522" y="488"/>
			<point x="553" y="535"/>
			<point x="573" y="579" type="curve" smooth="yes"/>
			<point x="589" y="613"/>
			<point x="608" y="636"/>
			<point x="641" y="636" type="curve" smooth="yes"/>
			<point x="642" y="636"/>
			<point x="643" y="636"/>
			<point x="644" y="636" type="curve" smooth="yes"/>
			<point x="689" y="634"/>
			<point x="721" y="597"/>
			<point x="721" y="548" type="curve" smooth="yes"/>
			<point x="721" y="541"/>
			<point x="720" y="533"/>
			<point x="718" y="525" type="curve" smooth="yes"/>
			<point x="708" y="470"/>
			<point x="662" y="395"/>
			<point x="514" y="326" type="curve" smooth="yes"/>
			<point x="286" y="220"/>
			<point x="274" y="192"/>
			<point x="267" y="157" type="curve" smooth="yes"/>
			<point x="265" y="145"/>
			<point x="261" y="130"/>
			<point x="261" y="111" type="curve" smooth="yes"/>
			<point x="261" y="97"/>
			<point x="263" y="80"/>
			<point x="269" y="61" type="curve"/>
			<point x="198" y="190" type="line"/>
			<point x="249" y="166"/>
			<point x="285" y="162"/>
			<point x="335" y="160" type="curve" smooth="yes"/>
			<point x="341" y="160"/>
			<point x="348" y="160"/>
			<point x="354" y="160" type="curve" smooth="yes"/>
			<point x="424" y="160"/>
			<point x="482" y="175"/>
			<point x="491" y="221" type="curve" smooth="yes"/>
			<point x="491" y="224"/>
			<point x="492" y="227"/>
			<point x="492" y="230" type="curve" smooth="yes"/>
			<point x="492" y="251"/>
			<point x="474" y="277"/>
			<point x="372" y="308" type="curve" smooth="yes"/>
			<point x="197" y="363"/>
			<point x="147" y="415"/>
			<point x="147" y="484" type="curve" smooth="yes"/>
			<point x="147" y="497"/>
			<point x="149" y="511"/>
			<point x="152" y="525" type="curve" smooth="yes"/>
			<point x="177" y="643"/>
			<point x="269" y="711"/>
			<point x="452" y="711" type="curve" smooth="yes"/>
			<point x="461" y="711"/>
			<point x="471" y="711"/>
			<point x="480" y="711" type="curve" smooth="yes"/>
			<point x="570" y="708"/>
			<point x="614" y="662"/>
			<point x="614" y="616" type="curve" smooth="yes"/>
			<point x="614" y="610"/>
			<point x="613" y="605"/>
			<point x="612" y="599" type="curve" smooth="yes"/>
			<point x="604" y="567"/>
			<point x="572" y="541"/>
			<point x="538" y="541" type="curve" smooth="yes"/>
			<point x="536" y="541"/>
			<point x="535" y="541"/>
		</contour>
	</outline>
</glyph>
<glyph name="nine.alt1" format="2">
	<unicode hex="0039"/>
	<advance width="700"/>
	<outline>
		<contour>
			<point x="548" y="508" type="curve" smooth="yes"/>
			<point x="549" y="508"/>
			<point x="550" y="508"/>
			<point x="550" y="508" type="curve" smooth="yes"/>
			<point x="588" y="508"/>
			<point x="610" y="539"/>
			<point x="616" y="571" type="curve" smooth="yes"/>
			<point x="618" y="580"/>
			<point x="619" y="588"/>
			<point x="619" y="597" type="curve" smooth="yes"/>
			<point x="619" y="656"/>
			<point x="574" y="693"/>
			<point x="491" y="696" type="curve" smooth="yes"/>
			<point x="485" y="696"/>
			<point x="479" y="696"/>
			<point x="473" y="696" type="curve" smooth="yes"/>
			<point x="259" y="696"/>
			<point x="133" y="564"/>
			<point x="109" y="440" type="curve" smooth="yes"/>
			<point x="105" y="422"/>
			<point x="103" y="405"/>
			<point x="103" y="389" type="curve" smooth="yes"/>
			<point x="103" y="293"/>
			<point x="166" y="234"/>
			<point x="292" y="230" type="curve" smooth="yes"/>
			<point x="298" y="230"/>
			<point x="305" y="230"/>
			<point x="311" y="230" type="curve" smooth="yes"/>
			<point x="437" y="230"/>
			<point x="527" y="278"/>
			<point x="624" y="393" type="curve"/>
			<point x="509" y="344" type="line"/>
			<point x="488" y="235"/>
			<point x="472" y="147"/>
			<point x="470" y="87" type="curve" smooth="yes"/>
			<point x="470" y="86"/>
			<point x="470" y="86"/>
			<point x="470" y="86" type="curve" smooth="yes"/>
			<point x="470" y="32"/>
			<point x="505" y="-7"/>
			<point x="563" y="-9" type="curve" smooth="yes"/>
			<point x="565" y="-9"/>
			<point x="566" y="-9"/>
			<point x="568" y="-9" type="curve" smooth="yes"/>
			<point x="610" y="-9"/>
			<point x="638" y="13"/>
			<point x="648" y="65" type="curve" smooth="yes"/>
			<point x="654" y="98"/>
			<point x="648" y="142"/>
			<point x="671" y="260" type="curve" smooth="yes"/>
			<point x="681" y="312"/>
			<point x="693" y="365"/>
			<point x="713" y="458" type="curve"/>
			<point x="731" y="499"/>
			<point x="739" y="534"/>
			<point x="739" y="562" type="curve" smooth="yes"/>
			<point x="739" y="615"/>
			<point x="709" y="644"/>
			<point x="646" y="646" type="curve" smooth="yes"/>
			<point x="645" y="646"/>
			<point x="644" y="646"/>
			<point x="643" y="646" type="curve" smooth="yes"/>
			<point x="610" y="646"/>
			<point x="582" y="623"/>
			<point x="574" y="582" type="curve" smooth="yes"/>
			<point x="547" y="441"/>
			<point x="457" y="397"/>
			<point x="342" y="397" type="curve" smooth="yes"/>
			<point x="337" y="397"/>
			<point x="331" y="398"/>
			<point x="326" y="398" type="curve" smooth="yes"/>
			<point x="295" y="399"/>
			<point x="281" y="413"/>
			<point x="281" y="431" type="curve" smooth="yes"/>
			<point x="281" y="434"/>
			<point x="281" y="437"/>
			<point x="282" y="440" type="curve" smooth="yes"/>
			<point x="289" y="475"/>
			<point x="337" y="525"/>
			<point x="446" y="525" type="curve" smooth="yes"/>
			<point x="450" y="525"/>
			<point x="454" y="525"/>
			<point x="458" y="525" type="curve" smooth="yes"/>
			<point x="504" y="523"/>
			<point x="522" y="509"/>
		</contour>
	</outline>
</glyph>
<glyph name="nine.alt2" format="2">
	<unicode hex="0039"/>
	<advance width="700"/>
	<outline>
		<contour>
			<point x="546" y="495" type="curve" smooth="yes"/>
			<point x="546" y="495"/>
			<point x="547" y="495"/>
			<point x="548" y="495" type="curve" smooth="yes"/>
			<point x="585" y="495"/>
			<point x="608" y="526"/>
			<point x="614" y="558" type="curve" smooth="yes"/>
			<point x="616" y="567"/>
			<point x="616" y="575"/>
			<point x="616" y="584" type="curve" smooth="yes"/>
			<point x="616" y="643"/>
			<point x="572" y="680"/>
			<point x="489" y="683" type="curve" smooth="yes"/>
			<point x="483" y="683"/>
			<point x="477" y="683"/>
			<point x="471" y="683" type="curve" smooth="yes"/>
			<point x="260" y="683"/>
			<point x="135" y="551"/>
			<point x="111" y="427" type="curve" smooth="yes"/>
			<point x="108" y="408"/>
			<point x="106" y="391"/>
			<point x="106" y="375" type="curve" smooth="yes"/>
			<point x="106" y="279"/>
			<point x="168" y="221"/>
			<point x="295" y="217" type="curve" smooth="yes"/>
			<point x="301" y="217"/>
			<point x="306" y="217"/>
			<point x="312" y="217" type="curve" smooth="yes"/>
			<point x="436" y="217"/>
			<point x="525" y="265"/>
			<point x="622" y="380" type="curve"/>
			<point x="507" y="331" type="line"/>
			<point x="488" y="231"/>
			<point x="471" y="150"/>
			<point x="469" y="95" type="curve" smooth="yes"/>
			<point x="469" y="95"/>
			<point x="469" y="94"/>
			<point x="469" y="94" type="curve" smooth="yes"/>
			<point x="469" y="40"/>
			<point x="505" y="1"/>
			<point x="563" y="-1" type="curve" smooth="yes"/>
			<point x="564" y="-1"/>
			<point x="566" y="-1"/>
			<point x="567" y="-1" type="curve" smooth="yes"/>
			<point x="610" y="-1"/>
			<point x="637" y="21"/>
			<point x="647" y="73" type="curve" smooth="yes"/>
			<point x="653" y="104"/>
			<point x="648" y="141"/>
			<point x="669" y="247" type="curve" smooth="yes"/>
			<point x="679" y="299"/>
			<point x="690" y="352"/>
			<point x="711" y="445" type="curve"/>
			<point x="728" y="486"/>
			<point x="737" y="521"/>
			<point x="737" y="549" type="curve" smooth="yes"/>
			<point x="737" y="602"/>
			<point x="706" y="631"/>
			<point x="643" y="633" type="curve" smooth="yes"/>
			<point x="643" y="633"/>
			<point x="642" y="633"/>
			<point x="641" y="633" type="curve" smooth="yes"/>
			<point x="607" y="633"/>
			<point x="580" y="610"/>
			<point x="572" y="569" type="curve" smooth="yes"/>
			<point x="545" y="428"/>
			<point x="456" y="384"/>
			<point x="344" y="384" type="curve" smooth="yes"/>
			<point x="339" y="384"/>
			<point x="334" y="384"/>
			<point x="328" y="385" type="curve" smooth="yes"/>
			<point x="298" y="386"/>
			<point x="283" y="399"/>
			<point x="283" y="418" type="curve" smooth="yes"/>
			<point x="283" y="421"/>
			<point x="284" y="424"/>
			<point x="284" y="426" type="curve" smooth="yes"/>
			<point x="291" y="461"/>
			<point x="338" y="512"/>
			<point x="444" y="512" type="curve" smooth="yes"/>
			<point x="448" y="512"/>
			<point x="452" y="512"/>
			<point x="456" y="512" type="curve" smooth="yes"/>
			<point x="502" y="510"/>
			<point x="520" y="496"/>
		</contour>
	</outline>
</glyph>
<glyph name="colon.alt2" format="2">
	<unicode hex="003A"/>
	<advance width="320"/>
	<outline>
		<contour>
			<point x="215" y="315" type="curve" smooth="yes"/>
			<point x="217" y="315"/>
			<point x="220" y="315"/>
			<point x="222" y="315" type="curve" smooth="yes"/>
			<point x="294" y="315"/>
			<point x="340" y="355"/>
			<point x="349" y="404" type="curve" smooth="yes"/>
			<point x="351" y="413"/>
			<point x="352" y="421"/>
			<point x="352" y="430" type="curve" smooth="yes"/>
			<point x="352" y="481"/>
			<point x="321" y="525"/>
			<point x="238" y="528" type="curve" smooth="yes"/>
			<point x="236" y="528"/>
			<point x="235" y="528"/>
			<point x="233" y="528" type="curve" smooth="yes"/>
			<point x="177" y="528"/>
			<point x="128" y="496"/>
			<point x="116" y="436" type="curve" smooth="yes"/>
			<point x="114" y="425"/>
			<point x="113" y="415"/>
			<point x="113" y="405" type="curve" smooth="yes"/>
			<point x="113" y="349"/>
			<point x="149" y="317"/>
		</contour>
		<contour>
			<point x="161" y="-14" type="curve" smooth="yes"/>
			<point x="163" y="-14"/>
			<point x="165" y="-14"/>
			<point x="167" y="-14" type="curve" smooth="yes"/>
			<point x="233" y="-14"/>
			<point x="276" y="26"/>
			<point x="286" y="75" type="curve" smooth="yes"/>
			<point x="287" y="84"/>
			<point x="288" y="92"/>
			<point x="288" y="101" type="curve" smooth="yes"/>
			<point x="288" y="152"/>
			<point x="256" y="197"/>
			<point x="171" y="200" type="curve" smooth="yes"/>
			<point x="169" y="200"/>
			<point x="168" y="200"/>
			<point x="166" y="200" type="curve" smooth="yes"/>
			<point x="113" y="200"/>
			<point x="64" y="167"/>
			<point x="53" y="107" type="curve" smooth="yes"/>
			<point x="51" y="97"/>
			<point x="50" y="87"/>
			<point x="50" y="78" type="curve" smooth="yes"/>
			<point x="50" y="20"/>
			<point x="89" y="-12"/>
		</contour>
	</outline>
</glyph>
<glyph name="semicolon.alt2" format="2">
	<unicode hex="003B"/>
	<advance width="319"/>
	<outline>
		<contour>
			<point x="212" y="335" type="curve" smooth="yes"/>
			<point x="214" y="335"/>
			<point x="217" y="335"/>
			<point x="220" y="335" type="curve" smooth="yes"/>
			<point x="299" y="335"/>
			<point x="347" y="375"/>
			<point x="356" y="424" type="curve" smooth="yes"/>
			<point x="357" y="431"/>
			<point x="358" y="439"/>
			<point x="358" y="447" type="curve" smooth="yes"/>
			<point x="358" y="489"/>
			<point x="334" y="525"/>
			<point x="271" y="527" type="curve" smooth="yes"/>
			<point x="268" y="527"/>
			<point x="266" y="527"/>
			<point x="263" y="527" type="curve" smooth="yes"/>
			<point x="193" y="527"/>
			<point x="130" y="492"/>
			<point x="117" y="426" type="curve" smooth="yes"/>
			<point x="116" y="418"/>
			<point x="115" y="411"/>
			<point x="115" y="405" type="curve" smooth="yes"/>
			<point x="115" y="361"/>
			<point x="148" y="337"/>
		</contour>
		<component base="comma" xOffset="-6"/>
	</outline>
</glyph>
<glyph name="question.alt2" format="2">
	<unicode hex="003F"/>
	<advance width="541"/>
	<outline>
		<contour>
			<point x="176" y="685" type="curve" smooth="yes"/>
			<point x="228" y="708"/>
			<point x="304" y="720"/>
			<point x="363" y="720" type="curve" smooth="yes"/>
			<point x="368" y="720"/>
			<point x="373" y="720"/>
			<point x="378" y="720" type="curve" smooth="yes"/>
			<point x="526" y="715"/>
			<point x="603" y="658"/>
			<point x="603" y="563" type="curve" smooth="yes"/>
			<point x="603" y="551"/>
			<point x="602" y="538"/>
			<point x="599" y="524" type="curve" smooth="yes"/>
			<point x="584" y="445"/>
			<point x="524" y="401"/>
			<point x="456" y="374" type="curve" smooth="yes"/>
			<point x="381" y="343"/>
			<point x="366" y="334"/>
			<point x="365" y="325" type="curve" smooth="yes"/>
			<point x="364" y="325"/>
			<point x="364" y="324"/>
			<point x="364" y="324" type="curve" smooth="yes"/>
			<point x="364" y="317"/>
			<point x="374" y="305"/>
			<point x="374" y="289" type="curve" smooth="yes"/>
			<point x="374" y="286"/>
			<point x="373" y="283"/>
			<point x="373" y="281" type="curve" smooth="yes"/>
			<point x="368" y="257"/>
			<point x="343" y="231"/>
			<point x="303" y="231" type="curve" smooth="yes"/>
			<point x="302" y="231"/>
			<point x="301" y="231"/>
			<point x="300" y="231" type="curve" smooth="yes"/>
			<point x="234" y="233"/>
			<point x="198" y="277"/>
			<point x="198" y="330" type="curve" smooth="yes"/>
			<point x="198" y="338"/>
			<point x="198" y="346"/>
			<point x="200" y="354" type="curve" smooth="yes"/>
			<point x="209" y="398"/>
			<point x="242" y="435"/>
			<point x="335" y="469" type="curve" smooth="yes"/>
			<point x="406" y="495"/>
			<point x="416" y="506"/>
			<point x="418" y="520" type="curve" smooth="yes"/>
			<point x="419" y="522"/>
			<point x="419" y="523"/>
			<point x="419" y="524" type="curve" smooth="yes"/>
			<point x="419" y="539"/>
			<point x="402" y="548"/>
			<point x="356" y="550" type="curve" smooth="yes"/>
			<point x="351" y="550"/>
			<point x="346" y="550"/>
			<point x="341" y="550" type="curve" smooth="yes"/>
			<point x="255" y="550"/>
			<point x="223" y="522"/>
			<point x="182" y="522" type="curve" smooth="yes"/>
			<point x="181" y="522"/>
			<point x="180" y="522"/>
			<point x="178" y="522" type="curve" smooth="yes"/>
			<point x="139" y="523"/>
			<point x="110" y="545"/>
			<point x="110" y="587" type="curve" smooth="yes"/>
			<point x="110" y="593"/>
			<point x="111" y="600"/>
			<point x="112" y="608" type="curve" smooth="yes"/>
			<point x="119" y="645"/>
			<point x="140" y="669"/>
		</contour>
		<contour>
			<point x="241" y="-13" type="curve" smooth="yes"/>
			<point x="243" y="-13"/>
			<point x="246" y="-13"/>
			<point x="248" y="-13" type="curve" smooth="yes"/>
			<point x="307" y="-13"/>
			<point x="344" y="17"/>
			<point x="353" y="64" type="curve" smooth="yes"/>
			<point x="354" y="70"/>
			<point x="355" y="76"/>
			<point x="355" y="82" type="curve" smooth="yes"/>
			<point x="355" y="125"/>
			<point x="324" y="163"/>
			<point x="253" y="166" type="curve" smooth="yes"/>
			<point x="251" y="166"/>
			<point x="249" y="166"/>
			<point x="248" y="166" type="curve" smooth="yes"/>
			<point x="197" y="166"/>
			<point x="158" y="138"/>
			<point x="147" y="80" type="curve" smooth="yes"/>
			<point x="146" y="73"/>
			<point x="145" y="67"/>
			<point x="145" y="61" type="curve" smooth="yes"/>
			<point x="145" y="16"/>
			<point x="180" y="-11"/>
		</contour>
	</outline>
</glyph>
<glyph name="A.alt1" format="2">
	<unicode hex="0041"/>
	<advance width="780"/>
	<outline>
		<contour>
			<point x="661" y="-37" type="curve" smooth="yes"/>
			<point x="663" y="-37"/>
			<point x="664" y="-37"/>
			<point x="666" y="-37" type="curve" smooth="yes"/>
			<point x="705" y="-37"/>
			<point x="731" y="-18"/>
			<point x="738" y="19" type="curve" smooth="yes"/>
			<point x="739" y="25"/>
			<point x="740" y="32"/>
			<point x="740" y="38" type="curve" smooth="yes"/>
			<point x="740" y="90"/>
			<point x="707" y="153"/>
			<point x="707" y="280" type="curve" smooth="yes"/>
			<point x="707" y="302"/>
			<point x="708" y="326"/>
			<point x="711" y="353" type="curve" smooth="yes"/>
			<point x="714" y="396"/>
			<point x="716" y="435"/>
			<point x="716" y="469" type="curve" smooth="yes"/>
			<point x="716" y="624"/>
			<point x="676" y="690"/>
			<point x="556" y="694" type="curve" smooth="yes"/>
			<point x="553" y="694"/>
			<point x="551" y="694"/>
			<point x="549" y="694" type="curve" smooth="yes"/>
			<point x="455" y="694"/>
			<point x="357" y="628"/>
			<point x="289" y="533" type="curve"/>
			<point x="361" y="554" type="line"/>
			<point x="330" y="590"/>
			<point x="310" y="606"/>
			<point x="282" y="607" type="curve" smooth="yes"/>
			<point x="280" y="607"/>
			<point x="279" y="607"/>
			<point x="278" y="607" type="curve" smooth="yes"/>
			<point x="246" y="607"/>
			<point x="230" y="592"/>
			<point x="225" y="568" type="curve" smooth="yes"/>
			<point x="201" y="442"/>
			<point x="132" y="337"/>
			<point x="100" y="171" type="curve" smooth="yes"/>
			<point x="97" y="152"/>
			<point x="95" y="135"/>
			<point x="95" y="119" type="curve" smooth="yes"/>
			<point x="95" y="44"/>
			<point x="132" y="1"/>
			<point x="172" y="-1" type="curve" smooth="yes"/>
			<point x="175" y="-1"/>
			<point x="178" y="-1"/>
			<point x="181" y="-1" type="curve" smooth="yes"/>
			<point x="216" y="-1"/>
			<point x="236" y="19"/>
			<point x="249" y="62" type="curve" smooth="yes"/>
			<point x="340" y="347"/>
			<point x="455" y="521"/>
			<point x="513" y="521" type="curve" smooth="yes"/>
			<point x="513" y="521"/>
			<point x="514" y="521"/>
			<point x="514" y="521" type="curve" smooth="yes"/>
			<point x="526" y="521"/>
			<point x="534" y="517"/>
			<point x="534" y="468" type="curve" smooth="yes"/>
			<point x="534" y="445"/>
			<point x="533" y="411"/>
			<point x="529" y="364" type="curve" smooth="yes"/>
			<point x="525" y="315"/>
			<point x="521" y="261"/>
			<point x="521" y="209" type="curve" smooth="yes"/>
			<point x="521" y="143"/>
			<point x="528" y="80"/>
			<point x="551" y="36" type="curve" smooth="yes"/>
			<point x="580" y="-17"/>
			<point x="610" y="-35"/>
		</contour>
		<contour>
			<point x="155" y="169" type="curve" smooth="yes"/>
			<point x="163" y="168"/>
			<point x="171" y="168"/>
			<point x="181" y="168" type="curve" smooth="yes"/>
			<point x="276" y="168"/>
			<point x="423" y="191"/>
			<point x="589" y="191" type="curve" smooth="yes"/>
			<point x="608" y="191"/>
			<point x="628" y="190"/>
			<point x="648" y="190" type="curve" smooth="yes"/>
			<point x="650" y="190"/>
			<point x="652" y="190"/>
			<point x="654" y="190" type="curve" smooth="yes"/>
			<point x="720" y="190"/>
			<point x="783" y="232"/>
			<point x="796" y="297" type="curve" smooth="yes"/>
			<point x="798" y="305"/>
			<point x="798" y="312"/>
			<point x="798" y="318" type="curve" smooth="yes"/>
			<point x="798" y="351"/>
			<point x="771" y="360"/>
			<point x="658" y="364" type="curve" smooth="yes"/>
			<point x="625" y="366"/>
			<point x="593" y="366"/>
			<point x="562" y="366" type="curve" smooth="yes"/>
			<point x="392" y="366"/>
			<point x="236" y="349"/>
			<point x="99" y="304" type="curve" smooth="yes"/>
			<point x="73" y="295"/>
			<point x="59" y="283"/>
			<point x="55" y="261" type="curve" smooth="yes"/>
			<point x="54" y="256"/>
			<point x="53" y="252"/>
			<point x="53" y="248" type="curve" smooth="yes"/>
			<point x="53" y="203"/>
			<point x="101" y="171"/>
		</contour>
	</outline>
	<anchor name="top" x="424" y="685"/>
	<anchor name="bottom" x="424" y="0"/>
	<anchor name="ring" x="424" y="683"/>
	<anchor name="ogonek" x="708" y="-14"/>
</glyph>
<glyph name="A.alt2" format="2">
	<unicode hex="0041"/>
	<advance width="780"/>
	<outline>
		<contour>
			<point x="663" y="-54" type="curve" smooth="yes"/>
			<point x="664" y="-54"/>
			<point x="666" y="-54"/>
			<point x="667" y="-54" type="curve" smooth="yes"/>
			<point x="706" y="-54"/>
			<point x="732" y="-35"/>
			<point x="739" y="1" type="curve" smooth="yes"/>
			<point x="741" y="9"/>
			<point x="741" y="16"/>
			<point x="741" y="23" type="curve" smooth="yes"/>
			<point x="741" y="78"/>
			<point x="709" y="145"/>
			<point x="709" y="280" type="curve" smooth="yes"/>
			<point x="709" y="303"/>
			<point x="710" y="329"/>
			<point x="712" y="358" type="curve" smooth="yes"/>
			<point x="715" y="395"/>
			<point x="717" y="429"/>
			<point x="717" y="459" type="curve" smooth="yes"/>
			<point x="717" y="611"/>
			<point x="676" y="675"/>
			<point x="553" y="679" type="curve" smooth="yes"/>
			<point x="551" y="679"/>
			<point x="549" y="679"/>
			<point x="546" y="679" type="curve" smooth="yes"/>
			<point x="453" y="679"/>
			<point x="354" y="613"/>
			<point x="285" y="516" type="curve"/>
			<point x="359" y="538" type="line"/>
			<point x="328" y="574"/>
			<point x="308" y="590"/>
			<point x="279" y="591" type="curve" smooth="yes"/>
			<point x="278" y="591"/>
			<point x="277" y="591"/>
			<point x="275" y="591" type="curve" smooth="yes"/>
			<point x="244" y="591"/>
			<point x="227" y="576"/>
			<point x="222" y="552" type="curve" smooth="yes"/>
			<point x="199" y="431"/>
			<point x="131" y="330"/>
			<point x="101" y="171" type="curve" smooth="yes"/>
			<point x="97" y="152"/>
			<point x="96" y="135"/>
			<point x="96" y="119" type="curve" smooth="yes"/>
			<point x="96" y="44"/>
			<point x="132" y="1"/>
			<point x="173" y="-1" type="curve" smooth="yes"/>
			<point x="176" y="-1"/>
			<point x="179" y="-1"/>
			<point x="181" y="-1" type="curve" smooth="yes"/>
			<point x="216" y="-1"/>
			<point x="237" y="19"/>
			<point x="250" y="62" type="curve" smooth="yes"/>
			<point x="338" y="338"/>
			<point x="453" y="506"/>
			<point x="511" y="506" type="curve" smooth="yes"/>
			<point x="511" y="506"/>
			<point x="511" y="506"/>
			<point x="512" y="506" type="curve" smooth="yes"/>
			<point x="525" y="506"/>
			<point x="534" y="503"/>
			<point x="534" y="450" type="curve" smooth="yes"/>
			<point x="534" y="430"/>
			<point x="533" y="404"/>
			<point x="530" y="369" type="curve" smooth="yes"/>
			<point x="526" y="314"/>
			<point x="521" y="252"/>
			<point x="521" y="193" type="curve" smooth="yes"/>
			<point x="521" y="127"/>
			<point x="528" y="64"/>
			<point x="553" y="19" type="curve" smooth="yes"/>
			<point x="581" y="-34"/>
			<point x="611" y="-52"/>
		</contour>
		<contour>
			<point x="155" y="169" type="curve" smooth="yes"/>
			<point x="163" y="168"/>
			<point x="172" y="168"/>
			<point x="181" y="168" type="curve" smooth="yes"/>
			<point x="277" y="168"/>
			<point x="424" y="191"/>
			<point x="589" y="191" type="curve" smooth="yes"/>
			<point x="609" y="191"/>
			<point x="629" y="190"/>
			<point x="649" y="190" type="curve" smooth="yes"/>
			<point x="651" y="190"/>
			<point x="652" y="190"/>
			<point x="654" y="190" type="curve" smooth="yes"/>
			<point x="721" y="190"/>
			<point x="784" y="232"/>
			<point x="797" y="297" type="curve" smooth="yes"/>
			<point x="798" y="305"/>
			<point x="799" y="312"/>
			<point x="799" y="318" type="curve" smooth="yes"/>
			<point x="799" y="351"/>
			<point x="772" y="360"/>
			<point x="658" y="364" type="curve" smooth="yes"/>
			<point x="626" y="366"/>
			<point x="594" y="366"/>
			<point x="562" y="366" type="curve" smooth="yes"/>
			<point x="393" y="366"/>
			<point x="236" y="349"/>
			<point x="99" y="304" type="curve" smooth="yes"/>
			<point x="74" y="295"/>
			<point x="59" y="283"/>
			<point x="55" y="261" type="curve" smooth="yes"/>
			<point x="54" y="256"/>
			<point x="54" y="252"/>
			<point x="54" y="248" type="curve" smooth="yes"/>
			<point x="54" y="203"/>
			<point x="102" y="171"/>
		</contour>
	</outline>
	<anchor name="top" x="424" y="670"/>
	<anchor name="bottom" x="424" y="0"/>
	<anchor name="ring" x="424" y="668"/>
	<anchor name="ogonek" x="713" y="-28"/>
</glyph>
<glyph name="A" format="2">
	<unicode hex="0041"/>
	<advance width="780"/>
	<outline>
		<contour>
			<point x="663" y="-71" type="curve" smooth="yes"/>
			<point x="664" y="-71"/>
			<point x="666" y="-71"/>
			<point x="667" y="-71" type="curve" smooth="yes"/>
			<point x="707" y="-71"/>
			<point x="733" y="-52"/>
			<point x="740" y="-16" type="curve" smooth="yes"/>
			<point x="741" y="-8"/>
			<point x="742" y="1"/>
			<point x="742" y="9" type="curve" smooth="yes"/>
			<point x="742" y="67"/>
			<point x="710" y="137"/>
			<point x="710" y="277" type="curve" smooth="yes"/>
			<point x="710" y="303"/>
			<point x="711" y="331"/>
			<point x="714" y="363" type="curve" smooth="yes"/>
			<point x="716" y="395"/>
			<point x="718" y="425"/>
			<point x="718" y="451" type="curve" smooth="yes"/>
			<point x="718" y="598"/>
			<point x="675" y="660"/>
			<point x="551" y="664" type="curve" smooth="yes"/>
			<point x="549" y="664"/>
			<point x="546" y="664"/>
			<point x="544" y="664" type="curve" smooth="yes"/>
			<point x="450" y="664"/>
			<point x="351" y="597"/>
			<point x="281" y="499" type="curve"/>
			<point x="356" y="522" type="line"/>
			<point x="325" y="558"/>
			<point x="305" y="574"/>
			<point x="276" y="575" type="curve" smooth="yes"/>
			<point x="275" y="575"/>
			<point x="274" y="575"/>
			<point x="273" y="575" type="curve" smooth="yes"/>
			<point x="241" y="575"/>
			<point x="225" y="560"/>
			<point x="220" y="536" type="curve" smooth="yes"/>
			<point x="197" y="420"/>
			<point x="131" y="323"/>
			<point x="101" y="171" type="curve" smooth="yes"/>
			<point x="98" y="152"/>
			<point x="96" y="135"/>
			<point x="96" y="120" type="curve" smooth="yes"/>
			<point x="96" y="45"/>
			<point x="133" y="1"/>
			<point x="173" y="-1" type="curve" smooth="yes"/>
			<point x="176" y="-1"/>
			<point x="179" y="-1"/>
			<point x="182" y="-1" type="curve" smooth="yes"/>
			<point x="217" y="-1"/>
			<point x="237" y="19"/>
			<point x="250" y="62" type="curve" smooth="yes"/>
			<point x="335" y="328"/>
			<point x="450" y="491"/>
			<point x="508" y="491" type="curve" smooth="yes"/>
			<point x="509" y="491"/>
			<point x="509" y="491"/>
			<point x="509" y="491" type="curve" smooth="yes"/>
			<point x="523" y="491"/>
			<point x="535" y="488"/>
			<point x="535" y="433" type="curve" smooth="yes"/>
			<point x="535" y="418"/>
			<point x="534" y="399"/>
			<point x="532" y="374" type="curve" smooth="yes"/>
			<point x="527" y="313"/>
			<point x="521" y="244"/>
			<point x="521" y="179" type="curve" smooth="yes"/>
			<point x="521" y="111"/>
			<point x="528" y="47"/>
			<point x="553" y="2" type="curve" smooth="yes"/>
			<point x="582" y="-51"/>
			<point x="611" y="-70"/>
		</contour>
		<contour>
			<point x="156" y="169" type="curve" smooth="yes"/>
			<point x="164" y="168"/>
			<point x="173" y="168"/>
			<point x="182" y="168" type="curve" smooth="yes"/>
			<point x="277" y="168"/>
			<point x="424" y="191"/>
			<point x="590" y="191" type="curve" smooth="yes"/>
			<point x="609" y="191"/>
			<point x="629" y="190"/>
			<point x="649" y="190" type="curve" smooth="yes"/>
			<point x="651" y="190"/>
			<point x="653" y="190"/>
			<point x="655" y="190" type="curve" smooth="yes"/>
			<point x="721" y="190"/>
			<point x="785" y="232"/>
			<point x="797" y="297" type="curve" smooth="yes"/>
			<point x="799" y="305"/>
			<point x="800" y="312"/>
			<point x="800" y="318" type="curve" smooth="yes"/>
			<point x="800" y="351"/>
			<point x="772" y="360"/>
			<point x="659" y="364" type="curve" smooth="yes"/>
			<point x="627" y="366"/>
			<point x="594" y="366"/>
			<point x="563" y="366" type="curve" smooth="yes"/>
			<point x="393" y="366"/>
			<point x="237" y="349"/>
			<point x="100" y="304" type="curve" smooth="yes"/>
			<point x="74" y="295"/>
			<point x="60" y="283"/>
			<point x="56" y="261" type="curve" smooth="yes"/>
			<point x="55" y="257"/>
			<point x="54" y="252"/>
			<point x="54" y="248" type="curve" smooth="yes"/>
			<point x="54" y="203"/>
			<point x="102" y="171"/>
		</contour>
	</outline>
	<anchor name="top" x="424" y="655"/>
	<anchor name="bottom" x="424" y="0"/>
	<anchor name="ring" x="424" y="652"/>
	<anchor name="ogonek" x="719" y="-43"/>
</glyph>
<glyph name="B" format="2">
	<unicode hex="0042"/>
	<advance width="633"/>
	<outline>
		<contour>
			<point x="285" y="360" type="curve" smooth="yes"/>
			<point x="302" y="450"/>
			<point x="310" y="487"/>
			<point x="336" y="577" type="curve" smooth="yes"/>
			<point x="338" y="585"/>
			<point x="339" y="593"/>
			<point x="339" y="600" type="curve" smooth="yes"/>
			<point x="339" y="638"/>
			<point x="312" y="673"/>
			<point x="268" y="674" type="curve" smooth="yes"/>
			<point x="268" y="674"/>
			<point x="267" y="674"/>
			<point x="267" y="674" type="curve" smooth="yes"/>
			<point x="243" y="674"/>
			<point x="208" y="659"/>
			<point x="193" y="627" type="curve" smooth="yes"/>
			<point x="146" y="522"/>
			<point x="133" y="470"/>
			<point x="110" y="350" type="curve" smooth="yes"/>
			<point x="101" y="306"/>
			<point x="97" y="263"/>
			<point x="97" y="222" type="curve" smooth="yes"/>
			<point x="97" y="89"/>
			<point x="144" y="-15"/>
			<point x="241" y="-18" type="curve" smooth="yes"/>
			<point x="245" y="-18"/>
			<point x="249" y="-18"/>
			<point x="254" y="-18" type="curve" smooth="yes"/>
			<point x="379" y="-18"/>
			<point x="559" y="43"/>
			<point x="592" y="213" type="curve" smooth="yes"/>
			<point x="594" y="224"/>
			<point x="595" y="234"/>
			<point x="595" y="245" type="curve" smooth="yes"/>
			<point x="595" y="311"/>
			<point x="553" y="376"/>
			<point x="429" y="395" type="curve"/>
			<point x="427" y="340" type="line"/>
			<point x="619" y="399"/>
			<point x="669" y="480"/>
			<point x="682" y="545" type="curve" smooth="yes"/>
			<point x="684" y="557"/>
			<point x="685" y="569"/>
			<point x="685" y="580" type="curve" smooth="yes"/>
			<point x="685" y="704"/>
			<point x="540" y="748"/>
			<point x="345" y="755" type="curve" smooth="yes"/>
			<point x="338" y="755"/>
			<point x="331" y="755"/>
			<point x="325" y="755" type="curve" smooth="yes"/>
			<point x="203" y="755"/>
			<point x="152" y="714"/>
			<point x="138" y="639" type="curve" smooth="yes"/>
			<point x="136" y="633"/>
			<point x="136" y="627"/>
			<point x="136" y="622" type="curve" smooth="yes"/>
			<point x="136" y="592"/>
			<point x="153" y="573"/>
			<point x="189" y="571" type="curve" smooth="yes"/>
			<point x="191" y="571"/>
			<point x="195" y="571"/>
			<point x="198" y="571" type="curve" smooth="yes"/>
			<point x="215" y="571"/>
			<point x="240" y="572"/>
			<point x="266" y="572" type="curve" smooth="yes"/>
			<point x="279" y="572"/>
			<point x="291" y="572"/>
			<point x="304" y="571" type="curve" smooth="yes"/>
			<point x="472" y="566"/>
			<point x="499" y="558"/>
			<point x="499" y="536" type="curve" smooth="yes"/>
			<point x="499" y="533"/>
			<point x="499" y="530"/>
			<point x="498" y="527" type="curve" smooth="yes"/>
			<point x="490" y="485"/>
			<point x="281" y="421"/>
			<point x="225" y="408" type="curve" smooth="yes"/>
			<point x="203" y="403"/>
			<point x="180" y="376"/>
			<point x="175" y="353" type="curve" smooth="yes"/>
			<point x="174" y="344"/>
			<point x="173" y="336"/>
			<point x="173" y="329" type="curve" smooth="yes"/>
			<point x="173" y="292"/>
			<point x="191" y="268"/>
			<point x="222" y="267" type="curve" smooth="yes"/>
			<point x="356" y="266"/>
			<point x="420" y="251"/>
			<point x="420" y="210" type="curve" smooth="yes"/>
			<point x="420" y="207"/>
			<point x="420" y="204"/>
			<point x="419" y="201" type="curve" smooth="yes"/>
			<point x="417" y="188"/>
			<point x="324" y="153"/>
			<point x="285" y="153" type="curve" smooth="yes"/>
			<point x="284" y="153"/>
			<point x="283" y="153"/>
			<point x="283" y="153" type="curve" smooth="yes"/>
			<point x="276" y="153"/>
			<point x="267" y="169"/>
			<point x="267" y="214" type="curve" smooth="yes"/>
			<point x="267" y="246"/>
			<point x="272" y="293"/>
		</contour>
	</outline>
	<anchor name="top" x="317" y="741"/>
	<anchor name="bottom" x="274" y="-11"/>
</glyph>
<glyph name="C.alt1" format="2">
	<unicode hex="0043"/>
	<advance width="682"/>
	<outline>
		<contour>
			<point x="344" y="9" type="curve" smooth="yes"/>
			<point x="352" y="9"/>
			<point x="360" y="9"/>
			<point x="368" y="9" type="curve" smooth="yes"/>
			<point x="527" y="9"/>
			<point x="616" y="67"/>
			<point x="633" y="155" type="curve" smooth="yes"/>
			<point x="635" y="164"/>
			<point x="636" y="172"/>
			<point x="636" y="179" type="curve" smooth="yes"/>
			<point x="636" y="207"/>
			<point x="624" y="227"/>
			<point x="603" y="228" type="curve" smooth="yes"/>
			<point x="603" y="228"/>
			<point x="603" y="228"/>
			<point x="602" y="228" type="curve" smooth="yes"/>
			<point x="571" y="228"/>
			<point x="503" y="176"/>
			<point x="398" y="176" type="curve" smooth="yes"/>
			<point x="394" y="176"/>
			<point x="391" y="176"/>
			<point x="387" y="176" type="curve" smooth="yes"/>
			<point x="306" y="179"/>
			<point x="257" y="209"/>
			<point x="257" y="265" type="curve" smooth="yes"/>
			<point x="257" y="272"/>
			<point x="258" y="279"/>
			<point x="259" y="286" type="curve" smooth="yes"/>
			<point x="278" y="384"/>
			<point x="382" y="488"/>
			<point x="494" y="488" type="curve" smooth="yes"/>
			<point x="496" y="488"/>
			<point x="498" y="488"/>
			<point x="500" y="488" type="curve" smooth="yes"/>
			<point x="521" y="487"/>
			<point x="528" y="482"/>
			<point x="528" y="472" type="curve" smooth="yes"/>
			<point x="528" y="469"/>
			<point x="527" y="466"/>
			<point x="527" y="463" type="curve" smooth="yes"/>
			<point x="526" y="460"/>
			<point x="526" y="457"/>
			<point x="526" y="454" type="curve" smooth="yes"/>
			<point x="526" y="438"/>
			<point x="535" y="427"/>
			<point x="555" y="427" type="curve" smooth="yes"/>
			<point x="556" y="426"/>
			<point x="557" y="426"/>
			<point x="558" y="426" type="curve" smooth="yes"/>
			<point x="621" y="426"/>
			<point x="676" y="497"/>
			<point x="690" y="567" type="curve" smooth="yes"/>
			<point x="691" y="575"/>
			<point x="692" y="583"/>
			<point x="692" y="591" type="curve" smooth="yes"/>
			<point x="692" y="639"/>
			<point x="659" y="670"/>
			<point x="577" y="673" type="curve" smooth="yes"/>
			<point x="573" y="673"/>
			<point x="568" y="673"/>
			<point x="564" y="673" type="curve" smooth="yes"/>
			<point x="352" y="673"/>
			<point x="125" y="496"/>
			<point x="87" y="300" type="curve" smooth="yes"/>
			<point x="83" y="279"/>
			<point x="81" y="259"/>
			<point x="81" y="240" type="curve" smooth="yes"/>
			<point x="81" y="108"/>
			<point x="174" y="15"/>
		</contour>
	</outline>
	<anchor name="top" x="392" y="666"/>
	<anchor name="bottom" x="352" y="21"/>
</glyph>
<glyph name="C" format="2">
	<unicode hex="0043"/>
	<advance width="682"/>
	<outline>
		<contour>
			<point x="325" y="50" type="curve" smooth="yes"/>
			<point x="333" y="49"/>
			<point x="341" y="49"/>
			<point x="348" y="49" type="curve" smooth="yes"/>
			<point x="501" y="49"/>
			<point x="587" y="105"/>
			<point x="603" y="189" type="curve" smooth="yes"/>
			<point x="605" y="197"/>
			<point x="606" y="205"/>
			<point x="606" y="213" type="curve" smooth="yes"/>
			<point x="606" y="241"/>
			<point x="594" y="260"/>
			<point x="573" y="261" type="curve" smooth="yes"/>
			<point x="573" y="261"/>
			<point x="572" y="261"/>
			<point x="572" y="261" type="curve" smooth="yes"/>
			<point x="542" y="261"/>
			<point x="478" y="216"/>
			<point x="380" y="216" type="curve" smooth="yes"/>
			<point x="376" y="216"/>
			<point x="372" y="216"/>
			<point x="368" y="216" type="curve" smooth="yes"/>
			<point x="301" y="218"/>
			<point x="261" y="242"/>
			<point x="261" y="285" type="curve" smooth="yes"/>
			<point x="261" y="290"/>
			<point x="261" y="295"/>
			<point x="262" y="300" type="curve" smooth="yes"/>
			<point x="274" y="361"/>
			<point x="338" y="423"/>
			<point x="407" y="423" type="curve" smooth="yes"/>
			<point x="409" y="423"/>
			<point x="410" y="423"/>
			<point x="411" y="423" type="curve" smooth="yes"/>
			<point x="432" y="422"/>
			<point x="438" y="417"/>
			<point x="438" y="407" type="curve" smooth="yes"/>
			<point x="438" y="404"/>
			<point x="438" y="401"/>
			<point x="437" y="398" type="curve" smooth="yes"/>
			<point x="437" y="395"/>
			<point x="437" y="392"/>
			<point x="437" y="389" type="curve" smooth="yes"/>
			<point x="437" y="374"/>
			<point x="446" y="362"/>
			<point x="465" y="362" type="curve" smooth="yes"/>
			<point x="466" y="362"/>
			<point x="467" y="362"/>
			<point x="468" y="362" type="curve" smooth="yes"/>
			<point x="532" y="362"/>
			<point x="587" y="432"/>
			<point x="601" y="502" type="curve" smooth="yes"/>
			<point x="602" y="510"/>
			<point x="603" y="518"/>
			<point x="603" y="526" type="curve" smooth="yes"/>
			<point x="603" y="574"/>
			<point x="570" y="605"/>
			<point x="488" y="608" type="curve" smooth="yes"/>
			<point x="485" y="608"/>
			<point x="481" y="608"/>
			<point x="477" y="608" type="curve" smooth="yes"/>
			<point x="304" y="608"/>
			<point x="119" y="462"/>
			<point x="88" y="301" type="curve" smooth="yes"/>
			<point x="84" y="284"/>
			<point x="83" y="268"/>
			<point x="83" y="252" type="curve" smooth="yes"/>
			<point x="83" y="137"/>
			<point x="169" y="55"/>
		</contour>
	</outline>
	<anchor name="top" x="354" y="596"/>
	<anchor name="bottom" x="328" y="64"/>
</glyph>
<glyph name="D.alt1" format="2">
	<unicode hex="0044"/>
	<advance width="717"/>
	<outline>
		<contour>
			<point x="215" y="1" type="curve" smooth="yes"/>
			<point x="218" y="1"/>
			<point x="222" y="1"/>
			<point x="225" y="1" type="curve" smooth="yes"/>
			<point x="432" y="1"/>
			<point x="700" y="226"/>
			<point x="742" y="444" type="curve" smooth="yes"/>
			<point x="745" y="461"/>
			<point x="747" y="478"/>
			<point x="747" y="494" type="curve" smooth="yes"/>
			<point x="747" y="608"/>
			<point x="664" y="692"/>
			<point x="508" y="697" type="curve" smooth="yes"/>
			<point x="501" y="697"/>
			<point x="494" y="698"/>
			<point x="487" y="698" type="curve" smooth="yes"/>
			<point x="358" y="698"/>
			<point x="176" y="659"/>
			<point x="138" y="628" type="curve" smooth="yes"/>
			<point x="123" y="615"/>
			<point x="119" y="606"/>
			<point x="116" y="589" type="curve" smooth="yes"/>
			<point x="115" y="584"/>
			<point x="114" y="579"/>
			<point x="114" y="574" type="curve" smooth="yes"/>
			<point x="114" y="523"/>
			<point x="165" y="482"/>
			<point x="229" y="480" type="curve" smooth="yes"/>
			<point x="231" y="480"/>
			<point x="232" y="480"/>
			<point x="233" y="480" type="curve" smooth="yes"/>
			<point x="286" y="480"/>
			<point x="344" y="521"/>
			<point x="455" y="521" type="curve" smooth="yes"/>
			<point x="460" y="521"/>
			<point x="465" y="521"/>
			<point x="470" y="520" type="curve" smooth="yes"/>
			<point x="545" y="518"/>
			<point x="568" y="500"/>
			<point x="568" y="465" type="curve" smooth="yes"/>
			<point x="568" y="458"/>
			<point x="567" y="450"/>
			<point x="565" y="442" type="curve" smooth="yes"/>
			<point x="535" y="284"/>
			<point x="389" y="214"/>
			<point x="190" y="158" type="curve"/>
			<point x="283" y="119" type="line"/>
			<point x="287" y="160"/>
			<point x="289" y="193"/>
			<point x="294" y="216" type="curve" smooth="yes"/>
			<point x="305" y="273"/>
			<point x="344" y="424"/>
			<point x="363" y="521" type="curve" smooth="yes"/>
			<point x="363" y="525"/>
			<point x="364" y="529"/>
			<point x="364" y="533" type="curve" smooth="yes"/>
			<point x="364" y="568"/>
			<point x="334" y="595"/>
			<point x="291" y="596" type="curve" smooth="yes"/>
			<point x="288" y="596"/>
			<point x="284" y="596"/>
			<point x="281" y="596" type="curve" smooth="yes"/>
			<point x="227" y="596"/>
			<point x="203" y="580"/>
			<point x="192" y="540" type="curve" smooth="yes"/>
			<point x="160" y="421"/>
			<point x="135" y="315"/>
			<point x="110" y="190" type="curve" smooth="yes"/>
			<point x="108" y="176"/>
			<point x="106" y="162"/>
			<point x="106" y="148" type="curve" smooth="yes"/>
			<point x="106" y="72"/>
			<point x="146" y="4"/>
		</contour>
	</outline>
	<anchor name="top" x="380" y="688"/>
	<anchor name="bottom" x="238" y="8"/>
</glyph>
<glyph name="D.alt2" format="2">
	<unicode hex="0044"/>
	<advance width="717"/>
	<outline>
		<contour>
			<point x="216" y="7" type="curve" smooth="yes"/>
			<point x="219" y="7"/>
			<point x="223" y="7"/>
			<point x="226" y="7" type="curve" smooth="yes"/>
			<point x="429" y="7"/>
			<point x="690" y="226"/>
			<point x="731" y="438" type="curve" smooth="yes"/>
			<point x="734" y="455"/>
			<point x="736" y="472"/>
			<point x="736" y="488" type="curve" smooth="yes"/>
			<point x="736" y="600"/>
			<point x="655" y="682"/>
			<point x="506" y="687" type="curve" smooth="yes"/>
			<point x="499" y="688"/>
			<point x="491" y="688"/>
			<point x="484" y="688" type="curve" smooth="yes"/>
			<point x="360" y="688"/>
			<point x="187" y="655"/>
			<point x="151" y="627" type="curve" smooth="yes"/>
			<point x="136" y="615"/>
			<point x="132" y="606"/>
			<point x="129" y="589" type="curve" smooth="yes"/>
			<point x="128" y="584"/>
			<point x="127" y="579"/>
			<point x="127" y="574" type="curve" smooth="yes"/>
			<point x="127" y="523"/>
			<point x="178" y="481"/>
			<point x="242" y="479" type="curve" smooth="yes"/>
			<point x="244" y="479"/>
			<point x="245" y="479"/>
			<point x="246" y="479" type="curve" smooth="yes"/>
			<point x="295" y="479"/>
			<point x="346" y="511"/>
			<point x="446" y="511" type="curve" smooth="yes"/>
			<point x="451" y="511"/>
			<point x="457" y="511"/>
			<point x="463" y="511" type="curve" smooth="yes"/>
			<point x="535" y="508"/>
			<point x="557" y="491"/>
			<point x="557" y="458" type="curve" smooth="yes"/>
			<point x="557" y="451"/>
			<point x="556" y="444"/>
			<point x="554" y="436" type="curve" smooth="yes"/>
			<point x="525" y="284"/>
			<point x="384" y="219"/>
			<point x="192" y="164" type="curve"/>
			<point x="284" y="125" type="line"/>
			<point x="288" y="166"/>
			<point x="290" y="199"/>
			<point x="295" y="222" type="curve" smooth="yes"/>
			<point x="306" y="279"/>
			<point x="344" y="426"/>
			<point x="363" y="521" type="curve" smooth="yes"/>
			<point x="363" y="525"/>
			<point x="364" y="529"/>
			<point x="364" y="533" type="curve" smooth="yes"/>
			<point x="364" y="568"/>
			<point x="334" y="595"/>
			<point x="291" y="596" type="curve" smooth="yes"/>
			<point x="288" y="596"/>
			<point x="284" y="596"/>
			<point x="281" y="596" type="curve" smooth="yes"/>
			<point x="227" y="596"/>
			<point x="203" y="580"/>
			<point x="192" y="540" type="curve" smooth="yes"/>
			<point x="160" y="423"/>
			<point x="135" y="319"/>
			<point x="112" y="196" type="curve" smooth="yes"/>
			<point x="109" y="182"/>
			<point x="108" y="168"/>
			<point x="108" y="154" type="curve" smooth="yes"/>
			<point x="108" y="78"/>
			<point x="147" y="10"/>
		</contour>
	</outline>
	<anchor name="top" x="380" y="676"/>
	<anchor name="bottom" x="241" y="15"/>
</glyph>
<glyph name="F.alt1" format="2">
	<unicode hex="0046"/>
	<advance width="604"/>
	<outline>
		<contour>
			<point x="302" y="271" type="curve" smooth="yes"/>
			<point x="333" y="429"/>
			<point x="361" y="515"/>
			<point x="368" y="548" type="curve" smooth="yes"/>
			<point x="369" y="552"/>
			<point x="369" y="556"/>
			<point x="369" y="560" type="curve" smooth="yes"/>
			<point x="369" y="583"/>
			<point x="351" y="588"/>
			<point x="309" y="590" type="curve" smooth="yes"/>
			<point x="307" y="590"/>
			<point x="305" y="590"/>
			<point x="303" y="590" type="curve" smooth="yes"/>
			<point x="252" y="590"/>
			<point x="216" y="565"/>
			<point x="187" y="491" type="curve" smooth="yes"/>
			<point x="163" y="432"/>
			<point x="151" y="388"/>
			<point x="134" y="301" type="curve" smooth="yes"/>
			<point x="123" y="245"/>
			<point x="118" y="195"/>
			<point x="118" y="153" type="curve" smooth="yes"/>
			<point x="118" y="100"/>
			<point x="126" y="60"/>
			<point x="143" y="35" type="curve" smooth="yes"/>
			<point x="171" y="-13"/>
			<point x="224" y="-27"/>
			<point x="259" y="-28" type="curve" smooth="yes"/>
			<point x="262" y="-28"/>
			<point x="264" y="-28"/>
			<point x="266" y="-28" type="curve" smooth="yes"/>
			<point x="307" y="-28"/>
			<point x="322" y="-14"/>
			<point x="328" y="16" type="curve" smooth="yes"/>
			<point x="329" y="19"/>
			<point x="329" y="22"/>
			<point x="329" y="25" type="curve" smooth="yes"/>
			<point x="329" y="61"/>
			<point x="293" y="95"/>
			<point x="293" y="186" type="curve" smooth="yes"/>
			<point x="293" y="210"/>
			<point x="296" y="238"/>
		</contour>
		<contour>
			<point x="610" y="535" type="curve" smooth="yes"/>
			<point x="611" y="535"/>
			<point x="612" y="535"/>
			<point x="613" y="535" type="curve" smooth="yes"/>
			<point x="643" y="535"/>
			<point x="657" y="551"/>
			<point x="664" y="588" type="curve" smooth="yes"/>
			<point x="665" y="595"/>
			<point x="666" y="602"/>
			<point x="666" y="609" type="curve" smooth="yes"/>
			<point x="666" y="668"/>
			<point x="613" y="707"/>
			<point x="547" y="713" type="curve" smooth="yes"/>
			<point x="531" y="715"/>
			<point x="514" y="715"/>
			<point x="497" y="715" type="curve" smooth="yes"/>
			<point x="392" y="715"/>
			<point x="269" y="691"/>
			<point x="184" y="672" type="curve" smooth="yes"/>
			<point x="145" y="664"/>
			<point x="127" y="638"/>
			<point x="123" y="617" type="curve" smooth="yes"/>
			<point x="122" y="612"/>
			<point x="122" y="607"/>
			<point x="122" y="602" type="curve" smooth="yes"/>
			<point x="122" y="559"/>
			<point x="157" y="511"/>
			<point x="243" y="508" type="curve" smooth="yes"/>
			<point x="244" y="508"/>
			<point x="245" y="508"/>
			<point x="246" y="508" type="curve" smooth="yes"/>
			<point x="286" y="508"/>
			<point x="385" y="536"/>
			<point x="555" y="536" type="curve" smooth="yes"/>
			<point x="572" y="536"/>
			<point x="590" y="536"/>
		</contour>
		<contour>
			<point x="233" y="184" type="curve" smooth="yes"/>
			<point x="289" y="196"/>
			<point x="409" y="211"/>
			<point x="484" y="212" type="curve" smooth="yes"/>
			<point x="531" y="214"/>
			<point x="606" y="248"/>
			<point x="621" y="325" type="curve" smooth="yes"/>
			<point x="622" y="332"/>
			<point x="623" y="338"/>
			<point x="623" y="343" type="curve" smooth="yes"/>
			<point x="623" y="368"/>
			<point x="607" y="378"/>
			<point x="556" y="380" type="curve" smooth="yes"/>
			<point x="443" y="379"/>
			<point x="334" y="373"/>
			<point x="253" y="357" type="curve" smooth="yes"/>
			<point x="213" y="349"/>
			<point x="163" y="299"/>
			<point x="154" y="256" type="curve" smooth="yes"/>
			<point x="153" y="250"/>
			<point x="153" y="244"/>
			<point x="153" y="238" type="curve" smooth="yes"/>
			<point x="153" y="206"/>
			<point x="170" y="181"/>
			<point x="209" y="181" type="curve" smooth="yes"/>
			<point x="216" y="181"/>
			<point x="225" y="182"/>
		</contour>
	</outline>
	<anchor name="top" x="331" y="708"/>
	<anchor name="bottom" x="270" y="-19"/>
</glyph>
<glyph name="F" format="2">
	<unicode hex="0046"/>
	<advance width="604"/>
	<outline>
		<contour>
			<point x="303" y="271" type="curve" smooth="yes"/>
			<point x="333" y="429"/>
			<point x="362" y="515"/>
			<point x="368" y="548" type="curve" smooth="yes"/>
			<point x="370" y="555"/>
			<point x="370" y="561"/>
			<point x="370" y="567" type="curve" smooth="yes"/>
			<point x="370" y="594"/>
			<point x="355" y="608"/>
			<point x="316" y="609" type="curve" smooth="yes"/>
			<point x="314" y="609"/>
			<point x="313" y="609"/>
			<point x="311" y="609" type="curve" smooth="yes"/>
			<point x="257" y="609"/>
			<point x="222" y="579"/>
			<point x="187" y="491" type="curve" smooth="yes"/>
			<point x="164" y="432"/>
			<point x="151" y="388"/>
			<point x="135" y="301" type="curve" smooth="yes"/>
			<point x="122" y="237"/>
			<point x="116" y="180"/>
			<point x="116" y="132" type="curve" smooth="yes"/>
			<point x="116" y="72"/>
			<point x="126" y="26"/>
			<point x="145" y="-3" type="curve" smooth="yes"/>
			<point x="174" y="-51"/>
			<point x="218" y="-67"/>
			<point x="250" y="-68" type="curve" smooth="yes"/>
			<point x="253" y="-68"/>
			<point x="256" y="-68"/>
			<point x="258" y="-68" type="curve" smooth="yes"/>
			<point x="305" y="-68"/>
			<point x="322" y="-52"/>
			<point x="328" y="-23" type="curve" smooth="yes"/>
			<point x="329" y="-16"/>
			<point x="330" y="-10"/>
			<point x="330" y="-4" type="curve" smooth="yes"/>
			<point x="330" y="46"/>
			<point x="293" y="80"/>
			<point x="293" y="175" type="curve" smooth="yes"/>
			<point x="293" y="202"/>
			<point x="296" y="233"/>
		</contour>
		<contour>
			<point x="600" y="549" type="curve" smooth="yes"/>
			<point x="601" y="549"/>
			<point x="602" y="549"/>
			<point x="603" y="549" type="curve" smooth="yes"/>
			<point x="633" y="549"/>
			<point x="647" y="564"/>
			<point x="654" y="602" type="curve" smooth="yes"/>
			<point x="655" y="609"/>
			<point x="656" y="616"/>
			<point x="656" y="622" type="curve" smooth="yes"/>
			<point x="656" y="681"/>
			<point x="603" y="721"/>
			<point x="537" y="727" type="curve" smooth="yes"/>
			<point x="515" y="729"/>
			<point x="491" y="730"/>
			<point x="467" y="730" type="curve" smooth="yes"/>
			<point x="371" y="730"/>
			<point x="265" y="716"/>
			<point x="189" y="699" type="curve" smooth="yes"/>
			<point x="151" y="691"/>
			<point x="133" y="666"/>
			<point x="129" y="644" type="curve" smooth="yes"/>
			<point x="128" y="639"/>
			<point x="127" y="634"/>
			<point x="127" y="629" type="curve" smooth="yes"/>
			<point x="127" y="586"/>
			<point x="162" y="538"/>
			<point x="249" y="535" type="curve" smooth="yes"/>
			<point x="250" y="535"/>
			<point x="251" y="535"/>
			<point x="253" y="535" type="curve" smooth="yes"/>
			<point x="291" y="535"/>
			<point x="377" y="550"/>
			<point x="523" y="550" type="curve" smooth="yes"/>
			<point x="547" y="550"/>
			<point x="572" y="550"/>
		</contour>
		<contour>
			<point x="234" y="184" type="curve" smooth="yes"/>
			<point x="293" y="197"/>
			<point x="418" y="211"/>
			<point x="498" y="212" type="curve" smooth="yes"/>
			<point x="545" y="214"/>
			<point x="620" y="248"/>
			<point x="634" y="325" type="curve" smooth="yes"/>
			<point x="636" y="332"/>
			<point x="636" y="337"/>
			<point x="636" y="343" type="curve" smooth="yes"/>
			<point x="636" y="368"/>
			<point x="620" y="378"/>
			<point x="569" y="380" type="curve" smooth="yes"/>
			<point x="452" y="378"/>
			<point x="338" y="374"/>
			<point x="253" y="358" type="curve" smooth="yes"/>
			<point x="214" y="349"/>
			<point x="163" y="299"/>
			<point x="155" y="256" type="curve" smooth="yes"/>
			<point x="154" y="250"/>
			<point x="153" y="244"/>
			<point x="153" y="238" type="curve" smooth="yes"/>
			<point x="153" y="206"/>
			<point x="170" y="181"/>
			<point x="209" y="181" type="curve" smooth="yes"/>
			<point x="217" y="181"/>
			<point x="225" y="182"/>
		</contour>
	</outline>
	<anchor name="top" x="331" y="725"/>
	<anchor name="bottom" x="270" y="-57"/>
</glyph>
<glyph name="G.alt1" format="2">
	<unicode hex="0047"/>
	<advance width="839"/>
	<outline>
		<contour>
			<point x="462" y="246" type="curve" smooth="yes"/>
			<point x="465" y="246"/>
			<point x="467" y="246"/>
			<point x="470" y="246" type="curve" smooth="yes"/>
			<point x="521" y="246"/>
			<point x="585" y="264"/>
			<point x="716" y="264" type="curve" smooth="yes"/>
			<point x="734" y="264"/>
			<point x="753" y="263"/>
			<point x="773" y="263" type="curve" smooth="yes"/>
			<point x="775" y="263"/>
			<point x="777" y="263"/>
			<point x="778" y="263" type="curve" smooth="yes"/>
			<point x="841" y="263"/>
			<point x="876" y="308"/>
			<point x="886" y="357" type="curve" smooth="yes"/>
			<point x="887" y="364"/>
			<point x="888" y="371"/>
			<point x="888" y="377" type="curve" smooth="yes"/>
			<point x="888" y="409"/>
			<point x="865" y="426"/>
			<point x="784" y="429" type="curve" smooth="yes"/>
			<point x="768" y="430"/>
			<point x="752" y="430"/>
			<point x="737" y="430" type="curve" smooth="yes"/>
			<point x="630" y="430"/>
			<point x="544" y="419"/>
			<point x="464" y="399" type="curve" smooth="yes"/>
			<point x="411" y="387"/>
			<point x="395" y="372"/>
			<point x="389" y="337" type="curve" smooth="yes"/>
			<point x="387" y="331"/>
			<point x="387" y="325"/>
			<point x="387" y="320" type="curve" smooth="yes"/>
			<point x="387" y="278"/>
			<point x="419" y="248"/>
		</contour>
		<contour>
			<point x="681" y="-118" type="curve" smooth="yes"/>
			<point x="681" y="-118"/>
			<point x="682" y="-118"/>
			<point x="683" y="-118" type="curve" smooth="yes"/>
			<point x="708" y="-118"/>
			<point x="748" y="-102"/>
			<point x="756" y="-63" type="curve" smooth="yes"/>
			<point x="757" y="-56"/>
			<point x="758" y="-50"/>
			<point x="758" y="-44" type="curve" smooth="yes"/>
			<point x="758" y="-31"/>
			<point x="754" y="-16"/>
			<point x="745" y="17" type="curve" smooth="yes"/>
			<point x="736" y="48"/>
			<point x="731" y="76"/>
			<point x="731" y="111" type="curve" smooth="yes"/>
			<point x="731" y="152"/>
			<point x="738" y="203"/>
			<point x="753" y="279" type="curve" smooth="yes"/>
			<point x="754" y="284"/>
			<point x="754" y="287"/>
			<point x="754" y="291" type="curve" smooth="yes"/>
			<point x="754" y="321"/>
			<point x="728" y="340"/>
			<point x="681" y="341" type="curve" smooth="yes"/>
			<point x="678" y="341"/>
			<point x="676" y="342"/>
			<point x="674" y="342" type="curve" smooth="yes"/>
			<point x="634" y="342"/>
			<point x="618" y="328"/>
			<point x="587" y="292" type="curve" smooth="yes"/>
			<point x="509" y="200"/>
			<point x="417" y="171"/>
			<point x="346" y="171" type="curve" smooth="yes"/>
			<point x="343" y="171"/>
			<point x="340" y="171"/>
			<point x="337" y="171" type="curve" smooth="yes"/>
			<point x="293" y="173"/>
			<point x="271" y="193"/>
			<point x="271" y="233" type="curve" smooth="yes"/>
			<point x="271" y="241"/>
			<point x="272" y="251"/>
			<point x="274" y="261" type="curve" smooth="yes"/>
			<point x="295" y="369"/>
			<point x="430" y="513"/>
			<point x="553" y="513" type="curve" smooth="yes"/>
			<point x="555" y="513"/>
			<point x="557" y="513"/>
			<point x="559" y="513" type="curve" smooth="yes"/>
			<point x="604" y="511"/>
			<point x="579" y="473"/>
			<point x="621" y="471" type="curve" smooth="yes"/>
			<point x="622" y="471"/>
			<point x="623" y="471"/>
			<point x="624" y="471" type="curve" smooth="yes"/>
			<point x="685" y="471"/>
			<point x="736" y="529"/>
			<point x="749" y="596" type="curve" smooth="yes"/>
			<point x="750" y="604"/>
			<point x="751" y="612"/>
			<point x="751" y="620" type="curve" smooth="yes"/>
			<point x="751" y="668"/>
			<point x="719" y="702"/>
			<point x="641" y="705" type="curve" smooth="yes"/>
			<point x="637" y="705"/>
			<point x="632" y="705"/>
			<point x="628" y="705" type="curve" smooth="yes"/>
			<point x="395" y="705"/>
			<point x="129" y="488"/>
			<point x="83" y="251" type="curve" smooth="yes"/>
			<point x="79" y="229"/>
			<point x="77" y="209"/>
			<point x="77" y="190" type="curve" smooth="yes"/>
			<point x="77" y="75"/>
			<point x="150" y="0"/>
			<point x="285" y="-5" type="curve" smooth="yes"/>
			<point x="290" y="-5"/>
			<point x="295" y="-5"/>
			<point x="299" y="-5" type="curve" smooth="yes"/>
			<point x="402" y="-5"/>
			<point x="519" y="35"/>
			<point x="583" y="115" type="curve"/>
			<point x="558" y="120" type="line"/>
			<point x="557" y="103"/>
			<point x="557" y="87"/>
			<point x="557" y="72" type="curve" smooth="yes"/>
			<point x="557" y="11"/>
			<point x="562" y="-23"/>
			<point x="575" y="-56" type="curve" smooth="yes"/>
			<point x="593" y="-98"/>
			<point x="626" y="-117"/>
		</contour>
	</outline>
	<anchor name="top" x="513" y="700"/>
	<anchor name="bottom" x="405" y="0"/>
</glyph>
<glyph name="G.alt2" format="2">
	<unicode hex="0047"/>
	<advance width="839"/>
	<outline>
		<contour>
			<point x="452" y="247" type="curve" smooth="yes"/>
			<point x="455" y="247"/>
			<point x="458" y="247"/>
			<point x="461" y="247" type="curve" smooth="yes"/>
			<point x="517" y="247"/>
			<point x="584" y="264"/>
			<point x="723" y="264" type="curve" smooth="yes"/>
			<point x="744" y="264"/>
			<point x="766" y="263"/>
			<point x="789" y="262" type="curve" smooth="yes"/>
			<point x="791" y="262"/>
			<point x="793" y="262"/>
			<point x="794" y="262" type="curve" smooth="yes"/>
			<point x="857" y="262"/>
			<point x="892" y="307"/>
			<point x="902" y="357" type="curve" smooth="yes"/>
			<point x="903" y="364"/>
			<point x="904" y="371"/>
			<point x="904" y="377" type="curve" smooth="yes"/>
			<point x="904" y="409"/>
			<point x="881" y="426"/>
			<point x="800" y="429" type="curve" smooth="yes"/>
			<point x="778" y="430"/>
			<point x="758" y="430"/>
			<point x="738" y="430" type="curve" smooth="yes"/>
			<point x="628" y="430"/>
			<point x="538" y="421"/>
			<point x="454" y="400" type="curve" smooth="yes"/>
			<point x="401" y="388"/>
			<point x="385" y="372"/>
			<point x="379" y="337" type="curve" smooth="yes"/>
			<point x="378" y="331"/>
			<point x="377" y="326"/>
			<point x="377" y="321" type="curve" smooth="yes"/>
			<point x="377" y="279"/>
			<point x="409" y="249"/>
		</contour>
		<contour>
			<point x="671" y="-118" type="curve" smooth="yes"/>
			<point x="672" y="-118"/>
			<point x="672" y="-118"/>
			<point x="673" y="-118" type="curve" smooth="yes"/>
			<point x="698" y="-118"/>
			<point x="738" y="-101"/>
			<point x="746" y="-62" type="curve" smooth="yes"/>
			<point x="747" y="-55"/>
			<point x="748" y="-49"/>
			<point x="748" y="-43" type="curve" smooth="yes"/>
			<point x="748" y="-30"/>
			<point x="744" y="-15"/>
			<point x="735" y="18" type="curve" smooth="yes"/>
			<point x="726" y="49"/>
			<point x="721" y="77"/>
			<point x="721" y="112" type="curve" smooth="yes"/>
			<point x="721" y="153"/>
			<point x="728" y="203"/>
			<point x="743" y="280" type="curve" smooth="yes"/>
			<point x="744" y="284"/>
			<point x="744" y="288"/>
			<point x="744" y="292" type="curve" smooth="yes"/>
			<point x="744" y="322"/>
			<point x="719" y="340"/>
			<point x="671" y="342" type="curve" smooth="yes"/>
			<point x="668" y="342"/>
			<point x="666" y="342"/>
			<point x="664" y="342" type="curve" smooth="yes"/>
			<point x="624" y="342"/>
			<point x="608" y="329"/>
			<point x="577" y="293" type="curve" smooth="yes"/>
			<point x="500" y="201"/>
			<point x="413" y="171"/>
			<point x="345" y="171" type="curve" smooth="yes"/>
			<point x="342" y="171"/>
			<point x="339" y="172"/>
			<point x="337" y="172" type="curve" smooth="yes"/>
			<point x="293" y="173"/>
			<point x="271" y="193"/>
			<point x="271" y="233" type="curve" smooth="yes"/>
			<point x="271" y="242"/>
			<point x="272" y="251"/>
			<point x="274" y="261" type="curve" smooth="yes"/>
			<point x="295" y="370"/>
			<point x="430" y="513"/>
			<point x="560" y="513" type="curve" smooth="yes"/>
			<point x="562" y="513"/>
			<point x="564" y="513"/>
			<point x="566" y="513" type="curve" smooth="yes"/>
			<point x="615" y="511"/>
			<point x="607" y="482"/>
			<point x="640" y="481" type="curve" smooth="yes"/>
			<point x="641" y="481"/>
			<point x="641" y="481"/>
			<point x="642" y="481" type="curve" smooth="yes"/>
			<point x="694" y="481"/>
			<point x="738" y="530"/>
			<point x="749" y="587" type="curve" smooth="yes"/>
			<point x="751" y="596"/>
			<point x="752" y="605"/>
			<point x="752" y="614" type="curve" smooth="yes"/>
			<point x="752" y="665"/>
			<point x="720" y="703"/>
			<point x="641" y="705" type="curve" smooth="yes"/>
			<point x="637" y="705"/>
			<point x="632" y="705"/>
			<point x="628" y="705" type="curve" smooth="yes"/>
			<point x="395" y="705"/>
			<point x="129" y="488"/>
			<point x="83" y="251" type="curve" smooth="yes"/>
			<point x="79" y="230"/>
			<point x="77" y="209"/>
			<point x="77" y="190" type="curve" smooth="yes"/>
			<point x="77" y="75"/>
			<point x="150" y="0"/>
			<point x="286" y="-5" type="curve" smooth="yes"/>
			<point x="290" y="-5"/>
			<point x="294" y="-5"/>
			<point x="298" y="-5" type="curve" smooth="yes"/>
			<point x="397" y="-5"/>
			<point x="509" y="36"/>
			<point x="573" y="116" type="curve"/>
			<point x="548" y="121" type="line"/>
			<point x="547" y="103"/>
			<point x="547" y="87"/>
			<point x="547" y="73" type="curve" smooth="yes"/>
			<point x="547" y="11"/>
			<point x="553" y="-23"/>
			<point x="565" y="-56" type="curve" smooth="yes"/>
			<point x="583" y="-98"/>
			<point x="616" y="-116"/>
		</contour>
	</outline>
	<anchor name="top" x="513" y="700"/>
	<anchor name="bottom" x="405" y="0"/>
</glyph>
<glyph name="H.alt1" format="2">
	<unicode hex="0048"/>
	<advance width="730"/>
	<outline>
		<contour>
			<point x="189" y="1" type="curve" smooth="yes"/>
			<point x="190" y="1"/>
			<point x="191" y="1"/>
			<point x="192" y="1" type="curve" smooth="yes"/>
			<point x="233" y="1"/>
			<point x="270" y="30"/>
			<point x="277" y="66" type="curve" smooth="yes"/>
			<point x="304" y="206"/>
			<point x="328" y="411"/>
			<point x="368" y="616" type="curve" smooth="yes"/>
			<point x="370" y="625"/>
			<point x="370" y="632"/>
			<point x="370" y="639" type="curve" smooth="yes"/>
			<point x="370" y="696"/>
			<point x="325" y="725"/>
			<point x="274" y="726" type="curve" smooth="yes"/>
			<point x="272" y="726"/>
			<point x="269" y="727"/>
			<point x="267" y="727" type="curve" smooth="yes"/>
			<point x="213" y="727"/>
			<point x="186" y="706"/>
			<point x="175" y="647" type="curve" smooth="yes"/>
			<point x="164" y="592"/>
			<point x="141" y="280"/>
			<point x="105" y="136" type="curve" smooth="yes"/>
			<point x="103" y="128"/>
			<point x="102" y="120"/>
			<point x="102" y="112" type="curve" smooth="yes"/>
			<point x="102" y="59"/>
			<point x="144" y="2"/>
		</contour>
		<contour>
			<point x="582" y="-43" type="curve" smooth="yes"/>
			<point x="583" y="-43"/>
			<point x="584" y="-43"/>
			<point x="585" y="-43" type="curve" smooth="yes"/>
			<point x="624" y="-43"/>
			<point x="646" y="-16"/>
			<point x="651" y="10" type="curve" smooth="yes"/>
			<point x="669" y="103"/>
			<point x="662" y="158"/>
			<point x="673" y="223" type="curve" smooth="yes"/>
			<point x="688" y="303"/>
			<point x="720" y="431"/>
			<point x="739" y="534" type="curve" smooth="yes"/>
			<point x="743" y="553"/>
			<point x="745" y="570"/>
			<point x="745" y="585" type="curve" smooth="yes"/>
			<point x="745" y="652"/>
			<point x="712" y="686"/>
			<point x="662" y="688" type="curve" smooth="yes"/>
			<point x="661" y="688"/>
			<point x="660" y="688"/>
			<point x="659" y="688" type="curve" smooth="yes"/>
			<point x="626" y="688"/>
			<point x="593" y="672"/>
			<point x="586" y="634" type="curve" smooth="yes"/>
			<point x="569" y="550"/>
			<point x="530" y="423"/>
			<point x="504" y="288" type="curve" smooth="yes"/>
			<point x="492" y="225"/>
			<point x="485" y="169"/>
			<point x="485" y="122" type="curve" smooth="yes"/>
			<point x="485" y="19"/>
			<point x="516" y="-41"/>
		</contour>
		<contour>
			<point x="238" y="282" type="curve" smooth="yes"/>
			<point x="241" y="282"/>
			<point x="244" y="282"/>
			<point x="246" y="282" type="curve" smooth="yes"/>
			<point x="300" y="282"/>
			<point x="385" y="298"/>
			<point x="569" y="298" type="curve" smooth="yes"/>
			<point x="606" y="298"/>
			<point x="646" y="298"/>
			<point x="690" y="296" type="curve" smooth="yes"/>
			<point x="691" y="296"/>
			<point x="692" y="296"/>
			<point x="693" y="296" type="curve" smooth="yes"/>
			<point x="722" y="296"/>
			<point x="743" y="316"/>
			<point x="750" y="348" type="curve" smooth="yes"/>
			<point x="750" y="353"/>
			<point x="751" y="357"/>
			<point x="751" y="361" type="curve" smooth="yes"/>
			<point x="751" y="403"/>
			<point x="716" y="459"/>
			<point x="610" y="463" type="curve" smooth="yes"/>
			<point x="558" y="465"/>
			<point x="505" y="467"/>
			<point x="452" y="467" type="curve" smooth="yes"/>
			<point x="348" y="467"/>
			<point x="242" y="460"/>
			<point x="139" y="433" type="curve" smooth="yes"/>
			<point x="109" y="426"/>
			<point x="101" y="412"/>
			<point x="96" y="391" type="curve" smooth="yes"/>
			<point x="96" y="386"/>
			<point x="95" y="382"/>
			<point x="95" y="378" type="curve" smooth="yes"/>
			<point x="95" y="332"/>
			<point x="143" y="285"/>
		</contour>
	</outline>
	<anchor name="top" x="370" y="700"/>
	<anchor name="bottom" x="370" y="0"/>
</glyph>
<glyph name="H.alt2" format="2">
	<unicode hex="0048"/>
	<advance width="730"/>
	<outline>
		<contour>
			<point x="191" y="7" type="curve" smooth="yes"/>
			<point x="192" y="7"/>
			<point x="192" y="7"/>
			<point x="193" y="7" type="curve" smooth="yes"/>
			<point x="234" y="7"/>
			<point x="271" y="36"/>
			<point x="278" y="72" type="curve" smooth="yes"/>
			<point x="305" y="212"/>
			<point x="329" y="414"/>
			<point x="369" y="620" type="curve" smooth="yes"/>
			<point x="371" y="629"/>
			<point x="372" y="638"/>
			<point x="372" y="646" type="curve" smooth="yes"/>
			<point x="372" y="705"/>
			<point x="326" y="735"/>
			<point x="276" y="736" type="curve" smooth="yes"/>
			<point x="274" y="736"/>
			<point x="271" y="736"/>
			<point x="269" y="736" type="curve" smooth="yes"/>
			<point x="215" y="736"/>
			<point x="188" y="714"/>
			<point x="176" y="651" type="curve" smooth="yes"/>
			<point x="165" y="595"/>
			<point x="142" y="285"/>
			<point x="107" y="142" type="curve" smooth="yes"/>
			<point x="105" y="134"/>
			<point x="104" y="126"/>
			<point x="104" y="118" type="curve" smooth="yes"/>
			<point x="104" y="65"/>
			<point x="146" y="8"/>
		</contour>
		<contour>
			<point x="577" y="-67" type="curve" smooth="yes"/>
			<point x="578" y="-67"/>
			<point x="579" y="-67"/>
			<point x="580" y="-67" type="curve" smooth="yes"/>
			<point x="619" y="-67"/>
			<point x="642" y="-40"/>
			<point x="647" y="-14" type="curve" smooth="yes"/>
			<point x="667" y="89"/>
			<point x="661" y="151"/>
			<point x="674" y="223" type="curve" smooth="yes"/>
			<point x="688" y="301"/>
			<point x="719" y="425"/>
			<point x="738" y="524" type="curve" smooth="yes"/>
			<point x="741" y="543"/>
			<point x="743" y="560"/>
			<point x="743" y="575" type="curve" smooth="yes"/>
			<point x="743" y="642"/>
			<point x="710" y="676"/>
			<point x="660" y="678" type="curve" smooth="yes"/>
			<point x="659" y="678"/>
			<point x="658" y="678"/>
			<point x="657" y="678" type="curve" smooth="yes"/>
			<point x="624" y="678"/>
			<point x="591" y="661"/>
			<point x="584" y="624" type="curve" smooth="yes"/>
			<point x="568" y="542"/>
			<point x="529" y="419"/>
			<point x="504" y="288" type="curve" smooth="yes"/>
			<point x="490" y="216"/>
			<point x="483" y="154"/>
			<point x="483" y="102" type="curve" smooth="yes"/>
			<point x="483" y="-4"/>
			<point x="513" y="-65"/>
		</contour>
		<contour>
			<point x="229" y="282" type="curve" smooth="yes"/>
			<point x="232" y="282"/>
			<point x="234" y="282"/>
			<point x="237" y="282" type="curve" smooth="yes"/>
			<point x="293" y="282"/>
			<point x="380" y="298"/>
			<point x="567" y="298" type="curve" smooth="yes"/>
			<point x="606" y="298"/>
			<point x="649" y="298"/>
			<point x="697" y="296" type="curve" smooth="yes"/>
			<point x="697" y="296"/>
			<point x="698" y="296"/>
			<point x="699" y="296" type="curve" smooth="yes"/>
			<point x="729" y="296"/>
			<point x="750" y="316"/>
			<point x="756" y="348" type="curve" smooth="yes"/>
			<point x="757" y="352"/>
			<point x="757" y="357"/>
			<point x="757" y="361" type="curve" smooth="yes"/>
			<point x="757" y="402"/>
			<point x="722" y="459"/>
			<point x="616" y="463" type="curve" smooth="yes"/>
			<point x="558" y="465"/>
			<point x="499" y="467"/>
			<point x="441" y="467" type="curve" smooth="yes"/>
			<point x="337" y="467"/>
			<point x="232" y="460"/>
			<point x="129" y="434" type="curve" smooth="yes"/>
			<point x="100" y="427"/>
			<point x="91" y="413"/>
			<point x="87" y="391" type="curve" smooth="yes"/>
			<point x="86" y="387"/>
			<point x="85" y="382"/>
			<point x="85" y="378" type="curve" smooth="yes"/>
			<point x="85" y="332"/>
			<point x="133" y="286"/>
		</contour>
	</outline>
	<anchor name="top" x="370" y="700"/>
	<anchor name="bottom" x="370" y="0"/>
</glyph>
<glyph name="H" format="2">
	<unicode hex="0048"/>
	<advance width="730"/>
	<outline>
		<contour>
			<point x="192" y="14" type="curve" smooth="yes"/>
			<point x="193" y="14"/>
			<point x="194" y="14"/>
			<point x="195" y="14" type="curve" smooth="yes"/>
			<point x="236" y="14"/>
			<point x="273" y="43"/>
			<point x="280" y="79" type="curve" smooth="yes"/>
			<point x="307" y="218"/>
			<point x="331" y="419"/>
			<point x="370" y="623" type="curve" smooth="yes"/>
			<point x="372" y="633"/>
			<point x="373" y="643"/>
			<point x="373" y="652" type="curve" smooth="yes"/>
			<point x="373" y="714"/>
			<point x="328" y="744"/>
			<point x="279" y="746" type="curve" smooth="yes"/>
			<point x="276" y="746"/>
			<point x="274" y="746"/>
			<point x="272" y="746" type="curve" smooth="yes"/>
			<point x="218" y="746"/>
			<point x="190" y="722"/>
			<point x="177" y="654" type="curve" smooth="yes"/>
			<point x="166" y="599"/>
			<point x="143" y="291"/>
			<point x="108" y="149" type="curve" smooth="yes"/>
			<point x="106" y="141"/>
			<point x="105" y="133"/>
			<point x="105" y="125" type="curve" smooth="yes"/>
			<point x="105" y="72"/>
			<point x="147" y="15"/>
		</contour>
		<contour>
			<point x="573" y="-93" type="curve" smooth="yes"/>
			<point x="574" y="-93"/>
			<point x="575" y="-93"/>
			<point x="576" y="-93" type="curve" smooth="yes"/>
			<point x="615" y="-93"/>
			<point x="637" y="-66"/>
			<point x="642" y="-40" type="curve" smooth="yes"/>
			<point x="664" y="74"/>
			<point x="660" y="143"/>
			<point x="674" y="223" type="curve" smooth="yes"/>
			<point x="688" y="298"/>
			<point x="718" y="418"/>
			<point x="736" y="514" type="curve" smooth="yes"/>
			<point x="740" y="533"/>
			<point x="741" y="550"/>
			<point x="741" y="565" type="curve" smooth="yes"/>
			<point x="741" y="632"/>
			<point x="709" y="666"/>
			<point x="659" y="667" type="curve" smooth="yes"/>
			<point x="658" y="668"/>
			<point x="656" y="668"/>
			<point x="655" y="668" type="curve" smooth="yes"/>
			<point x="623" y="668"/>
			<point x="590" y="651"/>
			<point x="582" y="614" type="curve" smooth="yes"/>
			<point x="567" y="534"/>
			<point x="529" y="415"/>
			<point x="504" y="288" type="curve" smooth="yes"/>
			<point x="489" y="207"/>
			<point x="481" y="137"/>
			<point x="481" y="80" type="curve" smooth="yes"/>
			<point x="481" y="-29"/>
			<point x="510" y="-91"/>
		</contour>
		<contour>
			<point x="219" y="282" type="curve" smooth="yes"/>
			<point x="222" y="282"/>
			<point x="225" y="282"/>
			<point x="228" y="282" type="curve" smooth="yes"/>
			<point x="285" y="282"/>
			<point x="375" y="298"/>
			<point x="566" y="298" type="curve" smooth="yes"/>
			<point x="607" y="298"/>
			<point x="653" y="297"/>
			<point x="704" y="296" type="curve" smooth="yes"/>
			<point x="705" y="296"/>
			<point x="705" y="296"/>
			<point x="706" y="296" type="curve" smooth="yes"/>
			<point x="736" y="296"/>
			<point x="757" y="316"/>
			<point x="763" y="348" type="curve" smooth="yes"/>
			<point x="764" y="352"/>
			<point x="764" y="356"/>
			<point x="764" y="361" type="curve" smooth="yes"/>
			<point x="764" y="402"/>
			<point x="730" y="459"/>
			<point x="623" y="462" type="curve" smooth="yes"/>
			<point x="560" y="465"/>
			<point x="496" y="467"/>
			<point x="431" y="467" type="curve" smooth="yes"/>
			<point x="327" y="467"/>
			<point x="222" y="460"/>
			<point x="119" y="434" type="curve" smooth="yes"/>
			<point x="90" y="427"/>
			<point x="81" y="413"/>
			<point x="77" y="391" type="curve" smooth="yes"/>
			<point x="76" y="387"/>
			<point x="76" y="383"/>
			<point x="76" y="378" type="curve" smooth="yes"/>
			<point x="76" y="332"/>
			<point x="124" y="286"/>
		</contour>
	</outline>
	<anchor name="top" x="370" y="700"/>
	<anchor name="bottom" x="370" y="0"/>
</glyph>
<glyph name="I.alt1" format="2">
	<unicode hex="0049"/>
	<advance width="610"/>
	<outline>
		<contour>
			<point x="184" y="2" type="curve" smooth="yes"/>
			<point x="188" y="2"/>
			<point x="192" y="2"/>
			<point x="196" y="2" type="curve" smooth="yes"/>
			<point x="231" y="2"/>
			<point x="292" y="6"/>
			<point x="365" y="6" type="curve" smooth="yes"/>
			<point x="386" y="6"/>
			<point x="409" y="5"/>
			<point x="432" y="5" type="curve" smooth="yes"/>
			<point x="436" y="4"/>
			<point x="440" y="4"/>
			<point x="444" y="4" type="curve" smooth="yes"/>
			<point x="541" y="4"/>
			<point x="591" y="46"/>
			<point x="601" y="97" type="curve" smooth="yes"/>
			<point x="602" y="102"/>
			<point x="602" y="107"/>
			<point x="602" y="111" type="curve" smooth="yes"/>
			<point x="602" y="141"/>
			<point x="578" y="165"/>
			<point x="488" y="168" type="curve" smooth="yes"/>
			<point x="392" y="171"/>
			<point x="344" y="180"/>
			<point x="272" y="180" type="curve" smooth="yes"/>
			<point x="230" y="180"/>
			<point x="180" y="177"/>
			<point x="108" y="168" type="curve" smooth="yes"/>
			<point x="71" y="163"/>
			<point x="47" y="137"/>
			<point x="41" y="107" type="curve" smooth="yes"/>
			<point x="40" y="101"/>
			<point x="40" y="95"/>
			<point x="40" y="89" type="curve" smooth="yes"/>
			<point x="40" y="41"/>
			<point x="81" y="6"/>
		</contour>
		<contour>
			<point x="220" y="504" type="curve" smooth="yes"/>
			<point x="224" y="504"/>
			<point x="227" y="504"/>
			<point x="231" y="504" type="curve" smooth="yes"/>
			<point x="278" y="504"/>
			<point x="342" y="513"/>
			<point x="452" y="513" type="curve" smooth="yes"/>
			<point x="475" y="513"/>
			<point x="501" y="512"/>
			<point x="529" y="511" type="curve" smooth="yes"/>
			<point x="531" y="511"/>
			<point x="533" y="511"/>
			<point x="535" y="511" type="curve" smooth="yes"/>
			<point x="605" y="511"/>
			<point x="673" y="550"/>
			<point x="685" y="610" type="curve" smooth="yes"/>
			<point x="687" y="620"/>
			<point x="688" y="628"/>
			<point x="688" y="635" type="curve" smooth="yes"/>
			<point x="688" y="676"/>
			<point x="658" y="687"/>
			<point x="580" y="690" type="curve" smooth="yes"/>
			<point x="564" y="690"/>
			<point x="547" y="690"/>
			<point x="528" y="690" type="curve" smooth="yes"/>
			<point x="448" y="690"/>
			<point x="347" y="685"/>
			<point x="235" y="674" type="curve" smooth="yes"/>
			<point x="183" y="668"/>
			<point x="141" y="642"/>
			<point x="132" y="597" type="curve" smooth="yes"/>
			<point x="131" y="589"/>
			<point x="130" y="582"/>
			<point x="130" y="575" type="curve" smooth="yes"/>
			<point x="130" y="537"/>
			<point x="154" y="506"/>
		</contour>
		<contour>
			<point x="333" y="129" type="curve" smooth="yes"/>
			<point x="334" y="129"/>
			<point x="335" y="129"/>
			<point x="336" y="129" type="curve" smooth="yes"/>
			<point x="375" y="129"/>
			<point x="401" y="151"/>
			<point x="410" y="196" type="curve" smooth="yes"/>
			<point x="434" y="322"/>
			<point x="471" y="424"/>
			<point x="481" y="477" type="curve" smooth="yes"/>
			<point x="482" y="482"/>
			<point x="483" y="487"/>
			<point x="483" y="491" type="curve" smooth="yes"/>
			<point x="483" y="535"/>
			<point x="444" y="569"/>
			<point x="391" y="571" type="curve" smooth="yes"/>
			<point x="390" y="571"/>
			<point x="388" y="571"/>
			<point x="386" y="571" type="curve" smooth="yes"/>
			<point x="339" y="571"/>
			<point x="319" y="544"/>
			<point x="309" y="492" type="curve" smooth="yes"/>
			<point x="294" y="416"/>
			<point x="259" y="314"/>
			<point x="239" y="210" type="curve" smooth="yes"/>
			<point x="238" y="205"/>
			<point x="238" y="200"/>
			<point x="238" y="196" type="curve" smooth="yes"/>
			<point x="238" y="157"/>
			<point x="274" y="131"/>
		</contour>
	</outline>
	<anchor name="top" x="317" y="683"/>
	<anchor name="bottom" x="317" y="11"/>
	<anchor name="ogonek" x="527" y="27"/>
</glyph>
<glyph name="I.alt2" format="2">
	<unicode hex="0049"/>
	<advance width="610"/>
	<outline>
		<contour>
			<point x="187" y="11" type="curve" smooth="yes"/>
			<point x="191" y="11"/>
			<point x="195" y="11"/>
			<point x="199" y="11" type="curve" smooth="yes"/>
			<point x="234" y="11"/>
			<point x="295" y="15"/>
			<point x="368" y="15" type="curve" smooth="yes"/>
			<point x="389" y="15"/>
			<point x="411" y="14"/>
			<point x="435" y="14" type="curve" smooth="yes"/>
			<point x="439" y="13"/>
			<point x="443" y="13"/>
			<point x="447" y="13" type="curve" smooth="yes"/>
			<point x="544" y="13"/>
			<point x="594" y="54"/>
			<point x="604" y="106" type="curve" smooth="yes"/>
			<point x="605" y="111"/>
			<point x="605" y="116"/>
			<point x="605" y="120" type="curve" smooth="yes"/>
			<point x="605" y="150"/>
			<point x="581" y="173"/>
			<point x="491" y="177" type="curve" smooth="yes"/>
			<point x="395" y="180"/>
			<point x="347" y="189"/>
			<point x="275" y="189" type="curve" smooth="yes"/>
			<point x="233" y="189"/>
			<point x="183" y="186"/>
			<point x="111" y="177" type="curve" smooth="yes"/>
			<point x="74" y="172"/>
			<point x="50" y="146"/>
			<point x="44" y="116" type="curve" smooth="yes"/>
			<point x="43" y="110"/>
			<point x="42" y="104"/>
			<point x="42" y="98" type="curve" smooth="yes"/>
			<point x="42" y="50"/>
			<point x="84" y="15"/>
		</contour>
		<contour>
			<point x="217" y="489" type="curve" smooth="yes"/>
			<point x="221" y="489"/>
			<point x="225" y="489"/>
			<point x="228" y="489" type="curve" smooth="yes"/>
			<point x="275" y="489"/>
			<point x="339" y="498"/>
			<point x="449" y="498" type="curve" smooth="yes"/>
			<point x="473" y="498"/>
			<point x="498" y="497"/>
			<point x="526" y="496" type="curve" smooth="yes"/>
			<point x="528" y="496"/>
			<point x="530" y="496"/>
			<point x="532" y="496" type="curve" smooth="yes"/>
			<point x="602" y="496"/>
			<point x="671" y="535"/>
			<point x="682" y="596" type="curve" smooth="yes"/>
			<point x="684" y="605"/>
			<point x="685" y="613"/>
			<point x="685" y="620" type="curve" smooth="yes"/>
			<point x="685" y="661"/>
			<point x="655" y="672"/>
			<point x="578" y="675" type="curve" smooth="yes"/>
			<point x="561" y="675"/>
			<point x="544" y="676"/>
			<point x="525" y="676" type="curve" smooth="yes"/>
			<point x="445" y="676"/>
			<point x="344" y="670"/>
			<point x="232" y="659" type="curve" smooth="yes"/>
			<point x="180" y="653"/>
			<point x="138" y="627"/>
			<point x="129" y="582" type="curve" smooth="yes"/>
			<point x="128" y="574"/>
			<point x="127" y="567"/>
			<point x="127" y="560" type="curve" smooth="yes"/>
			<point x="127" y="522"/>
			<point x="151" y="491"/>
		</contour>
		<contour>
			<point x="336" y="138" type="curve" smooth="yes"/>
			<point x="337" y="138"/>
			<point x="338" y="138"/>
			<point x="339" y="138" type="curve" smooth="yes"/>
			<point x="378" y="138"/>
			<point x="404" y="160"/>
			<point x="413" y="205" type="curve" smooth="yes"/>
			<point x="435" y="321"/>
			<point x="469" y="413"/>
			<point x="478" y="462" type="curve" smooth="yes"/>
			<point x="479" y="467"/>
			<point x="480" y="472"/>
			<point x="480" y="476" type="curve" smooth="yes"/>
			<point x="480" y="520"/>
			<point x="441" y="554"/>
			<point x="388" y="556" type="curve" smooth="yes"/>
			<point x="387" y="556"/>
			<point x="385" y="556"/>
			<point x="384" y="556" type="curve" smooth="yes"/>
			<point x="336" y="556"/>
			<point x="316" y="529"/>
			<point x="306" y="477" type="curve" smooth="yes"/>
			<point x="293" y="408"/>
			<point x="261" y="314"/>
			<point x="242" y="219" type="curve" smooth="yes"/>
			<point x="241" y="214"/>
			<point x="241" y="209"/>
			<point x="241" y="205" type="curve" smooth="yes"/>
			<point x="241" y="166"/>
			<point x="277" y="140"/>
		</contour>
	</outline>
	<anchor name="top" x="317" y="666"/>
	<anchor name="bottom" x="317" y="22"/>
	<anchor name="ogonek" x="527" y="38"/>
</glyph>
<glyph name="I" format="2">
	<unicode hex="0049"/>
	<advance width="610"/>
	<outline>
		<contour>
			<point x="189" y="20" type="curve" smooth="yes"/>
			<point x="192" y="20"/>
			<point x="196" y="20"/>
			<point x="201" y="20" type="curve" smooth="yes"/>
			<point x="236" y="20"/>
			<point x="296" y="24"/>
			<point x="369" y="24" type="curve" smooth="yes"/>
			<point x="391" y="24"/>
			<point x="413" y="23"/>
			<point x="437" y="23" type="curve" smooth="yes"/>
			<point x="441" y="22"/>
			<point x="445" y="22"/>
			<point x="449" y="22" type="curve" smooth="yes"/>
			<point x="546" y="22"/>
			<point x="596" y="63"/>
			<point x="606" y="115" type="curve" smooth="yes"/>
			<point x="606" y="120"/>
			<point x="607" y="124"/>
			<point x="607" y="129" type="curve" smooth="yes"/>
			<point x="607" y="159"/>
			<point x="582" y="182"/>
			<point x="493" y="186" type="curve" smooth="yes"/>
			<point x="397" y="189"/>
			<point x="349" y="198"/>
			<point x="277" y="198" type="curve" smooth="yes"/>
			<point x="235" y="198"/>
			<point x="185" y="195"/>
			<point x="113" y="186" type="curve" smooth="yes"/>
			<point x="76" y="181"/>
			<point x="52" y="155"/>
			<point x="46" y="125" type="curve" smooth="yes"/>
			<point x="45" y="119"/>
			<point x="44" y="113"/>
			<point x="44" y="107" type="curve" smooth="yes"/>
			<point x="44" y="59"/>
			<point x="86" y="24"/>
		</contour>
		<contour>
			<point x="215" y="474" type="curve" smooth="yes"/>
			<point x="218" y="474"/>
			<point x="222" y="474"/>
			<point x="226" y="474" type="curve" smooth="yes"/>
			<point x="272" y="474"/>
			<point x="336" y="483"/>
			<point x="446" y="483" type="curve" smooth="yes"/>
			<point x="470" y="483"/>
			<point x="495" y="482"/>
			<point x="523" y="481" type="curve" smooth="yes"/>
			<point x="525" y="481"/>
			<point x="528" y="481"/>
			<point x="530" y="481" type="curve" smooth="yes"/>
			<point x="599" y="481"/>
			<point x="668" y="520"/>
			<point x="679" y="581" type="curve" smooth="yes"/>
			<point x="681" y="590"/>
			<point x="682" y="598"/>
			<point x="682" y="605" type="curve" smooth="yes"/>
			<point x="682" y="646"/>
			<point x="652" y="657"/>
			<point x="575" y="660" type="curve" smooth="yes"/>
			<point x="559" y="660"/>
			<point x="541" y="661"/>
			<point x="522" y="661" type="curve" smooth="yes"/>
			<point x="443" y="661"/>
			<point x="341" y="655"/>
			<point x="229" y="644" type="curve" smooth="yes"/>
			<point x="177" y="638"/>
			<point x="135" y="612"/>
			<point x="126" y="567" type="curve" smooth="yes"/>
			<point x="125" y="559"/>
			<point x="124" y="552"/>
			<point x="124" y="545" type="curve" smooth="yes"/>
			<point x="124" y="507"/>
			<point x="148" y="476"/>
		</contour>
		<contour>
			<point x="337" y="147" type="curve" smooth="yes"/>
			<point x="339" y="147"/>
			<point x="340" y="147"/>
			<point x="341" y="147" type="curve" smooth="yes"/>
			<point x="380" y="147"/>
			<point x="406" y="169"/>
			<point x="414" y="214" type="curve" smooth="yes"/>
			<point x="435" y="319"/>
			<point x="467" y="403"/>
			<point x="476" y="447" type="curve" smooth="yes"/>
			<point x="476" y="452"/>
			<point x="477" y="457"/>
			<point x="477" y="461" type="curve" smooth="yes"/>
			<point x="477" y="505"/>
			<point x="438" y="539"/>
			<point x="386" y="541" type="curve" smooth="yes"/>
			<point x="384" y="541"/>
			<point x="382" y="541"/>
			<point x="381" y="541" type="curve" smooth="yes"/>
			<point x="334" y="541"/>
			<point x="313" y="514"/>
			<point x="303" y="462" type="curve" smooth="yes"/>
			<point x="291" y="399"/>
			<point x="261" y="314"/>
			<point x="244" y="228" type="curve" smooth="yes"/>
			<point x="243" y="223"/>
			<point x="243" y="218"/>
			<point x="243" y="214" type="curve" smooth="yes"/>
			<point x="243" y="175"/>
			<point x="278" y="149"/>
		</contour>
	</outline>
	<anchor name="top" x="317" y="648"/>
	<anchor name="bottom" x="317" y="33"/>
	<anchor name="ogonek" x="527" y="49"/>
</glyph>
